{"glyphs":{"0":{"ha":810,"x_min":71,"x_max":740,"o":"m 406 1018 q 653 887 565 1018 q 740 474 740 756 q 718 233 740 333 q 653 67 696 132 q 549 -28 611 3 q 406 -58 486 -58 q 262 -28 324 -58 q 157 67 200 3 q 92 233 114 132 q 71 474 71 333 q 158 887 71 756 q 406 1018 244 1018 m 406 949 q 153 474 153 949 q 217 122 153 233 q 406 10 282 10 q 594 122 529 10 q 658 474 658 233 q 406 949 658 949 z "},"1":{"ha":810,"x_min":178,"x_max":478,"o":"m 178 793 l 178 849 q 286 912 231 871 q 382 999 342 953 l 478 999 l 478 -46 l 400 -46 l 400 911 l 397 911 q 290 835 344 867 q 190 785 236 803 q 178 793 178 779 z "},"2":{"ha":810,"x_min":81,"x_max":721,"o":"m 135 819 q 124 816 129 814 q 118 825 118 818 l 118 907 q 241 983 169 949 q 401 1017 313 1017 q 624 952 543 1017 q 706 750 706 888 q 691 662 706 704 q 650 577 676 619 q 585 488 624 535 q 499 383 546 440 l 182 26 l 182 24 l 721 24 l 721 -46 l 81 -46 l 81 22 l 418 399 q 514 519 475 471 q 576 606 553 568 q 610 676 600 643 q 621 747 621 708 q 567 897 621 843 q 406 950 514 950 q 266 916 331 950 q 135 819 201 882 z "},"3":{"ha":810,"x_min":86,"x_max":733,"o":"m 103 128 q 396 8 222 8 q 494 24 447 8 q 576 68 542 39 q 632 140 611 97 q 653 235 653 182 q 631 337 653 293 q 572 410 610 381 q 483 455 535 440 q 368 469 431 469 l 326 469 l 326 535 l 349 535 q 430 544 382 535 q 521 576 478 553 q 594 643 564 600 q 625 754 625 686 q 563 900 625 846 q 399 954 500 954 q 265 929 326 954 q 132 842 203 904 q 121 838 126 836 q 115 847 115 840 l 115 925 q 165 960 135 943 q 233 990 196 976 q 311 1011 269 1003 q 394 1019 353 1019 q 527 1000 469 1019 q 624 947 585 981 q 685 865 664 913 q 706 763 706 818 q 653 599 706 669 q 504 507 600 528 l 504 504 q 594 476 553 497 q 667 420 636 454 q 716 339 699 386 q 733 235 733 292 q 712 124 733 178 q 647 31 690 71 q 540 -34 604 -10 q 393 -58 476 -58 q 302 -51 347 -58 q 217 -29 257 -43 q 142 4 176 -15 q 86 46 108 24 l 86 122 q 92 131 86 129 q 103 128 97 133 z "},"4":{"ha":810,"x_min":32,"x_max":786,"o":"m 521 999 l 618 999 l 618 264 l 786 264 l 786 201 l 618 201 l 618 -46 l 544 -46 l 544 201 l 32 201 l 32 261 l 521 999 m 550 938 l 504 849 l 113 264 l 113 261 l 549 261 l 549 840 l 550 938 z "},"5":{"ha":810,"x_min":88,"x_max":740,"o":"m 103 89 q 378 4 229 4 q 490 27 438 6 q 581 85 543 49 q 642 169 619 121 q 664 274 664 217 q 638 387 664 340 q 567 463 611 433 q 463 505 522 492 q 335 518 403 518 q 225 510 282 518 q 128 493 168 501 l 156 994 l 676 994 l 676 932 l 221 932 l 199 564 l 200 564 q 288 575 242 571 q 375 579 333 579 q 523 559 456 579 q 638 501 590 539 q 713 410 686 464 q 740 286 740 356 q 715 150 740 213 q 642 42 689 88 q 526 -31 594 -4 q 372 -57 457 -57 q 213 -37 285 -57 q 88 18 140 -18 l 88 83 q 92 92 88 90 q 103 89 97 94 z "},"6":{"ha":810,"x_min":83,"x_max":744,"o":"m 688 907 q 605 945 643 933 q 511 957 567 957 q 365 917 429 957 q 257 809 301 878 q 188 649 213 740 q 160 453 163 557 l 163 453 q 268 590 199 547 q 436 633 338 633 q 559 608 503 633 q 656 537 615 582 q 721 429 697 492 q 744 293 744 367 q 721 147 744 211 q 654 36 697 82 q 551 -34 611 -10 q 417 -58 490 -58 q 265 -22 328 -58 q 161 78 201 14 q 102 232 121 143 q 83 428 83 321 q 108 636 83 531 q 183 827 132 742 q 315 966 235 913 q 510 1019 396 1019 q 615 1008 568 1019 q 701 978 661 997 l 701 913 q 697 904 701 906 q 688 907 693 903 m 169 282 q 188 176 169 226 q 240 87 207 125 q 319 26 274 49 q 418 4 365 4 q 528 29 482 4 q 606 94 575 54 q 651 184 636 133 q 665 286 665 235 q 651 394 665 342 q 606 485 636 446 q 530 547 575 524 q 425 571 485 571 q 316 547 363 571 q 238 483 269 524 q 190 391 207 443 q 169 282 174 339 z "},"7":{"ha":810,"x_min":68,"x_max":725,"o":"m 214 -46 l 649 932 l 68 932 l 68 994 l 725 994 l 725 925 l 297 -46 l 214 -46 z "},"8":{"ha":810,"x_min":60,"x_max":749,"o":"m 404 0 q 506 16 457 0 q 591 62 554 32 q 650 135 628 92 q 672 233 672 179 q 650 331 672 286 q 591 408 628 375 q 506 458 554 440 q 404 476 457 476 q 303 458 351 476 q 217 408 254 440 q 158 331 181 375 q 136 233 136 286 q 158 135 136 179 q 217 62 181 92 q 303 16 254 32 q 404 0 351 0 m 404 543 q 491 556 447 543 q 569 595 535 569 q 626 660 604 621 q 649 750 649 699 q 628 838 649 799 q 574 903 608 876 q 496 945 540 931 q 404 960 451 960 q 313 945 357 960 q 234 903 268 931 q 180 838 200 876 q 160 750 160 799 q 182 660 160 699 q 239 595 204 621 q 317 556 274 569 q 404 543 361 543 m 404 -60 q 262 -37 325 -60 q 153 23 199 -15 q 84 113 108 61 q 60 225 60 165 q 113 399 60 325 q 288 503 165 472 l 288 507 q 136 601 189 538 q 83 750 83 665 q 103 854 83 806 q 162 939 122 903 q 262 997 201 975 q 404 1018 322 1018 q 547 997 486 1018 q 647 939 607 975 q 706 854 686 903 q 725 750 725 806 q 672 601 725 665 q 521 507 618 538 l 521 503 q 696 399 643 472 q 749 225 749 325 q 726 113 749 165 q 658 23 703 61 q 550 -37 614 -15 q 404 -60 486 -60 z "},"9":{"ha":810,"x_min":74,"x_max":736,"o":"m 132 49 q 204 21 156 35 q 310 7 253 7 q 456 42 390 7 q 567 143 521 78 q 639 301 613 208 q 668 507 665 393 l 665 507 q 622 437 649 469 q 560 380 596 404 q 478 342 524 356 q 378 328 432 328 q 250 353 307 328 q 154 425 193 379 q 94 533 115 471 q 74 668 74 594 q 97 814 74 749 q 165 925 121 879 q 268 995 208 971 q 401 1019 328 1019 q 572 976 506 1019 q 674 863 638 933 q 723 706 710 793 q 736 532 736 619 q 713 310 736 417 q 638 122 689 204 q 505 -9 586 40 q 310 -58 424 -58 q 202 -45 251 -58 q 121 -17 153 -32 l 121 43 q 132 49 121 57 m 647 679 q 631 786 647 735 q 583 876 614 838 q 506 938 551 915 q 404 961 461 961 q 294 935 342 961 q 216 868 247 910 q 169 774 185 826 q 153 671 153 722 q 167 564 153 615 q 210 474 181 513 q 286 412 240 435 q 396 389 332 389 q 504 413 458 389 q 581 476 550 436 q 627 569 611 517 q 647 679 643 622 z "}," ":{"ha":311,"x_min":0,"x_max":0,"o":""},"!":{"ha":619,"x_min":194,"x_max":339,"o":"m 221 1022 l 314 1022 l 293 253 l 236 253 l 221 1022 m 339 8 q 318 -43 339 -22 q 267 -64 297 -64 q 215 -43 236 -64 q 194 8 194 -22 q 215 60 194 39 q 267 81 236 81 q 318 60 297 81 q 339 8 339 39 z "},"\"":{"ha":413,"x_min":83,"x_max":329,"o":"m 83 1107 l 176 1107 l 165 788 l 113 788 l 83 1107 m 236 1107 l 329 1107 l 300 788 l 247 788 l 236 1107 z "},"#":{"ha":810,"x_min":32,"x_max":776,"o":"m 292 986 l 365 986 l 332 736 l 533 736 l 567 986 l 640 986 l 607 736 l 776 736 l 767 679 l 601 679 l 554 357 l 724 357 l 713 300 l 546 300 l 499 -39 l 425 -39 l 472 300 l 264 300 l 218 -39 l 144 -39 l 190 300 l 32 300 l 43 357 l 200 357 l 247 679 l 92 679 l 100 736 l 258 736 l 292 986 m 317 681 l 267 354 l 485 354 l 535 681 l 317 681 z "},"$":{"ha":810,"x_min":93,"x_max":735,"o":"m 454 -175 l 386 -175 l 386 -25 l 382 -25 q 213 0 288 -25 q 93 68 138 25 l 93 146 q 99 156 93 154 q 111 151 106 158 q 226 69 156 103 q 385 35 297 35 l 386 35 l 386 481 l 333 503 q 242 545 283 524 q 170 596 200 567 q 124 663 140 625 q 107 754 107 701 q 128 850 107 808 q 186 922 149 892 q 274 969 224 951 q 386 992 325 988 l 386 1097 l 454 1097 l 454 993 q 576 972 515 990 q 683 921 636 954 l 683 846 q 677 836 683 838 q 665 840 671 835 q 572 906 625 878 q 454 938 518 933 l 454 526 l 481 517 q 670 404 607 464 q 735 253 733 344 q 660 66 735 138 q 454 -21 586 -6 l 454 -175 m 654 247 q 638 319 654 289 q 592 374 621 350 q 526 418 564 399 q 446 457 489 438 l 446 39 q 598 108 542 53 q 654 247 654 163 m 179 757 q 197 688 179 718 q 243 633 214 657 q 308 590 272 608 q 382 556 344 571 l 394 550 l 394 936 q 309 918 349 932 q 241 881 269 904 q 196 827 213 858 q 179 757 179 796 z "},"%":{"ha":1239,"x_min":108,"x_max":1126,"o":"m 861 1017 l 943 1017 q 795 742 868 876 q 649 476 722 608 q 503 209 576 343 q 356 -65 431 75 l 272 -65 l 861 1017 m 325 1008 q 419 986 379 1008 q 487 926 460 964 q 528 840 514 889 q 542 739 542 792 q 528 638 542 686 q 487 552 514 589 q 419 494 460 515 q 325 472 379 472 q 230 494 271 472 q 162 552 189 515 q 122 638 135 589 q 108 739 108 686 q 122 840 108 792 q 162 926 135 889 q 230 986 189 964 q 325 1008 271 1008 m 325 957 q 258 938 285 957 q 215 887 231 918 q 192 817 199 856 q 185 738 185 778 q 192 659 185 697 q 215 590 199 621 q 258 541 231 560 q 325 522 285 522 q 392 541 365 522 q 435 590 419 560 q 458 659 451 621 q 464 738 464 697 q 458 817 464 778 q 435 887 451 856 q 392 938 419 918 q 325 957 365 957 m 910 485 q 1004 463 964 485 q 1072 403 1044 440 q 1113 317 1099 365 q 1126 215 1126 268 q 1113 114 1126 163 q 1072 28 1099 65 q 1004 -30 1044 -8 q 910 -51 964 -51 q 815 -30 856 -51 q 747 28 774 -8 q 706 114 719 65 q 693 215 693 163 q 706 317 693 268 q 747 403 719 365 q 815 463 774 440 q 910 485 856 485 m 910 433 q 842 414 869 433 q 799 363 815 394 q 776 293 783 332 q 769 214 769 254 q 776 135 769 174 q 799 67 783 97 q 842 17 815 36 q 910 -1 869 -1 q 977 17 950 -1 q 1020 67 1004 36 q 1043 135 1036 97 q 1050 214 1050 174 q 1043 293 1050 254 q 1020 363 1036 332 q 977 414 1004 394 q 910 433 950 433 z "},"&":{"ha":1239,"x_min":186,"x_max":1103,"o":"m 506 596 q 572 646 540 621 q 627 699 603 671 q 666 758 651 726 q 681 826 681 789 q 672 877 681 853 q 645 920 664 901 q 598 951 626 939 q 528 963 569 963 q 415 919 453 963 q 378 818 378 876 q 388 760 378 788 q 416 705 399 732 q 456 651 433 678 q 503 596 478 625 l 506 596 m 903 399 q 898 452 903 426 q 885 503 893 478 q 894 521 879 521 l 961 521 q 969 470 967 497 q 971 422 971 443 q 956 287 971 354 q 908 161 940 219 l 1103 -46 l 1006 -46 l 869 107 q 807 34 844 67 q 725 -22 769 1 q 633 -58 681 -46 q 538 -71 585 -71 q 391 -52 456 -71 q 281 2 326 -33 q 210 87 235 38 q 186 199 186 136 q 203 304 186 257 q 254 394 221 351 q 335 477 288 438 q 446 561 383 517 q 394 619 419 590 q 348 680 368 649 q 315 744 328 711 q 303 811 303 776 q 318 890 303 853 q 363 955 333 926 q 433 1000 392 983 q 528 1017 475 1017 q 625 1003 582 1017 q 698 964 668 989 q 743 906 728 939 q 758 833 758 872 q 740 750 758 789 q 690 677 721 711 q 623 613 660 643 q 551 556 586 583 l 861 206 q 896 304 889 256 q 903 399 903 353 m 496 518 q 331 373 389 447 q 274 204 274 299 q 292 120 274 158 q 343 54 310 82 q 423 10 376 26 q 526 -6 469 -6 q 613 6 569 -6 q 697 37 657 17 q 769 85 736 57 q 826 150 803 114 l 499 518 l 496 518 z "},"'":{"ha":413,"x_min":157,"x_max":256,"o":"m 182 788 l 157 1107 l 256 1107 l 229 788 l 182 788 z "},"(":{"ha":619,"x_min":219,"x_max":539,"o":"m 219 440 q 241 260 219 350 q 299 88 263 171 q 384 -71 335 4 q 489 -206 433 -146 l 539 -206 q 444 -56 486 -135 q 372 106 403 24 q 326 274 342 189 q 310 440 310 358 q 326 606 310 522 q 372 773 342 690 q 443 935 401 856 q 538 1086 485 1014 l 489 1086 q 384 951 433 1026 q 299 793 335 876 q 241 619 263 710 q 219 440 219 529 z "},")":{"ha":619,"x_min":89,"x_max":408,"o":"m 408 440 q 387 260 408 350 q 329 88 365 171 q 244 -71 293 4 q 139 -206 194 -146 l 89 -206 q 183 -56 140 -135 q 256 106 225 24 q 302 274 286 189 q 318 440 318 358 q 302 606 318 522 q 256 773 286 690 q 184 935 226 856 q 90 1086 142 1014 l 139 1086 q 244 951 194 1026 q 329 793 293 876 q 387 619 365 710 q 408 440 408 529 z "},"*":{"ha":619,"x_min":60,"x_max":556,"o":"m 310 467 l 211 249 l 147 285 l 274 486 l 60 468 l 60 540 l 274 519 l 146 721 l 211 754 l 307 543 l 406 754 l 468 721 l 342 524 l 556 542 l 556 469 l 342 489 l 468 289 l 404 254 l 310 467 z "},"+":{"ha":810,"x_min":85,"x_max":725,"o":"m 369 539 l 369 842 l 440 842 l 440 539 l 725 539 l 725 476 l 440 476 l 440 176 l 369 176 l 369 476 l 85 476 l 85 539 l 369 539 z "},",":{"ha":413,"x_min":99,"x_max":263,"o":"m 108 32 q 128 85 108 67 q 181 104 147 104 q 240 81 217 104 q 263 6 263 57 q 227 -126 263 -68 q 117 -214 192 -185 l 99 -186 q 172 -141 147 -171 q 203 -74 196 -111 q 179 -40 210 -40 q 128 -22 147 -40 q 108 32 108 -4 z "},"-":{"ha":810,"x_min":117,"x_max":693,"o":"m 693 543 l 693 472 l 117 472 l 117 543 l 693 543 z "},".":{"ha":413,"x_min":107,"x_max":254,"o":"m 181 94 q 254 22 254 94 q 181 -50 254 -50 q 107 22 107 -50 q 181 94 107 94 z "},"/":{"ha":619,"x_min":72,"x_max":550,"o":"m 156 -207 l 72 -207 l 475 1090 l 550 1090 l 156 -207 z "},":":{"ha":413,"x_min":140,"x_max":288,"o":"m 214 833 q 267 813 246 833 q 288 761 288 792 q 267 710 288 731 q 214 689 246 689 q 161 710 182 689 q 140 761 140 731 q 161 813 140 792 q 214 833 182 833 m 214 261 q 267 240 246 261 q 288 189 288 219 q 267 138 288 158 q 214 117 246 117 q 161 138 182 117 q 140 189 140 158 q 161 240 140 219 q 214 261 182 261 z "},";":{"ha":413,"x_min":125,"x_max":289,"o":"m 214 833 q 267 813 246 833 q 288 761 288 792 q 267 710 288 731 q 214 689 246 689 q 161 710 182 689 q 140 761 140 731 q 161 813 140 792 q 214 833 182 833 m 135 197 q 154 251 135 232 q 207 269 174 269 q 266 246 243 269 q 289 171 289 222 q 253 39 289 97 q 143 -49 218 -19 l 125 -21 q 198 24 174 -6 q 229 92 222 54 q 206 125 236 125 q 154 143 174 125 q 135 197 135 161 z "},"<":{"ha":619,"x_min":132,"x_max":568,"o":"m 132 453 l 475 1089 l 554 1089 l 217 454 l 568 -207 l 489 -207 l 132 453 z "},"=":{"ha":810,"x_min":118,"x_max":690,"o":"m 690 669 l 690 601 l 118 601 l 118 669 l 690 669 m 690 374 l 690 306 l 118 306 l 118 374 l 690 374 z "},">":{"ha":619,"x_min":51,"x_max":488,"o":"m 488 453 l 131 -207 l 51 -207 l 403 454 l 65 1089 l 144 1089 l 488 453 z "},"?":{"ha":929,"x_min":114,"x_max":650,"o":"m 114 954 q 232 1015 174 994 q 361 1036 290 1036 q 478 1020 425 1036 q 570 975 532 1004 q 629 903 608 946 q 650 808 650 861 q 635 731 650 768 q 599 658 621 693 q 549 594 576 624 q 497 539 522 564 q 452 494 472 514 q 418 453 432 475 q 397 405 404 431 q 389 342 389 379 q 392 294 389 315 q 397 253 394 272 l 321 253 q 311 344 311 297 q 341 463 311 414 q 419 561 371 513 q 471 612 446 586 q 516 666 496 638 q 549 726 536 694 q 561 794 561 758 q 507 926 561 883 q 361 968 453 968 q 238 939 297 968 q 131 868 179 910 q 119 865 125 863 q 114 874 114 867 l 114 954 m 431 8 q 410 -43 431 -22 q 358 -64 389 -64 q 307 -43 328 -64 q 286 8 286 -22 q 307 60 286 39 q 358 81 328 81 q 410 60 389 81 q 431 8 431 39 z "},"@":{"ha":1461,"x_min":115,"x_max":1372,"o":"m 751 707 q 658 677 701 707 q 584 599 615 647 q 535 486 553 550 q 517 356 517 422 q 560 201 517 256 q 675 147 603 147 q 767 173 725 147 q 839 247 808 199 q 886 362 869 294 q 903 511 903 429 q 869 660 903 614 q 751 707 835 707 m 1165 0 q 1176 3 1171 6 q 1182 -6 1182 1 l 1182 -93 q 994 -174 1107 -146 q 760 -201 881 -201 q 472 -157 593 -201 q 271 -33 350 -112 q 153 158 192 47 q 115 403 115 269 q 163 666 115 546 q 297 874 211 786 q 499 1010 382 961 q 757 1060 617 1060 q 1014 1019 900 1060 q 1208 903 1128 978 q 1330 726 1288 829 q 1372 500 1372 624 q 1344 319 1372 397 q 1270 187 1315 240 q 1168 106 1225 133 q 1053 78 1111 78 q 974 90 1006 78 q 924 122 943 101 q 897 172 906 143 q 889 236 889 201 l 886 236 q 797 123 850 163 q 651 83 744 83 q 484 158 542 83 q 426 360 426 233 q 456 531 426 456 q 531 660 485 607 q 635 740 578 713 q 751 769 693 768 q 854 737 813 771 q 917 650 896 703 l 935 758 l 1011 758 l 956 257 q 971 169 950 206 q 1061 133 992 133 q 1142 157 1101 133 q 1215 226 1182 181 q 1268 336 1247 271 q 1289 483 1289 401 q 1251 705 1289 608 q 1145 867 1214 801 q 979 966 1076 932 q 763 1000 882 1000 q 539 956 642 1000 q 361 832 436 911 q 244 644 286 753 q 201 406 201 535 q 238 181 201 281 q 346 10 275 81 q 522 -99 417 -61 q 763 -137 626 -137 q 888 -126 829 -137 q 999 -94 947 -114 q 1092 -51 1050 -75 q 1165 0 1133 -26 z "},"A":{"ha":894,"x_min":17,"x_max":869,"o":"m 467 846 l 443 925 l 419 846 l 235 335 l 651 335 l 467 846 m 493 999 l 869 -46 l 783 -46 l 671 272 l 215 272 l 103 -46 l 17 -46 l 393 999 l 493 999 z "},"B":{"ha":871,"x_min":126,"x_max":815,"o":"m 450 931 l 203 931 l 203 551 l 411 551 q 518 562 468 551 q 606 596 568 572 q 665 657 643 619 q 686 747 686 694 q 626 883 686 836 q 450 931 567 931 m 424 485 l 203 485 l 203 21 l 453 21 q 578 39 525 21 q 667 90 632 57 q 721 166 703 122 q 739 263 739 210 q 656 426 739 367 q 424 485 572 485 m 474 -46 l 126 -46 l 126 996 l 479 996 q 600 977 547 996 q 689 927 653 958 q 744 854 725 896 q 763 765 763 813 q 709 600 761 658 q 572 525 657 542 l 572 522 q 667 494 624 514 q 744 441 711 474 q 796 363 776 408 q 815 261 815 318 q 794 142 815 197 q 732 44 774 86 q 626 -22 690 3 q 474 -46 561 -46 z "},"C":{"ha":888,"x_min":57,"x_max":846,"o":"m 829 136 q 840 142 833 143 q 846 133 846 140 l 846 47 q 713 -31 793 -1 q 529 -60 633 -60 q 330 -22 418 -60 q 181 85 242 15 q 89 254 121 156 q 57 475 57 353 q 94 695 57 597 q 198 862 132 793 q 352 968 264 931 q 543 1006 440 1006 q 706 985 635 1006 q 835 917 778 965 l 835 839 q 828 830 835 831 q 818 835 822 829 q 688 917 753 896 q 547 938 622 938 q 382 903 457 938 q 253 807 307 868 q 169 662 199 746 q 139 481 139 578 q 245 129 139 247 q 542 11 351 11 q 638 22 594 11 q 717 49 682 32 q 781 89 753 67 q 829 136 808 111 z "},"D":{"ha":1001,"x_min":126,"x_max":932,"o":"m 376 931 l 204 931 l 204 19 l 368 19 q 572 49 482 19 q 724 138 661 79 q 819 283 786 196 q 853 482 853 369 q 735 815 853 699 q 376 931 617 931 m 392 -46 l 126 -46 l 126 996 l 392 996 q 633 958 531 996 q 801 853 735 921 q 900 691 868 786 q 932 482 932 596 q 894 259 932 357 q 787 93 857 161 q 617 -10 717 25 q 392 -46 517 -46 z "},"E":{"ha":828,"x_min":131,"x_max":763,"o":"m 763 -46 l 131 -46 l 131 996 l 761 996 l 761 928 l 208 928 l 208 553 l 722 553 l 722 485 l 208 485 l 208 22 l 763 22 l 763 -46 z "},"F":{"ha":769,"x_min":128,"x_max":729,"o":"m 729 996 l 729 925 l 206 925 l 206 553 l 708 553 l 708 486 l 206 486 l 206 -40 l 128 -40 l 128 996 l 729 996 z "},"G":{"ha":986,"x_min":64,"x_max":897,"o":"m 869 833 q 753 910 826 879 q 589 940 681 940 q 412 911 493 940 q 271 825 331 882 q 177 682 211 768 q 143 483 143 596 q 180 266 143 356 q 278 120 217 176 q 421 38 340 64 q 588 13 501 13 q 728 35 671 13 q 819 90 786 58 l 819 414 l 546 414 l 546 479 l 897 479 l 897 36 q 823 -5 858 13 q 750 -34 788 -22 q 671 -52 713 -46 q 578 -58 629 -58 q 373 -24 467 -58 q 210 77 279 10 q 103 245 142 144 q 64 478 64 346 q 103 703 64 604 q 213 871 143 803 q 378 974 283 939 q 581 1010 472 1010 q 756 989 685 1010 q 885 924 826 968 l 885 839 q 879 830 885 831 q 869 833 874 829 z "},"H":{"ha":997,"x_min":128,"x_max":865,"o":"m 865 996 l 865 -46 l 788 -46 l 788 489 l 206 489 l 206 -46 l 128 -46 l 128 996 l 206 996 l 206 558 l 788 558 l 788 996 l 865 996 z "},"I":{"ha":343,"x_min":139,"x_max":221,"o":"m 221 996 l 221 -46 l 139 -46 l 139 996 l 221 996 z "},"J":{"ha":569,"x_min":26,"x_max":444,"o":"m 444 265 q 426 107 444 171 q 371 3 407 43 q 281 -53 335 -36 q 160 -71 228 -71 q 84 -66 114 -71 q 26 -51 54 -61 l 26 17 q 142 -4 61 -4 q 313 57 263 -4 q 363 258 363 118 l 363 994 l 444 994 l 444 265 z "},"K":{"ha":869,"x_min":126,"x_max":854,"o":"m 821 996 l 425 576 l 425 575 l 854 -46 l 753 -46 l 375 522 l 374 522 l 206 346 l 206 -46 l 126 -46 l 126 996 l 206 996 l 206 450 l 207 450 l 721 996 l 821 996 z "},"L":{"ha":735,"x_min":131,"x_max":707,"o":"m 707 25 l 707 -46 l 131 -46 l 131 996 l 210 996 l 210 25 l 707 25 z "},"M":{"ha":1228,"x_min":131,"x_max":1097,"o":"m 569 -46 l 247 788 l 203 925 l 206 797 l 206 -46 l 131 -46 l 131 996 l 247 996 l 583 122 l 614 33 l 644 122 l 981 996 l 1097 996 l 1097 -46 l 1022 -46 l 1022 797 l 1025 925 l 981 788 l 658 -46 l 569 -46 z "},"N":{"ha":986,"x_min":131,"x_max":853,"o":"m 776 24 l 775 165 l 775 996 l 853 996 l 853 -46 l 735 -46 l 272 792 l 207 926 l 208 785 l 208 -46 l 131 -46 l 131 996 l 249 996 l 711 158 l 776 24 z "},"O":{"ha":1044,"x_min":74,"x_max":968,"o":"m 519 -58 q 326 -19 410 -58 q 187 92 243 21 q 102 260 131 163 q 74 475 74 358 q 102 690 74 592 q 187 858 131 788 q 326 969 243 929 q 519 1010 410 1010 q 712 969 628 1010 q 853 858 796 929 q 939 688 910 786 q 968 474 968 590 q 939 260 968 357 q 853 92 910 163 q 712 -19 796 21 q 519 -58 628 -58 m 518 13 q 678 47 608 13 q 794 144 747 82 q 864 290 840 206 q 888 474 888 374 q 864 660 888 575 q 794 808 840 746 q 678 906 747 871 q 518 942 608 942 q 360 906 428 942 q 246 808 292 871 q 176 660 200 746 q 153 474 153 575 q 176 290 153 374 q 246 144 200 206 q 360 47 292 82 q 518 13 428 13 z "},"P":{"ha":814,"x_min":131,"x_max":764,"o":"m 764 689 q 660 447 764 531 q 363 364 557 364 l 208 364 l 208 -46 l 131 -46 l 131 996 l 383 996 q 533 977 464 996 q 654 919 603 958 q 735 823 706 881 q 764 689 764 765 m 686 689 q 661 803 686 757 q 592 876 636 849 q 487 916 547 904 q 354 928 426 928 l 207 928 l 207 432 l 343 432 q 481 443 418 432 q 590 483 544 454 q 660 561 635 511 q 686 689 686 611 z "},"Q":{"ha":1044,"x_min":74,"x_max":974,"o":"m 519 -58 q 326 -19 410 -58 q 187 92 243 21 q 102 260 131 163 q 74 475 74 358 q 102 690 74 592 q 187 858 131 788 q 326 969 243 929 q 519 1010 410 1010 q 712 969 628 1010 q 853 858 796 929 q 939 688 910 786 q 968 474 968 590 q 931 243 968 347 q 825 67 894 139 l 974 -96 l 886 -96 l 778 25 q 660 -37 725 -15 q 519 -58 596 -58 m 518 13 q 635 29 582 13 q 731 78 688 46 l 597 226 l 679 226 l 776 119 q 860 271 832 181 q 888 474 888 361 q 864 660 888 575 q 794 808 840 746 q 678 906 747 871 q 518 942 608 942 q 360 906 428 942 q 246 808 292 871 q 176 660 200 746 q 153 474 153 575 q 176 290 153 374 q 246 144 200 206 q 360 47 292 82 q 518 13 428 13 z "},"R":{"ha":847,"x_min":131,"x_max":804,"o":"m 538 411 l 538 410 l 804 -46 l 707 -46 l 464 393 l 208 393 l 208 -46 l 131 -46 l 131 996 l 421 996 q 683 917 593 996 q 772 704 772 838 q 715 523 772 600 q 538 411 658 446 m 694 703 q 674 806 694 763 q 618 876 654 849 q 533 916 582 903 q 424 929 483 929 l 206 929 l 206 460 l 408 460 q 616 519 538 460 q 694 703 694 579 z "},"S":{"ha":822,"x_min":85,"x_max":729,"o":"m 85 40 l 85 124 q 90 133 85 131 q 101 128 96 135 q 218 44 146 75 q 378 13 290 13 q 574 69 501 13 q 646 229 646 126 q 629 308 646 275 q 583 367 613 342 q 515 413 554 393 q 429 453 475 433 l 328 496 q 235 540 278 517 q 163 595 193 564 q 115 667 132 626 q 97 764 97 708 q 122 873 97 826 q 191 951 147 919 q 294 998 235 982 q 422 1014 354 1014 q 558 994 490 1014 q 679 936 626 975 l 679 860 q 674 851 679 853 q 664 854 669 849 q 558 922 617 894 q 428 949 499 949 q 328 937 375 949 q 248 902 282 925 q 194 845 214 879 q 175 767 175 811 q 192 694 175 725 q 237 638 208 663 q 301 595 265 614 q 375 561 338 576 l 475 521 q 666 400 604 468 q 729 235 728 332 q 704 113 729 167 q 633 20 679 58 q 522 -39 588 -18 q 375 -60 457 -60 q 205 -33 281 -60 q 85 40 129 -6 z "},"T":{"ha":863,"x_min":18,"x_max":840,"o":"m 469 -46 l 392 -46 l 392 928 l 18 928 l 18 996 l 840 996 l 840 928 l 469 928 l 469 -46 z "},"U":{"ha":967,"x_min":115,"x_max":850,"o":"m 485 -58 l 482 -58 q 299 -21 375 -58 q 179 83 224 17 q 129 205 143 136 q 115 374 115 274 l 115 996 l 193 996 l 193 378 q 205 228 193 292 q 253 117 217 165 q 347 42 288 69 q 483 14 407 14 q 619 42 558 14 q 711 117 679 69 q 761 228 750 164 q 772 378 772 292 l 772 996 l 850 996 l 850 372 q 837 205 850 274 q 785 83 824 136 q 665 -21 740 17 q 485 -58 589 -58 z "},"V":{"ha":882,"x_min":18,"x_max":860,"o":"m 386 -46 l 18 997 l 101 997 l 399 156 l 439 35 l 479 156 l 776 997 l 860 997 l 492 -46 l 386 -46 z "},"W":{"ha":1335,"x_min":39,"x_max":1292,"o":"m 715 997 l 928 154 l 956 35 l 986 154 l 1211 997 l 1292 997 l 1010 -46 l 904 -46 l 689 800 l 665 908 l 642 800 l 426 -46 l 321 -46 l 39 997 l 119 997 l 344 154 l 375 35 l 403 154 l 615 997 l 715 997 z "},"X":{"ha":857,"x_min":39,"x_max":821,"o":"m 429 414 l 129 -46 l 39 -46 l 385 474 l 385 476 l 56 997 l 143 997 l 429 538 l 431 538 l 717 997 l 804 997 l 475 476 l 475 474 l 821 -46 l 731 -46 l 431 414 l 429 414 z "},"Y":{"ha":849,"x_min":25,"x_max":831,"o":"m 389 -46 l 389 413 l 25 997 l 113 997 l 426 488 l 429 488 l 743 997 l 831 997 l 467 413 l 467 -46 l 389 -46 z "},"Z":{"ha":825,"x_min":58,"x_max":771,"o":"m 58 29 l 671 926 l 671 929 l 90 929 l 90 996 l 758 996 l 758 921 l 146 24 l 146 21 l 771 21 l 771 -46 l 58 -46 l 58 29 z "},"[":{"ha":619,"x_min":301,"x_max":557,"o":"m 557 1086 l 557 1036 l 388 1036 l 388 -154 l 557 -154 l 557 -204 l 301 -204 l 301 1086 l 557 1086 z "},"\\":{"ha":1335,"x_min":54,"x_max":1283,"o":"m 54 543 l 225 543 l 118 963 l 188 963 l 292 543 l 528 543 l 628 963 l 715 963 l 814 543 l 1047 543 l 1151 963 l 1224 963 l 1117 543 l 1283 543 l 1283 489 l 1103 489 l 975 -15 l 882 -15 l 763 489 l 579 489 l 460 -15 l 367 -15 l 239 489 l 54 489 l 54 543 m 388 161 l 414 56 l 439 161 l 518 492 l 303 492 l 388 161 m 903 161 l 926 56 l 954 161 l 1038 492 l 824 492 l 903 161 m 669 882 l 650 786 l 592 543 l 749 543 l 692 786 l 669 882 z "},"^":{"ha":603,"x_min":19,"x_max":590,"o":"m 357 1106 l 590 824 l 501 824 l 304 1069 l 303 1069 l 106 824 l 19 824 l 250 1106 l 357 1106 z "},"_":{"ha":619,"x_min":17,"x_max":603,"o":"m 603 -196 l 17 -196 l 17 -144 l 603 -144 l 603 -196 z "},"`":{"ha":413,"x_min":106,"x_max":313,"o":"m 313 785 l 264 785 l 106 1106 l 203 1106 l 313 785 z "},"a":{"ha":778,"x_min":46,"x_max":650,"o":"m 574 246 l 574 375 l 311 338 q 233 313 268 331 q 174 271 199 296 q 137 215 150 246 q 124 153 124 185 q 169 44 124 79 q 290 10 215 10 q 401 27 349 10 q 491 76 453 44 q 551 151 529 107 q 574 246 574 194 m 136 567 q 124 563 129 561 q 119 574 119 565 l 119 653 q 236 707 167 682 q 385 732 306 732 q 584 675 518 732 q 650 479 650 618 l 650 -46 l 575 -46 l 568 79 q 455 -22 528 14 q 286 -58 382 -58 q 106 -1 167 -58 q 46 146 46 57 q 117 319 46 256 q 304 399 188 382 l 569 436 l 569 469 q 530 615 569 568 q 382 663 490 663 q 241 635 303 663 q 136 567 179 607 z "},"b":{"ha":817,"x_min":118,"x_max":765,"o":"m 196 376 l 196 236 q 215 147 196 188 q 268 76 235 106 q 346 31 301 47 q 440 15 390 15 q 534 37 490 15 q 611 100 578 58 q 663 203 644 142 q 682 343 682 264 q 615 575 682 499 q 444 651 549 651 q 350 631 394 651 q 271 574 306 610 q 216 487 236 538 q 196 376 196 436 m 456 721 q 681 624 597 721 q 765 344 765 526 q 740 172 765 247 q 672 46 715 97 q 571 -32 629 -6 q 447 -58 513 -58 q 301 -26 368 -58 q 203 64 235 7 l 199 64 l 194 -46 l 118 -46 l 118 1072 l 196 1072 l 196 558 l 199 558 q 238 617 214 588 q 293 669 261 646 q 365 706 325 692 q 456 721 406 721 z "},"c":{"ha":681,"x_min":60,"x_max":656,"o":"m 642 88 q 651 92 647 92 q 656 82 656 92 l 656 6 q 562 -41 619 -24 q 442 -58 504 -58 q 284 -33 354 -58 q 164 41 214 -8 q 87 162 114 90 q 60 326 60 233 q 86 491 60 418 q 162 615 113 564 q 281 693 211 665 q 439 721 351 721 q 554 702 499 721 q 650 656 610 683 l 650 575 q 643 565 650 565 q 633 571 636 565 q 545 634 589 614 q 440 654 501 654 q 313 628 368 654 q 221 557 258 601 q 165 453 183 513 q 146 328 146 394 q 165 199 146 257 q 224 98 185 140 q 319 33 263 56 q 451 10 376 10 q 503 15 476 10 q 556 31 531 21 q 604 56 582 42 q 642 88 626 69 z "},"d":{"ha":817,"x_min":56,"x_max":703,"o":"m 625 390 q 607 487 625 440 q 558 570 589 533 q 482 629 526 607 q 386 651 438 651 q 287 628 332 651 q 208 562 242 604 q 157 458 175 519 q 139 318 139 396 q 156 181 139 239 q 205 86 174 124 q 278 31 236 49 q 371 13 321 13 q 472 30 425 13 q 552 78 518 47 q 606 151 586 108 q 625 242 625 193 l 625 390 m 372 721 q 462 708 422 721 q 532 674 501 696 q 585 624 563 653 q 622 565 607 596 l 625 565 l 625 1072 l 703 1072 l 703 -46 l 626 -46 l 622 68 l 618 68 q 511 -26 579 6 q 364 -58 443 -58 q 242 -35 299 -58 q 144 35 186 -12 q 79 153 103 82 q 56 322 56 225 q 79 487 56 414 q 144 612 103 560 q 244 692 186 664 q 372 721 303 721 z "},"e":{"ha":776,"x_min":58,"x_max":726,"o":"m 411 721 q 645 627 564 721 q 726 364 726 533 l 726 340 l 153 340 l 153 311 q 226 93 157 171 q 438 15 296 15 q 566 36 500 15 q 681 97 632 57 q 696 92 696 110 l 696 17 q 569 -43 638 -28 q 422 -58 501 -58 q 270 -30 338 -58 q 156 50 203 -1 q 83 172 108 101 q 58 326 58 243 q 85 486 58 414 q 158 610 111 558 q 269 692 204 663 q 411 721 333 721 m 638 399 q 577 590 638 521 q 408 658 517 658 q 315 640 358 658 q 239 589 272 622 q 184 507 206 556 q 154 399 163 458 l 638 399 z "},"f":{"ha":472,"x_min":26,"x_max":481,"o":"m 471 1006 q 434 1021 457 1013 q 389 1029 411 1029 q 329 1020 357 1029 q 281 989 301 1011 q 248 930 260 967 q 236 838 236 893 l 236 706 l 449 706 l 449 642 l 239 642 l 239 -46 l 158 -46 l 158 642 l 26 642 l 26 706 l 158 706 l 158 843 q 176 958 158 911 q 225 1035 194 1006 q 297 1076 256 1064 q 388 1089 339 1089 q 481 1067 444 1089 l 481 1011 q 471 1006 481 1000 z "},"g":{"ha":817,"x_min":51,"x_max":699,"o":"m 621 404 q 603 499 621 454 q 553 578 585 543 q 478 632 522 613 q 382 651 433 651 q 284 631 329 651 q 206 570 239 610 q 153 472 172 531 q 135 335 135 413 q 152 199 135 256 q 201 105 169 142 q 274 51 232 68 q 367 35 317 35 q 467 51 421 35 q 548 99 514 68 q 601 171 582 129 q 621 261 621 213 l 621 404 m 624 90 l 618 90 q 509 -4 579 28 q 360 -36 439 -36 q 238 -14 294 -36 q 140 54 182 8 q 75 171 99 100 q 51 339 51 242 q 75 501 51 431 q 141 621 99 572 q 242 695 183 669 q 368 721 300 721 q 456 710 418 721 q 524 681 494 700 q 575 635 553 661 q 614 581 597 610 l 617 581 l 621 706 l 699 706 l 699 10 q 678 -174 699 -99 q 615 -296 658 -249 q 502 -365 571 -343 q 335 -386 433 -386 q 205 -371 261 -386 q 103 -332 149 -356 l 103 -250 q 114 -246 103 -237 q 220 -305 167 -286 q 335 -324 274 -324 q 556 -245 488 -324 q 624 11 624 -167 l 624 90 z "},"h":{"ha":822,"x_min":117,"x_max":725,"o":"m 725 403 l 725 -46 l 646 -46 l 646 394 q 633 515 646 465 q 595 594 619 564 q 537 638 571 624 q 460 651 503 651 q 363 629 410 651 q 278 568 315 607 q 219 478 242 529 q 196 372 196 428 l 196 -46 l 117 -46 l 117 1068 l 194 1068 l 194 550 l 196 550 q 240 615 213 583 q 302 669 267 646 q 378 707 338 693 q 465 721 419 721 q 656 644 588 721 q 725 403 725 568 z "},"i":{"ha":339,"x_min":106,"x_max":233,"o":"m 207 706 l 207 -46 l 126 -46 l 126 706 l 207 706 m 106 960 q 124 1007 106 989 q 169 1025 142 1025 q 215 1007 196 1025 q 233 960 233 989 q 215 915 233 932 q 169 897 196 897 q 124 915 142 897 q 106 960 106 932 z "},"j":{"ha":418,"x_min":15,"x_max":310,"o":"m 293 -112 q 274 -256 293 -200 q 220 -342 256 -311 q 133 -383 185 -374 q 15 -389 82 -393 l 15 -326 q 106 -320 68 -328 q 167 -290 143 -312 q 203 -224 192 -267 q 214 -115 214 -182 l 214 706 l 293 706 l 293 -112 m 182 960 q 200 1007 182 989 q 246 1025 218 1025 q 291 1007 272 1025 q 310 960 310 989 q 291 915 310 932 q 246 897 272 897 q 200 915 218 897 q 182 960 182 932 z "},"k":{"ha":736,"x_min":117,"x_max":707,"o":"m 351 399 l 707 -46 l 611 -46 l 301 353 l 300 353 l 194 253 l 194 -46 l 117 -46 l 117 1069 l 194 1069 l 194 344 l 197 344 l 571 706 l 668 706 l 351 400 l 351 399 z "},"l":{"ha":339,"x_min":126,"x_max":204,"o":"m 204 1078 l 204 -46 l 126 -46 l 126 1078 l 204 1078 z "},"m":{"ha":1239,"x_min":119,"x_max":1143,"o":"m 592 -46 l 592 394 q 547 594 592 536 q 428 651 503 651 q 343 628 385 651 q 269 565 301 604 q 217 474 238 526 q 197 367 197 422 l 197 -46 l 119 -46 l 119 706 l 189 706 l 196 556 q 235 619 211 589 q 289 672 258 649 q 356 708 319 694 q 432 721 392 721 q 575 676 518 721 q 656 535 632 631 q 758 669 692 618 q 906 721 825 721 q 1080 644 1017 721 q 1143 403 1143 568 l 1143 -46 l 1065 -46 l 1065 394 q 1021 594 1065 536 q 901 651 976 651 q 817 628 858 651 q 742 565 775 604 q 690 474 710 526 q 669 367 669 422 l 669 -46 l 592 -46 z "},"n":{"ha":822,"x_min":115,"x_max":726,"o":"m 726 404 l 726 -46 l 647 -46 l 647 396 q 634 515 647 467 q 597 594 621 564 q 538 638 572 625 q 460 651 503 651 q 363 629 410 651 q 278 569 315 607 q 217 481 240 532 q 194 375 194 431 l 194 -46 l 115 -46 l 115 706 l 186 706 l 193 551 l 194 551 q 238 616 211 585 q 301 670 265 647 q 378 707 336 693 q 465 721 419 721 q 656 644 586 721 q 726 404 726 568 z "},"o":{"ha":801,"x_min":61,"x_max":739,"o":"m 400 -58 q 250 -28 314 -58 q 144 53 186 1 q 82 174 103 104 q 61 326 61 244 q 83 485 61 413 q 147 610 104 557 q 253 692 189 663 q 400 721 317 721 q 547 692 483 721 q 653 610 610 663 q 717 485 696 557 q 739 326 739 413 q 718 174 739 244 q 656 53 697 104 q 550 -28 614 1 q 400 -58 486 -58 m 400 11 q 592 94 524 13 q 660 324 660 176 q 592 565 660 478 q 400 651 524 651 q 208 565 275 651 q 140 324 140 478 q 208 94 140 176 q 400 11 275 11 z "},"p":{"ha":817,"x_min":115,"x_max":771,"o":"m 193 376 l 193 236 q 213 147 193 188 q 267 76 233 106 q 347 31 301 47 q 442 15 392 15 q 536 37 492 15 q 615 100 581 58 q 668 203 649 142 q 688 343 688 264 q 669 478 688 421 q 619 575 651 536 q 542 633 586 614 q 446 651 497 651 q 351 631 396 651 q 270 574 306 610 q 214 487 235 538 q 193 376 193 436 m 457 721 q 585 697 528 721 q 685 624 643 672 q 749 506 726 576 q 771 344 771 436 q 745 172 771 247 q 676 46 719 97 q 573 -32 632 -6 q 449 -58 514 -58 q 301 -26 369 -58 q 200 64 232 7 l 196 64 l 196 -387 l 115 -387 l 115 706 l 188 706 l 193 558 l 196 558 q 235 617 211 588 q 292 669 260 646 q 366 706 325 692 q 457 721 407 721 z "},"q":{"ha":817,"x_min":44,"x_max":697,"o":"m 619 390 q 601 488 619 440 q 551 572 583 535 q 474 633 518 610 q 378 656 429 656 q 278 631 324 656 q 199 563 232 607 q 147 458 165 519 q 128 318 128 396 q 146 181 128 239 q 195 86 164 124 q 269 31 226 49 q 363 13 313 13 q 464 30 417 13 q 546 78 511 47 q 600 151 581 108 q 619 242 619 193 l 619 390 m 364 721 q 453 708 414 721 q 524 674 493 696 q 578 624 556 653 q 617 565 601 596 l 619 565 l 624 706 l 697 706 l 697 -386 l 617 -386 l 617 68 l 613 68 q 504 -26 574 6 q 356 -58 435 -58 q 233 -35 290 -58 q 135 35 176 -12 q 69 153 93 82 q 44 322 44 225 q 68 487 44 414 q 134 612 92 560 q 235 692 176 664 q 364 721 294 721 z "},"r":{"ha":532,"x_min":111,"x_max":522,"o":"m 425 646 q 336 628 379 646 q 261 576 293 610 q 210 497 229 543 q 190 394 190 450 l 190 -43 l 111 -43 l 111 706 l 185 706 l 188 568 l 189 568 q 231 629 206 601 q 290 677 257 657 q 358 709 322 697 q 432 721 394 721 q 522 701 490 718 l 522 631 q 517 622 522 624 q 507 624 513 619 q 425 646 478 646 z "},"s":{"ha":660,"x_min":61,"x_max":606,"o":"m 75 93 q 321 13 183 13 q 402 20 365 13 q 465 44 439 28 q 506 88 492 61 q 521 153 521 114 q 482 229 521 196 q 376 286 443 263 l 288 321 q 136 405 185 358 q 88 533 88 451 q 104 603 88 569 q 153 663 121 638 q 232 705 185 689 q 342 721 279 721 q 463 706 404 721 q 571 660 522 692 l 571 583 q 566 574 571 575 q 556 578 561 572 q 458 634 513 614 q 333 654 403 654 q 271 646 300 654 q 219 622 242 638 q 184 583 197 606 q 171 535 171 561 q 209 449 171 481 q 301 397 247 417 l 394 363 q 483 324 443 343 q 549 279 522 304 q 591 222 576 254 q 606 147 606 190 q 531 -4 606 50 q 331 -58 457 -58 q 188 -42 263 -58 q 61 8 114 -25 l 61 86 q 65 95 61 93 q 75 93 69 97 z "},"t":{"ha":496,"x_min":7,"x_max":476,"o":"m 476 33 l 476 -24 q 415 -51 449 -43 q 343 -58 381 -58 q 203 -16 253 -58 q 153 129 153 26 l 153 640 l 7 640 l 7 706 l 153 706 l 153 894 l 232 894 l 232 706 l 450 706 l 450 640 l 232 640 l 232 136 q 254 37 232 68 q 342 6 276 6 q 411 15 381 6 q 463 39 442 24 q 476 33 476 49 z "},"u":{"ha":822,"x_min":97,"x_max":711,"o":"m 97 256 l 97 706 l 175 706 l 175 265 q 190 145 175 194 q 233 66 206 96 q 296 22 260 36 q 375 8 332 8 q 471 31 425 8 q 553 90 517 53 q 610 178 589 128 q 632 285 632 228 l 632 706 l 711 706 l 711 -46 l 640 -46 l 633 101 l 632 101 q 530 -12 599 33 q 369 -58 461 -58 q 258 -42 308 -58 q 172 14 208 -25 q 117 112 136 51 q 97 256 97 172 z "},"v":{"ha":736,"x_min":31,"x_max":703,"o":"m 368 21 l 400 118 l 618 706 l 703 706 l 414 -46 l 321 -46 l 31 706 l 117 706 l 336 118 l 368 21 z "},"w":{"ha":1094,"x_min":36,"x_max":1056,"o":"m 586 706 l 774 90 l 790 21 l 808 90 l 978 706 l 1056 706 l 840 -46 l 747 -46 l 557 578 l 546 622 l 535 578 l 344 -46 l 251 -46 l 36 706 l 114 706 l 283 90 l 301 21 l 318 90 l 506 706 l 586 706 z "},"x":{"ha":733,"x_min":32,"x_max":703,"o":"m 368 282 l 615 -46 l 703 -46 l 413 335 l 413 338 l 693 706 l 608 706 l 368 392 l 367 392 l 126 706 l 42 706 l 322 338 l 322 335 l 32 -46 l 119 -46 l 367 282 l 368 282 z "},"y":{"ha":736,"x_min":15,"x_max":713,"o":"m 46 -382 l 46 -325 q 58 -317 46 -312 q 88 -323 74 -321 q 122 -325 103 -325 q 172 -319 149 -325 q 215 -296 194 -312 q 256 -250 236 -279 q 294 -175 275 -221 l 343 -54 l 343 -50 l 15 706 l 101 706 l 342 136 l 385 38 l 421 136 l 626 706 l 713 706 l 383 -154 q 338 -257 361 -212 q 283 -332 314 -301 q 213 -378 253 -362 q 119 -393 174 -393 q 81 -391 100 -393 q 46 -382 63 -389 z "},"z":{"ha":657,"x_min":43,"x_max":611,"o":"m 43 10 l 496 636 l 496 639 l 64 639 l 64 706 l 588 706 l 588 650 l 136 22 l 136 19 l 611 19 l 611 -46 l 43 -46 l 43 10 z "},"|":{"ha":619,"x_min":275,"x_max":343,"o":"m 275 -204 l 275 1085 l 343 1085 l 343 -204 l 275 -204 z "},"~":{"ha":929,"x_min":163,"x_max":765,"o":"m 611 475 q 686 506 649 475 q 750 579 724 536 q 760 584 754 586 q 765 575 765 582 l 765 492 q 697 429 738 453 q 608 406 656 406 q 535 418 568 406 q 471 457 503 431 q 434 486 451 472 q 399 510 417 500 q 361 526 381 521 q 317 532 342 532 q 242 501 279 532 q 178 428 204 471 q 168 423 174 421 q 163 432 163 425 l 163 515 q 231 578 190 554 q 319 601 272 601 q 392 588 360 601 q 457 547 425 574 q 528 495 496 515 q 611 475 561 475 z "},"¡":{"ha":1239,"x_min":544,"x_max":697,"o":"m 647 675 l 671 -44 q 674 -111 672 -76 q 681 -182 676 -146 l 561 -182 q 567 -111 564 -146 q 571 -44 569 -76 l 593 675 l 647 675 m 697 922 q 676 868 697 890 q 622 846 654 846 q 567 868 590 846 q 544 922 544 890 q 566 976 544 954 q 621 997 588 997 q 675 975 653 997 q 697 922 697 953 z "},"¤":{"ha":1239,"x_min":99,"x_max":1136,"o":"m 1024 419 q 992 578 1024 504 q 906 708 961 653 q 778 795 851 764 q 619 826 704 826 q 460 795 533 826 q 331 708 386 764 q 244 578 275 653 q 213 419 213 504 q 244 258 213 333 q 330 128 275 183 q 458 42 385 74 q 618 11 532 11 q 777 42 703 11 q 906 128 851 74 q 992 258 961 183 q 1024 419 1024 333 m 307 69 l 143 -100 l 99 -57 l 268 111 q 183 249 215 169 q 150 419 150 328 q 183 588 150 507 q 269 726 215 668 l 99 897 l 142 940 l 311 768 q 449 852 369 821 q 618 883 528 883 q 784 852 706 883 q 922 769 863 821 l 1094 940 l 1136 897 l 967 726 q 1053 588 1019 668 q 1086 419 1086 507 q 1054 249 1086 328 q 968 111 1022 169 l 1136 -57 l 1096 -100 l 928 68 q 787 -16 867 15 q 619 -47 707 -47 q 449 -15 529 -47 q 307 69 369 17 z "},"§":{"ha":619,"x_min":74,"x_max":554,"o":"m 554 -11 q 539 -73 554 -44 q 497 -122 524 -101 q 432 -155 469 -143 q 350 -167 394 -167 q 255 -153 300 -167 q 176 -115 210 -139 q 124 -60 143 -92 q 104 6 104 -29 q 119 51 104 33 q 160 68 135 68 q 200 49 185 68 q 215 4 215 31 q 207 -25 215 -10 q 199 -51 199 -40 q 210 -85 199 -71 q 241 -109 222 -99 q 284 -124 260 -119 q 333 -129 308 -129 q 390 -122 363 -129 q 439 -103 418 -115 q 472 -72 460 -90 q 485 -31 485 -54 q 476 7 485 -11 q 449 46 468 25 q 399 92 431 67 q 321 151 368 118 q 208 239 254 200 q 131 312 161 278 q 88 377 101 346 q 74 442 74 408 q 85 499 74 472 q 117 547 96 526 q 166 580 138 568 q 229 592 194 592 q 260 591 249 592 q 264 593 271 590 q 135 715 179 657 q 92 829 92 772 q 108 899 92 867 q 152 956 124 932 q 218 995 181 981 q 299 1010 256 1010 q 385 995 344 1010 q 456 956 426 981 q 503 897 486 931 q 521 828 521 864 q 506 783 521 800 q 468 765 490 765 q 426 781 443 765 q 410 825 410 797 q 417 856 410 840 q 425 883 425 872 q 386 949 425 924 q 296 974 347 974 q 192 942 231 974 q 154 856 154 911 q 165 808 154 831 q 198 758 175 785 q 258 698 221 731 q 349 624 294 665 q 441 546 404 579 q 500 485 478 513 q 531 432 522 457 q 539 379 539 407 q 499 272 539 313 q 397 226 460 231 q 366 225 382 225 q 347 225 350 225 q 497 108 439 164 q 554 -11 554 51 m 463 342 q 449 404 463 374 q 414 458 435 435 q 326 531 369 507 q 247 556 283 556 q 173 532 207 556 q 139 461 139 508 q 161 394 139 431 q 217 328 183 358 q 289 277 250 297 q 361 257 328 257 q 434 277 406 257 q 463 342 463 297 z "},"¨":{"ha":1239,"x_min":315,"x_max":924,"o":"m 389 1104 q 463 1032 463 1104 q 389 960 463 960 q 315 1032 315 960 q 389 1104 315 1104 m 850 1104 q 924 1032 924 1104 q 850 960 924 960 q 776 1032 776 960 q 850 1104 776 1104 z "},"ª":{"ha":1239,"x_min":267,"x_max":960,"o":"m 267 -12 l 960 -12 l 960 -74 l 267 -74 l 267 -12 m 869 167 l 814 167 q 806 188 810 175 q 799 215 801 200 q 794 244 796 229 q 793 269 793 258 q 679 176 750 213 q 525 139 608 139 q 438 155 476 139 q 372 198 399 171 q 330 260 344 225 q 315 335 315 296 q 356 461 315 403 q 471 540 396 519 q 590 563 528 554 q 700 581 651 571 q 767 610 740 588 q 794 668 794 632 q 783 735 794 703 q 747 794 771 768 q 688 837 722 821 q 607 853 653 853 q 469 803 521 853 q 417 665 417 754 l 351 665 q 371 766 351 721 q 425 844 390 811 q 506 894 460 876 q 607 911 553 911 q 704 894 658 911 q 784 844 750 876 q 838 765 818 811 q 857 664 857 719 l 857 281 q 860 224 857 253 q 869 172 864 196 l 869 167 m 503 489 q 412 431 440 474 q 383 336 383 389 q 420 235 383 272 q 528 197 457 197 q 628 217 579 197 q 713 265 676 236 q 772 328 750 294 q 794 392 794 363 l 794 558 q 764 538 786 549 q 721 525 742 528 q 672 518 700 522 q 614 510 644 514 q 554 500 583 506 q 503 489 525 494 z "},"­":{"ha":1239,"x_min":364,"x_max":874,"o":"m 874 315 l 874 254 l 364 254 l 364 315 l 874 315 z "},"®":{"ha":1239,"x_min":58,"x_max":1182,"o":"m 619 996 q 838 950 736 996 q 1017 826 940 904 q 1138 642 1093 747 q 1182 418 1182 538 q 1138 193 1182 299 q 1017 9 1093 88 q 838 -115 940 -69 q 619 -161 736 -161 q 401 -115 503 -161 q 223 9 299 -69 q 103 193 147 88 q 58 418 58 299 q 101 650 58 544 q 219 833 144 756 q 397 953 294 910 q 619 996 500 996 m 619 947 q 420 906 513 947 q 260 794 328 865 q 153 627 192 724 q 115 418 115 531 q 155 213 115 310 q 263 44 194 117 q 424 -70 332 -28 q 619 -112 515 -112 q 815 -70 724 -112 q 976 44 907 -28 q 1085 213 1044 117 q 1125 418 1125 310 q 1085 623 1125 526 q 976 791 1044 719 q 815 905 907 863 q 619 947 724 947 m 711 382 l 906 58 l 824 58 l 646 367 l 471 367 l 471 58 l 403 58 l 403 796 l 618 796 q 815 740 749 796 q 882 589 882 683 q 840 460 882 514 q 711 382 799 406 m 815 588 q 761 708 815 672 q 622 744 707 744 l 469 744 l 469 419 l 611 419 q 760 460 704 419 q 815 588 815 500 z "},"°":{"ha":619,"x_min":135,"x_max":456,"o":"m 296 824 q 369 853 340 824 q 399 928 399 882 q 369 1002 399 972 q 296 1032 340 1032 q 223 1002 253 1032 q 193 928 193 972 q 222 853 193 882 q 296 824 251 824 m 296 1085 q 358 1072 329 1085 q 409 1039 388 1060 q 443 990 431 1018 q 456 928 456 961 q 443 866 456 894 q 409 817 431 838 q 358 783 388 796 q 296 771 329 771 q 233 783 263 771 q 183 817 204 796 q 148 866 161 838 q 135 928 135 894 q 148 990 135 961 q 183 1039 161 1018 q 233 1072 204 1060 q 296 1085 263 1085 z "},"±":{"ha":1239,"x_min":299,"x_max":939,"o":"m 299 608 l 583 608 l 583 911 l 654 911 l 654 608 l 939 608 l 939 546 l 654 546 l 654 246 l 583 246 l 583 546 l 299 546 l 299 608 m 299 139 l 939 139 l 939 68 l 299 68 l 299 139 z "},"²":{"ha":619,"x_min":43,"x_max":292,"o":"m 67 1019 q 60 1017 64 1017 q 57 1021 57 1018 l 57 1056 q 104 1085 76 1072 q 167 1099 132 1099 q 254 1073 222 1099 q 286 994 286 1047 q 265 928 286 958 q 207 853 243 897 l 89 721 l 292 721 l 292 689 l 43 689 l 43 719 l 171 863 q 208 908 193 889 q 231 940 222 926 q 244 966 240 954 q 247 993 247 978 q 168 1067 247 1067 q 117 1055 140 1067 q 67 1019 93 1043 z "},"³":{"ha":619,"x_min":43,"x_max":294,"o":"m 54 758 q 164 714 99 714 q 231 735 203 714 q 258 797 258 757 q 228 862 258 840 q 150 883 199 883 l 135 883 l 135 914 l 143 914 q 175 917 157 914 q 210 929 193 921 q 238 953 226 938 q 249 994 249 969 q 225 1048 249 1028 q 165 1068 201 1068 q 115 1059 138 1068 q 65 1026 92 1050 q 58 1024 63 1024 q 54 1028 54 1025 l 54 1061 q 100 1087 69 1076 q 163 1097 131 1097 q 253 1069 221 1097 q 285 997 285 1042 q 267 937 285 963 q 217 900 249 911 q 272 866 250 893 q 294 797 294 839 q 261 718 294 753 q 163 683 228 683 q 95 694 128 683 q 43 724 63 704 l 43 757 q 47 760 43 760 q 54 758 51 761 z "},"´":{"ha":1239,"x_min":483,"x_max":774,"o":"m 764 1093 q 774 1055 778 1078 q 754 1019 769 1032 q 638 956 708 983 q 483 892 568 928 q 596 1003 544 954 q 685 1089 647 1053 q 726 1106 701 1104 q 764 1093 751 1107 z "},"¶":{"ha":1239,"x_min":174,"x_max":963,"o":"m 963 -224 l 889 -224 l 889 1029 l 963 1029 l 963 -224 m 693 -224 l 617 -224 q 616 115 617 -50 q 615 447 615 279 l 544 447 q 399 467 467 447 q 282 525 332 488 q 203 617 232 563 q 174 742 174 672 q 203 876 174 821 q 290 965 233 931 q 426 1014 346 999 q 607 1029 506 1029 l 693 1029 l 693 -224 m 615 517 l 615 963 l 572 963 q 332 911 414 963 q 250 744 250 860 q 274 643 250 686 q 340 572 299 600 q 435 531 381 544 q 549 517 489 517 l 615 517 z "},"·":{"ha":619,"x_min":238,"x_max":385,"o":"m 311 582 q 385 510 385 582 q 311 438 385 438 q 238 510 238 438 q 311 582 238 582 z "},"¸":{"ha":619,"x_min":163,"x_max":425,"o":"m 425 -143 q 413 -197 425 -172 q 377 -239 400 -221 q 324 -267 354 -257 q 257 -278 293 -278 q 211 -274 238 -278 q 163 -256 185 -269 l 174 -231 q 207 -235 190 -233 q 238 -237 224 -237 q 297 -218 274 -237 q 321 -167 321 -199 q 294 -114 321 -133 q 222 -93 268 -94 l 299 61 l 410 61 l 357 -47 q 407 -85 389 -58 q 425 -143 425 -111 z "},"¹":{"ha":619,"x_min":81,"x_max":200,"o":"m 81 1010 l 81 1035 q 124 1059 103 1044 q 160 1093 144 1074 l 200 1093 l 200 690 l 165 690 l 165 1051 q 126 1024 146 1035 q 90 1006 106 1013 q 81 1010 81 1004 z "},"º":{"ha":1239,"x_min":267,"x_max":960,"o":"m 325 535 q 344 686 325 615 q 401 810 364 757 q 490 893 438 863 q 608 924 542 924 q 726 893 674 924 q 816 810 779 863 q 872 687 853 758 q 892 535 892 615 q 872 384 892 454 q 816 261 853 314 q 727 178 779 208 q 608 147 675 147 q 490 178 542 147 q 401 260 438 208 q 344 383 364 313 q 325 535 325 454 m 393 535 q 408 401 393 461 q 451 299 424 342 q 519 233 479 257 q 608 210 558 210 q 696 233 656 210 q 765 299 736 257 q 809 401 793 342 q 825 535 825 461 q 810 667 825 607 q 766 772 794 728 q 697 839 738 815 q 608 863 657 863 q 520 839 560 863 q 452 772 481 815 q 408 667 424 728 q 393 535 393 607 m 267 -12 l 960 -12 l 960 -74 l 267 -74 l 267 -12 z "},"¼":{"ha":1239,"x_min":110,"x_max":1151,"o":"m 1093 950 l 151 -203 l 110 -174 l 1051 981 l 1093 950 m 179 914 l 179 957 q 244 994 213 971 q 299 1046 275 1018 l 365 1046 l 365 435 l 304 435 l 304 971 q 245 933 276 949 q 190 908 214 918 q 179 914 179 904 m 706 -42 l 988 383 l 1056 383 l 1056 -35 l 1151 -35 l 1151 -86 l 1056 -86 l 1056 -228 l 997 -228 l 997 -86 l 706 -86 l 706 -42 m 1000 -36 l 1000 306 l 989 285 l 776 -36 l 1000 -36 z "},"½":{"ha":1239,"x_min":110,"x_max":1124,"o":"m 1093 950 l 151 -203 l 110 -174 l 1051 981 l 1093 950 m 179 914 l 179 957 q 244 994 213 971 q 299 1046 275 1018 l 365 1046 l 365 435 l 304 435 l 304 971 q 245 933 276 949 q 190 908 214 918 q 179 914 179 904 m 779 271 q 764 276 764 258 l 764 331 q 838 377 796 357 q 933 397 881 397 q 1065 358 1017 397 q 1114 238 1114 319 q 1106 185 1114 210 q 1081 135 1097 160 q 1043 83 1065 110 q 994 24 1021 56 l 825 -167 l 1124 -167 l 1124 -224 l 743 -224 l 743 -174 l 935 44 q 990 112 968 85 q 1025 160 1011 139 q 1044 198 1039 181 q 1050 236 1050 215 q 935 343 1050 343 q 779 271 858 343 z "},"¾":{"ha":1239,"x_min":110,"x_max":1151,"o":"m 1093 950 l 151 -203 l 110 -174 l 1051 981 l 1093 950 m 161 550 q 238 501 193 517 q 332 485 283 485 q 428 516 389 485 q 468 606 468 547 q 425 699 468 668 q 308 731 382 731 l 283 731 l 283 783 l 297 783 q 345 788 318 783 q 396 806 372 793 q 436 841 419 818 q 453 900 453 864 q 420 977 453 949 q 333 1006 388 1006 q 255 992 293 1006 q 178 943 217 978 q 168 939 172 938 q 164 947 164 940 l 164 1001 q 235 1042 189 1024 q 331 1060 282 1060 q 467 1015 418 1060 q 515 904 515 971 q 491 817 515 856 q 424 758 467 778 q 499 706 468 746 q 531 606 531 667 q 517 540 531 572 q 479 483 504 508 q 417 444 454 458 q 331 429 379 429 q 226 447 276 429 q 147 494 176 465 l 147 544 q 151 553 147 551 q 161 550 156 556 m 706 -42 l 988 383 l 1056 383 l 1056 -35 l 1151 -35 l 1151 -86 l 1056 -86 l 1056 -228 l 997 -228 l 997 -86 l 706 -86 l 706 -42 m 1000 -36 l 1000 306 l 989 285 l 776 -36 l 1000 -36 z "},"¿":{"ha":1239,"x_min":381,"x_max":892,"o":"m 381 65 q 394 146 381 108 q 430 216 408 183 q 478 275 451 249 q 531 321 504 301 q 623 423 594 371 q 651 542 651 475 l 651 656 l 725 656 l 725 533 q 688 397 725 458 q 603 294 651 335 q 549 249 575 274 q 504 198 524 225 q 473 140 485 171 q 461 72 461 108 q 513 -65 461 -15 q 657 -114 564 -114 q 766 -93 715 -114 q 858 -40 817 -72 l 892 -90 q 774 -156 840 -132 q 636 -181 707 -181 q 533 -162 581 -181 q 452 -110 486 -143 q 399 -33 418 -78 q 381 65 381 13 m 667 853 q 613 875 635 853 q 592 928 592 897 q 613 981 592 960 q 667 1001 635 1001 q 718 981 696 1001 q 740 928 740 960 q 718 875 740 897 q 667 853 696 853 z "},"Æ":{"ha":1239,"x_min":128,"x_max":1078,"o":"m 1078 -87 l 626 -87 l 626 275 l 365 275 l 203 -87 l 128 -87 l 592 932 l 1076 932 l 1076 867 l 692 867 l 692 483 l 1039 483 l 1039 415 l 692 415 l 692 -21 l 1078 -21 l 1078 -87 m 626 339 l 626 858 l 394 339 l 626 339 z "},"Ð":{"ha":1239,"x_min":132,"x_max":1024,"o":"m 728 272 l 394 272 l 394 -26 l 597 -26 q 753 10 686 -26 q 865 107 819 46 q 932 249 910 168 q 954 421 954 331 q 931 601 954 518 q 861 743 907 683 q 748 837 815 803 q 593 871 681 871 l 394 871 l 394 331 l 728 331 l 728 272 m 132 331 l 325 331 l 325 932 l 603 932 q 770 894 693 932 q 903 790 847 857 q 992 628 960 722 q 1024 421 1024 535 q 994 224 1024 317 q 909 61 964 131 q 777 -49 854 -8 q 607 -89 700 -89 l 325 -89 l 325 272 l 132 272 l 132 331 z "},"×":{"ha":1239,"x_min":278,"x_max":961,"o":"m 279 201 l 572 494 l 278 788 l 325 836 l 619 542 l 914 836 l 961 788 l 668 494 l 960 201 l 911 154 l 619 446 l 328 154 l 279 201 z "},"Ø":{"ha":1239,"x_min":185,"x_max":1069,"o":"m 622 932 q 776 896 707 932 q 894 799 846 860 l 1024 956 l 1069 919 l 929 749 q 990 605 968 686 q 1011 428 1011 524 q 983 233 1011 325 q 902 70 954 140 q 778 -42 850 0 q 622 -83 707 -83 q 473 -47 540 -83 q 357 50 406 -10 l 232 -103 l 185 -67 l 321 100 q 258 250 281 167 q 235 428 235 333 q 263 628 235 536 q 342 788 292 719 q 465 894 393 856 q 622 932 536 932 m 947 428 q 931 577 947 508 q 886 696 914 646 l 397 97 q 495 8 438 39 q 622 -24 553 -24 q 751 10 692 -24 q 855 105 811 44 q 923 248 899 165 q 947 428 947 331 m 854 749 q 753 840 813 807 q 622 872 693 872 q 492 840 551 872 q 389 749 432 807 q 322 608 346 690 q 297 428 297 526 q 315 274 297 344 q 361 149 332 203 l 854 749 z "},"Þ":{"ha":1239,"x_min":358,"x_max":939,"o":"m 635 94 l 425 94 l 425 -93 l 358 -93 l 358 946 l 425 946 l 425 742 l 635 742 q 745 724 690 742 q 843 666 800 706 q 913 565 886 626 q 939 417 939 504 q 913 268 939 329 q 845 169 888 207 q 748 113 803 131 q 635 94 693 94 m 631 682 l 425 682 l 425 157 l 631 157 q 724 171 681 157 q 800 216 768 185 q 851 297 832 247 q 869 417 869 346 q 851 535 869 485 q 801 617 833 585 q 726 666 769 650 q 631 682 682 682 z "},"ß":{"ha":1239,"x_min":339,"x_max":951,"o":"m 729 492 q 827 458 785 483 q 897 394 869 432 q 938 308 924 357 q 951 206 951 260 q 930 88 951 142 q 869 -5 908 35 q 774 -67 829 -44 q 650 -89 718 -89 q 524 -78 590 -89 q 413 -43 457 -67 l 413 -210 l 339 -210 l 339 658 q 360 772 339 721 q 420 860 382 824 q 510 918 458 897 q 621 939 561 939 q 729 922 679 939 q 815 873 779 904 q 870 800 850 842 q 890 711 890 758 q 881 640 890 675 q 853 576 872 606 q 803 525 833 547 q 729 492 772 503 m 413 671 l 413 21 q 509 -12 457 -1 q 614 -24 561 -24 q 811 38 744 -24 q 878 222 878 100 q 812 391 878 328 q 629 453 746 454 l 629 519 q 769 577 718 532 q 819 708 819 622 q 804 774 819 743 q 763 827 789 804 q 701 863 736 850 q 626 876 665 876 q 541 861 581 876 q 473 819 501 846 q 428 753 444 792 q 413 671 413 715 z "},"æ":{"ha":1239,"x_min":151,"x_max":1051,"o":"m 1051 278 l 642 278 q 653 167 642 221 q 688 73 665 114 q 745 7 711 32 q 824 -18 779 -18 q 923 22 885 -18 q 968 136 961 61 l 1044 136 q 972 -26 1031 32 q 824 -85 914 -85 q 745 -69 781 -85 q 682 -28 710 -54 q 635 30 654 -3 q 606 97 615 63 q 564 19 590 53 q 503 -39 538 -15 q 430 -75 469 -62 q 349 -87 390 -87 q 283 -78 315 -87 q 224 -48 251 -68 q 178 1 197 -28 q 153 68 160 31 q 152 146 146 110 q 175 213 158 182 q 217 266 192 243 q 272 303 242 289 q 340 324 301 317 q 418 335 378 332 q 497 340 458 339 q 565 340 535 340 l 565 422 q 552 495 565 460 q 516 558 539 531 q 461 601 493 585 q 392 618 429 618 q 278 574 322 618 q 226 461 233 531 l 158 461 q 183 553 163 513 q 235 621 204 593 q 307 664 267 649 q 392 679 347 679 q 517 640 454 679 q 614 517 579 601 q 644 578 624 549 q 693 629 665 607 q 753 665 721 651 q 817 678 785 678 q 921 644 876 678 q 994 558 965 611 q 1038 435 1024 504 q 1051 296 1051 367 l 1051 278 m 642 340 l 979 340 q 969 437 979 388 q 940 525 960 486 q 889 589 919 564 q 817 614 858 614 q 742 590 774 614 q 688 526 710 565 q 655 438 667 488 q 642 340 643 389 m 567 206 l 567 275 q 497 275 535 275 q 423 272 460 275 q 351 261 386 268 q 292 240 317 254 q 230 173 251 217 q 219 79 208 129 q 270 2 231 25 q 356 -21 310 -21 q 434 -3 396 -21 q 501 46 472 15 q 549 118 531 76 q 567 206 567 160 z "},"ð":{"ha":1239,"x_min":278,"x_max":857,"o":"m 565 -24 q 657 -6 617 -24 q 726 45 697 13 q 769 122 754 78 q 785 218 785 165 q 768 306 785 265 q 722 374 751 346 q 653 417 693 401 q 564 433 613 433 q 474 415 514 433 q 407 365 435 397 q 364 290 379 333 q 349 194 349 246 q 365 107 349 147 q 409 38 381 67 q 477 -8 438 8 q 565 -24 517 -24 m 603 806 l 718 890 l 758 842 l 647 760 q 802 527 747 653 q 857 254 857 401 q 836 115 857 178 q 778 9 815 53 q 688 -58 740 -35 q 572 -82 635 -82 q 453 -61 507 -82 q 360 -3 400 -40 q 299 84 321 33 q 278 196 278 135 q 301 315 278 261 q 363 409 324 369 q 453 471 401 449 q 565 493 506 493 q 627 486 596 493 q 687 467 658 479 q 739 438 715 454 q 778 401 763 421 q 710 578 758 493 q 599 726 661 664 l 440 611 l 404 658 l 557 767 q 485 828 531 796 q 396 883 439 861 l 428 929 q 522 870 476 903 q 603 806 568 838 z "},"÷":{"ha":1239,"x_min":243,"x_max":994,"o":"m 618 128 q 562 151 586 128 q 538 210 538 174 q 560 268 538 246 q 618 290 582 290 q 675 268 650 290 q 700 210 700 246 q 677 151 700 175 q 618 128 654 128 m 618 728 q 562 751 586 728 q 538 811 538 775 q 560 868 538 846 q 618 890 582 890 q 675 868 650 890 q 700 811 700 846 q 677 751 700 775 q 618 728 654 728 m 243 543 l 994 543 l 994 472 l 243 472 l 243 543 z "},"ø":{"ha":1239,"x_min":267,"x_max":964,"o":"m 892 751 l 939 717 l 847 592 q 933 468 901 543 q 964 306 964 393 q 940 155 964 224 q 869 36 915 86 q 759 -42 824 -14 q 614 -69 694 -69 q 501 -53 553 -69 q 413 -8 450 -37 l 317 -140 l 268 -107 l 367 31 q 292 149 318 79 q 267 307 267 219 q 292 456 267 386 q 364 576 318 525 q 473 656 410 626 q 611 685 536 685 q 715 670 667 685 q 803 628 764 656 l 892 751 m 814 546 l 444 36 q 520 -1 476 13 q 617 -14 564 -14 q 735 9 682 -14 q 824 74 788 32 q 881 173 861 115 q 900 301 900 231 q 877 440 900 378 q 814 546 854 503 m 403 79 l 769 582 q 698 617 738 604 q 613 629 658 629 q 495 606 547 629 q 406 542 443 583 q 349 444 369 501 q 329 317 329 386 q 348 180 329 240 q 403 79 367 119 z "},"þ":{"ha":1239,"x_min":367,"x_max":968,"o":"m 968 415 q 927 251 968 326 q 815 138 886 175 q 726 106 775 117 q 627 92 678 94 q 526 94 576 89 q 433 111 476 99 l 433 -92 l 367 -92 l 367 935 l 433 935 l 433 661 q 683 694 575 701 q 849 651 790 688 q 936 555 904 618 q 968 415 968 492 m 899 419 q 859 553 899 501 q 753 626 819 606 q 684 639 722 636 q 604 638 646 642 q 519 626 563 635 q 433 606 475 618 l 433 163 q 617 147 525 139 q 774 186 708 154 q 865 276 832 214 q 899 419 899 338 z "},"đ":{"ha":1239,"x_min":267,"x_max":957,"o":"m 957 725 l 957 664 l 850 664 l 850 -51 l 793 -51 l 793 38 q 756 -9 776 13 q 706 -46 735 -31 q 638 -69 676 -61 q 546 -78 599 -78 q 433 -56 485 -78 q 345 8 382 -33 q 288 107 308 49 q 267 238 267 165 q 288 372 267 313 q 345 474 308 432 q 433 538 382 515 q 546 560 485 560 q 699 530 638 560 q 796 440 760 500 l 796 664 l 460 664 l 460 725 l 796 725 l 796 914 l 850 914 l 850 725 l 957 725 m 567 -32 q 666 -10 624 -32 q 736 50 708 13 q 778 135 764 88 q 792 236 792 183 q 778 340 792 290 q 736 426 764 389 q 666 486 708 464 q 567 508 624 508 q 465 486 508 508 q 392 426 421 464 q 348 340 363 389 q 333 236 333 290 q 348 135 333 183 q 392 50 363 88 q 465 -10 421 13 q 567 -32 508 -32 z "},"Ħ":{"ha":1239,"x_min":140,"x_max":1096,"o":"m 344 933 l 344 761 l 896 761 l 896 933 l 967 933 l 967 761 l 1096 761 l 1096 696 l 967 696 l 967 -85 l 896 -85 l 896 418 l 344 418 l 344 -85 l 272 -85 l 272 696 l 140 696 l 140 761 l 272 761 l 272 933 l 344 933 m 896 482 l 896 696 l 344 696 l 344 482 l 896 482 z "},"ħ":{"ha":1239,"x_min":235,"x_max":885,"o":"m 429 667 l 429 414 q 462 465 440 440 q 512 509 483 490 q 574 539 540 528 q 646 550 608 550 q 763 527 717 550 q 835 463 808 504 q 873 364 863 422 q 883 235 883 306 q 884 76 883 163 q 885 -85 885 -10 l 826 -85 l 826 257 q 815 356 826 311 q 782 432 804 400 q 724 482 760 464 q 642 500 689 500 q 544 472 585 500 q 478 402 504 444 q 441 310 453 360 q 429 217 429 260 l 429 -85 l 376 -85 l 376 667 l 235 667 l 235 726 l 376 726 l 376 933 l 429 933 l 429 726 l 724 726 l 724 667 l 429 667 z "},"ı":{"ha":1239,"x_min":586,"x_max":654,"o":"m 654 726 l 654 -81 l 586 -81 l 586 726 l 654 726 z "},"Ĳ":{"ha":1239,"x_min":281,"x_max":963,"o":"m 344 -87 l 281 -87 l 281 932 l 344 932 l 344 -87 m 896 151 l 896 932 l 963 932 l 963 156 q 942 33 963 85 q 889 -51 922 -18 q 813 -99 856 -83 q 725 -114 771 -114 q 634 -99 678 -114 q 557 -50 590 -83 q 503 35 524 -17 q 483 158 483 86 l 483 268 l 547 268 l 547 151 q 565 56 547 93 q 610 -3 583 18 q 668 -34 638 -25 q 725 -43 699 -43 q 780 -34 750 -43 q 835 -3 810 -25 q 878 56 861 18 q 896 151 896 93 z "},"ĳ":{"ha":1239,"x_min":375,"x_max":865,"o":"m 865 928 l 865 851 l 800 851 l 800 928 l 865 928 m 436 928 l 436 851 l 375 851 l 375 928 l 436 928 m 800 672 l 858 672 l 858 -133 q 846 -222 858 -190 q 810 -267 833 -253 q 754 -285 788 -282 q 678 -289 721 -287 l 678 -236 q 742 -225 718 -233 q 779 -203 767 -217 q 796 -169 792 -189 q 800 -122 800 -149 l 800 672 m 436 675 l 436 -86 l 375 -86 l 375 675 l 436 675 z "},"ĸ":{"ha":1239,"x_min":364,"x_max":940,"o":"m 601 313 l 940 -156 q 903 -156 918 -156 q 868 -157 888 -157 l 564 271 l 428 133 l 428 -158 l 364 -158 l 364 654 l 428 654 l 428 210 q 656 461 561 349 q 814 653 751 574 q 851 652 833 653 q 892 651 868 651 q 756 488 832 578 q 601 313 679 399 z "},"Ŀ":{"ha":1239,"x_min":331,"x_max":922,"o":"m 681 343 q 630 364 650 343 q 610 417 610 385 q 630 471 610 450 q 681 492 650 492 q 728 471 708 492 q 749 417 749 450 q 729 364 749 385 q 681 343 710 343 m 922 -21 l 922 -83 l 331 -83 l 331 932 l 394 932 l 394 -21 l 922 -21 z "},"ŀ":{"ha":1239,"x_min":431,"x_max":844,"o":"m 496 928 l 496 -85 l 431 -85 l 431 928 l 496 928 m 776 343 q 726 364 746 343 q 706 417 706 385 q 726 471 706 450 q 776 492 746 492 q 825 471 806 492 q 844 417 844 450 q 826 364 844 385 q 776 343 807 343 z "},"Ł":{"ha":1239,"x_min":257,"x_max":981,"o":"m 454 938 l 454 531 l 624 699 l 643 643 l 454 454 l 454 -32 l 981 -32 l 981 -93 l 397 -93 l 397 393 l 279 274 l 257 332 l 397 468 l 397 938 l 454 938 z "},"ł":{"ha":1239,"x_min":356,"x_max":878,"o":"m 654 513 l 854 688 l 878 657 l 654 463 l 654 -85 l 594 -85 l 594 419 l 379 229 l 356 261 l 594 472 l 594 928 l 654 928 l 654 513 z "},"ŉ":{"ha":1239,"x_min":156,"x_max":918,"o":"m 403 646 l 403 531 q 515 638 443 601 q 683 674 586 675 q 767 657 725 674 q 843 611 810 640 q 897 540 876 582 q 918 446 918 497 l 918 -87 l 861 -87 l 861 396 q 845 503 860 460 q 803 573 831 546 q 738 612 776 600 q 651 625 699 624 q 548 602 594 625 q 469 540 501 579 q 420 451 438 501 q 403 344 403 400 l 403 -87 l 347 -87 l 347 646 l 403 646 m 335 835 q 364 786 364 819 q 359 769 364 778 q 351 758 354 761 q 272 660 308 706 q 194 561 236 614 q 175 556 181 556 q 162 560 168 556 q 156 574 156 564 q 157 586 156 581 q 206 693 182 639 q 256 801 231 747 q 272 830 263 817 q 301 843 281 843 q 335 835 319 843 z "},"Ŋ":{"ha":1239,"x_min":292,"x_max":956,"o":"m 683 -93 l 683 -22 q 767 1 728 -18 q 834 53 806 19 q 879 135 863 88 q 896 246 896 183 l 896 642 q 888 731 896 688 q 858 806 879 774 q 801 857 838 839 q 711 871 765 875 q 590 833 653 867 q 476 753 528 800 q 390 656 424 707 q 356 563 356 604 l 356 -6 l 292 -6 l 292 933 l 356 933 l 356 696 q 405 762 375 728 q 475 827 435 796 q 565 883 515 858 q 676 922 615 908 q 782 927 732 935 q 871 893 832 919 q 933 822 910 867 q 956 717 956 778 l 956 263 q 934 114 956 179 q 876 4 913 49 q 789 -65 839 -40 q 683 -93 739 -89 z "},"ŋ":{"ha":1239,"x_min":349,"x_max":896,"o":"m 749 -265 l 724 -265 l 724 -211 q 784 -197 761 -208 q 819 -165 807 -186 q 836 -113 832 -144 q 840 -36 840 -82 l 840 386 q 786 574 840 513 q 640 636 732 636 q 541 615 585 636 q 467 555 497 593 q 420 466 436 517 q 404 357 404 415 l 404 -21 l 349 -21 l 349 656 l 404 656 l 404 525 q 466 616 429 582 q 546 667 503 650 q 634 685 589 683 q 721 683 679 688 q 795 656 763 679 q 850 601 828 633 q 884 528 872 568 q 896 450 896 489 l 896 -71 q 891 -135 896 -101 q 870 -199 886 -169 q 826 -247 854 -228 q 749 -265 797 -265 z "},"Œ":{"ha":1239,"x_min":111,"x_max":1125,"o":"m 1125 -68 l 626 -68 l 626 -19 q 553 -72 603 -51 q 450 -93 504 -93 q 315 -55 376 -93 q 208 52 253 -17 q 137 216 163 121 q 111 425 111 311 q 138 626 111 533 q 210 786 164 718 q 320 893 257 854 q 457 932 383 932 q 507 927 482 932 q 555 913 532 922 q 597 890 578 903 q 626 864 615 878 l 626 897 l 1125 897 l 1125 831 l 696 831 l 696 474 l 1072 474 l 1072 411 l 696 411 l 696 0 l 1125 0 l 1125 -68 m 626 67 l 626 785 q 555 845 597 822 q 456 868 513 868 q 330 826 382 868 q 244 718 278 783 q 196 576 211 653 q 181 428 181 499 q 196 267 181 349 q 244 120 211 186 q 329 13 278 54 q 453 -28 381 -28 q 553 -3 507 -28 q 626 67 600 22 z "},"œ":{"ha":1239,"x_min":136,"x_max":1100,"o":"m 618 142 q 576 33 601 76 q 519 -38 550 -11 q 454 -77 488 -65 q 392 -89 421 -89 q 290 -61 336 -89 q 209 18 243 -33 q 156 140 175 69 q 136 297 136 211 q 156 455 136 383 q 209 577 175 526 q 290 656 243 628 q 392 685 336 685 q 453 675 422 685 q 513 640 483 665 q 569 574 543 615 q 618 468 596 532 q 664 567 636 526 q 722 634 692 608 q 785 672 753 660 q 847 683 818 683 q 937 662 892 683 q 1018 592 982 640 q 1077 466 1054 543 q 1100 276 1100 389 l 661 276 q 675 164 663 218 q 712 68 688 110 q 770 1 736 26 q 847 -25 804 -25 q 939 5 899 -25 q 999 83 979 35 l 1075 83 q 987 -42 1039 4 q 851 -87 935 -87 q 788 -78 822 -87 q 722 -42 754 -68 q 663 28 690 -15 q 618 142 635 72 m 392 -28 q 473 1 438 -28 q 531 76 508 29 q 566 181 554 122 q 578 297 578 239 q 566 414 578 356 q 531 519 554 472 q 473 594 508 565 q 392 624 438 624 q 310 597 346 624 q 251 524 275 569 q 215 420 228 479 q 203 297 203 361 q 215 174 203 233 q 251 71 228 115 q 310 -1 275 26 q 392 -28 346 -28 m 664 336 l 1031 336 q 1015 444 1028 393 q 978 535 1001 496 q 922 598 956 575 q 847 621 889 621 q 775 599 808 621 q 717 538 742 576 q 678 447 692 499 q 664 336 664 396 z "},"Ŧ":{"ha":1239,"x_min":283,"x_max":957,"o":"m 319 508 l 585 508 l 585 857 l 283 857 l 283 929 l 957 929 l 957 857 l 654 857 l 654 508 l 904 508 l 904 440 l 654 440 l 654 -97 l 585 -97 l 585 440 l 319 440 l 319 508 z "},"ŧ":{"ha":1239,"x_min":343,"x_max":786,"o":"m 535 39 l 535 358 l 343 358 l 343 404 l 535 404 l 535 657 l 376 617 l 363 656 l 535 700 l 535 843 l 599 843 l 599 715 l 747 753 l 760 714 l 599 672 l 599 404 l 786 404 l 786 358 l 599 358 l 599 35 q 602 -8 599 7 q 617 -29 606 -22 q 649 -37 628 -36 q 703 -39 669 -39 l 785 -39 l 785 -93 l 650 -93 q 592 -82 614 -93 q 557 -52 569 -71 q 540 -10 544 -33 q 535 39 535 14 z "},"ˇ":{"ha":1239,"x_min":311,"x_max":924,"o":"m 907 1082 l 629 863 q 600 863 615 849 l 326 1082 q 312 1100 313 1094 q 317 1106 311 1106 q 335 1102 324 1106 q 358 1092 347 1099 l 614 960 l 878 1093 q 902 1103 890 1099 q 920 1106 914 1107 q 924 1100 926 1106 q 907 1082 921 1094 z "},"ː":{"ha":619,"x_min":165,"x_max":438,"o":"m 304 571 l 165 811 l 438 811 l 304 571 m 165 153 l 304 393 l 438 153 l 165 153 z "},"˘":{"ha":1239,"x_min":324,"x_max":915,"o":"m 861 1104 l 915 1083 q 792 956 863 996 q 629 911 722 915 q 454 946 526 906 q 324 1078 382 986 l 374 1108 q 484 1001 422 1033 q 628 972 546 969 q 758 1005 703 975 q 861 1104 813 1035 z "},"˙":{"ha":1239,"x_min":528,"x_max":708,"o":"m 708 1019 q 679 956 708 982 q 617 929 650 929 q 553 958 579 929 q 528 1022 528 986 q 556 1084 528 1057 q 618 1111 583 1111 q 681 1083 653 1111 q 708 1019 708 1056 z "},"˚":{"ha":1239,"x_min":481,"x_max":761,"o":"m 761 971 q 750 919 761 943 q 719 876 739 894 q 674 846 700 857 q 619 835 649 835 q 565 846 590 835 q 522 876 540 857 q 492 919 503 894 q 481 971 481 943 q 492 1024 481 999 q 522 1067 503 1049 q 565 1097 540 1086 q 619 1107 590 1107 q 674 1097 649 1107 q 719 1067 700 1086 q 750 1024 739 1049 q 761 971 761 999 m 713 971 q 685 1035 713 1008 q 619 1061 658 1061 q 555 1035 582 1061 q 528 971 528 1008 q 555 908 528 935 q 619 882 582 882 q 685 908 658 882 q 713 971 713 935 z "},"˛":{"ha":619,"x_min":235,"x_max":446,"o":"m 446 -167 q 416 -250 446 -215 q 343 -285 386 -285 q 267 -251 299 -285 q 235 -165 235 -218 q 253 -89 235 -126 q 310 -19 272 -51 q 325 -12 319 -15 q 333 -8 331 -8 q 338 -11 335 -10 q 342 -17 342 -15 q 338 -25 342 -21 q 333 -35 335 -29 q 306 -92 314 -69 q 299 -143 299 -115 q 315 -188 299 -171 q 356 -206 331 -206 q 383 -197 371 -206 q 403 -179 394 -189 q 419 -161 413 -169 q 432 -153 426 -153 q 446 -167 446 -153 z "},"˝":{"ha":1239,"x_min":400,"x_max":910,"o":"m 669 1096 q 678 1060 679 1081 q 668 1032 678 1039 q 606 991 647 1014 q 524 947 565 968 q 447 912 482 926 q 404 896 413 897 l 404 900 q 400 901 404 906 q 401 906 400 906 l 404 906 q 449 952 425 926 q 499 1003 474 978 q 549 1053 525 1029 q 594 1094 574 1076 q 609 1103 599 1100 q 631 1108 619 1107 q 653 1106 643 1108 q 669 1096 664 1103 m 900 1096 q 909 1060 910 1081 q 899 1032 908 1039 q 838 991 878 1014 q 755 947 797 968 q 678 912 713 926 q 635 896 643 897 l 635 900 q 631 901 635 906 q 632 906 631 906 l 635 906 q 680 952 656 926 q 730 1003 704 978 q 780 1053 756 1029 q 825 1094 804 1076 q 840 1103 829 1100 q 862 1108 850 1107 q 884 1106 874 1108 q 900 1096 894 1103 z "},"Α":{"ha":1239,"x_min":93,"x_max":1007,"o":"m 889 935 l 1007 -89 l 932 -89 l 901 193 l 361 193 l 168 -89 l 93 -89 l 793 935 l 889 935 m 410 263 l 893 263 l 825 860 l 410 263 z "},"Β":{"ha":1239,"x_min":167,"x_max":1017,"o":"m 464 935 l 754 935 q 872 917 822 935 q 953 867 921 899 q 1001 794 986 836 q 1017 707 1017 753 q 960 539 1017 608 q 813 446 904 469 q 865 416 836 438 q 920 361 894 394 q 963 283 946 328 q 981 183 981 238 q 898 -19 981 53 q 671 -90 815 -90 l 167 -90 q 315 423 242 169 q 464 935 389 676 m 411 486 l 693 486 q 791 502 746 486 q 869 546 836 518 q 920 612 901 574 q 939 696 939 650 q 885 822 939 775 q 749 868 832 868 l 528 868 q 469 676 500 772 q 411 486 439 581 m 401 421 q 336 198 369 308 q 269 -21 303 88 l 672 -21 q 842 34 781 -21 q 904 185 904 89 q 890 278 904 235 q 847 353 875 321 q 780 403 819 385 q 692 421 740 421 l 401 421 z "},"Γ":{"ha":1239,"x_min":211,"x_max":1067,"o":"m 1067 760 q 1033 747 1047 753 q 999 733 1018 740 q 978 794 989 765 q 961 850 968 824 l 528 850 q 410 383 469 615 q 289 -87 350 151 l 211 -87 q 342 423 278 171 q 469 933 406 675 l 1013 933 q 1040 847 1028 889 q 1067 760 1051 804 z "},"Δ":{"ha":1239,"x_min":82,"x_max":1068,"o":"m 217 -25 l 986 -25 q 985 424 986 199 q 983 869 983 650 q 601 422 793 647 q 217 -25 408 197 m 82 -89 q 528 424 308 172 q 968 935 747 676 l 1068 935 l 1068 -89 l 82 -89 z "},"Ε":{"ha":1239,"x_min":160,"x_max":1043,"o":"m 160 -82 q 313 426 239 175 q 464 933 388 678 l 1043 933 q 1031 875 1039 906 l 519 875 q 458 671 489 772 q 396 469 426 569 l 888 469 q 879 440 882 453 q 869 413 876 428 l 383 413 q 312 194 347 303 q 240 -24 276 85 l 785 -24 q 776 -54 781 -40 q 767 -82 771 -68 l 160 -82 z "},"Ζ":{"ha":1239,"x_min":175,"x_max":1047,"o":"m 175 -86 l 190 -21 l 940 864 l 376 864 l 400 929 l 1047 929 l 1032 861 l 275 -21 l 885 -21 l 869 -86 l 175 -86 z "},"Η":{"ha":1239,"x_min":125,"x_max":1133,"o":"m 389 935 l 456 935 l 339 465 l 949 465 l 1069 935 l 1133 935 l 874 -81 l 808 -81 l 935 408 l 317 408 l 192 -81 l 125 -81 l 389 935 z "},"Θ":{"ha":1239,"x_min":192,"x_max":1072,"o":"m 990 818 q 1051 713 1031 775 q 1072 567 1072 651 q 1056 408 1072 488 q 1010 255 1039 328 q 943 119 982 182 q 861 13 904 57 q 723 -61 796 -35 q 563 -87 650 -87 q 285 3 378 -87 q 192 278 192 94 q 230 519 192 393 q 339 754 268 646 q 484 886 397 842 q 689 931 571 931 q 779 922 735 931 q 863 899 824 914 q 935 863 903 883 q 990 818 968 843 m 415 732 q 304 519 342 638 q 267 276 267 401 q 336 47 267 117 q 563 -24 406 -24 q 718 5 649 -24 q 836 97 788 33 q 903 190 874 135 q 954 309 933 246 q 986 441 975 372 q 997 575 997 510 q 923 792 997 715 q 686 869 849 869 q 533 838 599 869 q 415 732 468 807 m 460 525 l 489 525 l 469 446 l 783 446 l 801 525 l 831 525 l 782 318 l 754 318 l 772 399 l 458 399 l 439 318 l 411 318 l 460 525 z "},"Ι":{"ha":1239,"x_min":454,"x_max":800,"o":"m 454 -90 l 740 936 l 800 936 l 518 -90 l 454 -90 z "},"Κ":{"ha":1239,"x_min":235,"x_max":1074,"o":"m 844 -89 l 431 396 l 304 -89 l 235 -89 l 504 936 l 569 936 l 440 447 l 994 936 l 1074 936 l 486 417 l 925 -89 l 844 -89 z "},"Λ":{"ha":1239,"x_min":149,"x_max":921,"o":"m 844 -82 q 845 398 844 167 q 846 865 846 629 q 533 397 692 628 q 214 -82 374 165 l 149 -82 q 315 174 232 49 q 479 423 397 299 q 644 672 561 547 q 808 926 726 797 l 921 926 q 919 422 919 667 q 917 -82 918 176 l 844 -82 z "},"Μ":{"ha":1239,"x_min":101,"x_max":1135,"o":"m 481 -89 l 413 856 l 178 -89 l 101 -89 l 356 932 l 486 932 l 542 -1 l 989 932 l 1135 932 l 897 -89 l 819 -89 l 1038 854 l 568 -89 l 481 -89 z "},"Ν":{"ha":1239,"x_min":149,"x_max":1106,"o":"m 832 -85 l 721 -85 l 471 865 l 214 -85 l 149 -85 l 417 932 l 528 932 l 776 -21 l 1043 932 l 1106 932 l 832 -85 z "},"Ξ":{"ha":1239,"x_min":225,"x_max":1026,"o":"m 988 782 l 942 782 l 958 863 l 510 863 l 489 782 l 435 782 l 471 936 l 1026 936 l 988 782 m 868 394 l 379 394 l 400 468 l 889 468 l 868 394 m 850 64 l 896 64 l 856 -90 l 225 -90 l 265 64 l 313 64 l 292 -15 l 828 -15 l 850 64 z "},"Ο":{"ha":1239,"x_min":194,"x_max":1028,"o":"m 672 936 q 911 868 808 936 q 997 764 967 831 q 1028 599 1028 697 q 1015 454 1028 528 q 979 308 1003 381 q 921 169 956 236 q 842 44 886 101 q 725 -61 793 -29 q 565 -93 657 -93 q 292 -9 390 -93 q 194 224 194 75 q 229 464 194 340 q 324 703 264 588 q 396 811 358 767 q 476 883 433 856 q 567 924 518 911 q 672 936 615 936 m 672 875 q 528 840 589 875 q 415 725 467 804 q 356 606 383 669 q 307 476 328 542 q 274 348 286 410 q 263 235 263 286 q 276 136 263 176 q 325 61 289 96 q 551 -26 408 -26 q 649 -14 606 -26 q 730 26 693 -1 q 799 99 767 54 q 863 208 831 143 q 938 410 911 301 q 964 613 964 518 q 931 755 964 697 q 821 846 897 813 q 743 867 782 860 q 672 875 704 875 z "},"Π":{"ha":1239,"x_min":179,"x_max":1079,"o":"m 1063 885 l 979 885 q 872 395 925 639 q 763 -97 819 151 l 690 -97 q 804 397 749 153 q 914 885 860 640 l 469 885 q 359 395 415 639 q 246 -97 303 151 l 179 -97 q 292 397 236 153 q 403 885 349 642 l 286 885 q 291 913 289 900 q 296 942 293 926 l 1079 942 q 1071 913 1074 925 q 1063 885 1068 900 z "},"Ρ":{"ha":1239,"x_min":233,"x_max":1013,"o":"m 233 -100 q 340 422 288 163 q 446 943 393 681 l 740 943 q 941 869 869 943 q 1013 661 1013 796 q 932 434 1013 518 q 700 350 851 350 l 396 351 q 351 127 375 239 q 303 -100 326 15 l 233 -100 m 503 881 q 456 645 479 763 q 410 414 433 528 l 678 414 q 876 484 814 414 q 939 668 939 554 q 881 828 939 776 q 710 881 822 881 l 503 881 z "},"Σ":{"ha":1239,"x_min":215,"x_max":1057,"o":"m 215 -92 l 238 -12 l 672 457 l 422 854 l 451 938 l 1057 938 l 1039 874 l 481 874 l 751 456 l 292 -26 l 903 -26 l 883 -92 l 215 -92 z "},"Τ":{"ha":1239,"x_min":296,"x_max":1004,"o":"m 985 874 l 701 874 q 602 393 653 632 q 501 -92 551 154 l 422 -92 q 525 393 475 154 q 626 874 575 632 l 296 874 q 305 907 301 892 q 314 938 308 922 l 1004 938 q 995 904 999 919 q 985 874 992 889 z "},"Υ":{"ha":1239,"x_min":383,"x_max":1046,"o":"m 542 -87 l 471 -87 l 557 424 q 566 499 563 464 q 569 558 569 533 q 525 751 569 678 q 383 868 481 824 l 410 938 q 572 818 518 889 q 632 636 625 747 q 711 771 664 708 q 835 875 758 833 q 934 917 886 906 q 1046 935 982 928 l 1025 851 q 857 799 926 838 q 728 683 788 761 q 695 626 710 656 q 668 560 681 596 q 645 480 656 524 q 625 381 635 436 l 542 -87 z "},"Φ":{"ha":1239,"x_min":150,"x_max":1090,"o":"m 778 947 l 753 850 q 870 833 825 843 q 951 800 915 822 q 1055 689 1019 758 q 1090 528 1090 619 q 1078 408 1090 469 q 1043 290 1065 346 q 990 186 1021 233 q 921 107 958 139 q 751 13 842 40 q 531 -15 660 -15 q 528 -24 531 -15 q 521 -47 525 -33 q 513 -74 517 -60 q 507 -97 510 -87 l 439 -97 l 460 -15 q 224 90 297 3 q 150 333 150 176 q 210 594 150 479 q 376 775 271 708 q 442 810 410 796 q 510 834 474 825 q 590 848 547 843 q 686 854 632 853 l 710 947 l 778 947 m 475 50 l 672 788 q 531 774 594 786 q 415 729 468 763 q 334 658 371 701 q 271 560 297 614 q 230 449 244 507 q 215 333 215 390 q 282 134 215 207 q 475 50 349 61 m 739 785 l 546 46 q 690 60 633 49 q 794 96 746 71 q 886 171 844 126 q 958 269 928 215 q 1003 385 988 324 q 1019 511 1019 447 q 951 709 1019 642 q 739 785 882 776 z "},"Χ":{"ha":1239,"x_min":172,"x_max":1079,"o":"m 853 -89 l 639 379 l 254 -89 l 172 -89 l 607 436 l 386 932 l 456 932 l 658 489 l 1001 932 l 1079 932 l 688 425 l 925 -89 l 853 -89 z "},"Ψ":{"ha":1239,"x_min":161,"x_max":1157,"o":"m 497 -93 l 419 -93 q 454 67 436 -11 q 488 224 472 146 q 408 228 442 225 q 347 235 374 231 q 299 246 319 239 q 260 264 278 253 q 188 341 214 289 q 161 458 161 393 q 174 566 161 503 q 210 733 186 629 q 229 819 222 788 q 236 865 236 850 q 228 890 236 881 q 211 905 219 899 q 197 918 203 911 q 197 938 192 925 q 218 946 200 943 q 257 947 236 949 q 295 939 278 944 q 314 924 313 933 q 309 874 315 908 q 292 794 303 840 q 267 688 281 747 q 240 564 253 629 q 231 513 235 540 q 226 465 226 486 q 238 378 226 413 q 281 324 250 343 q 365 296 313 304 q 499 288 417 288 q 565 613 531 450 q 632 944 599 776 l 703 944 q 637 613 671 776 q 571 290 603 450 q 701 295 647 290 q 792 315 754 300 q 857 356 831 329 q 903 428 883 383 q 941 536 924 472 q 981 689 958 600 q 992 741 985 707 q 1007 810 1000 775 q 1021 874 1014 844 q 1031 911 1028 903 q 1041 928 1036 921 q 1056 938 1046 935 q 1081 943 1065 942 q 1122 944 1096 944 q 1157 929 1153 944 q 1151 915 1158 921 q 1133 900 1143 908 q 1112 882 1122 892 q 1097 858 1101 872 q 1081 796 1094 851 q 1040 635 1067 740 q 999 488 1019 549 q 956 384 978 426 q 906 314 933 342 q 846 268 879 286 q 749 233 808 243 q 601 224 689 224 l 558 224 q 529 66 544 144 q 497 -93 514 -12 z "},"Ω":{"ha":1239,"x_min":168,"x_max":1088,"o":"m 931 -100 l 550 -100 l 578 -4 q 742 81 671 33 q 865 186 814 129 q 978 365 936 265 q 1019 576 1019 464 q 997 704 1019 647 q 933 800 975 761 q 833 860 892 839 q 703 881 775 881 q 556 853 617 881 q 443 763 494 826 q 370 609 396 700 q 344 418 344 518 q 358 288 347 347 q 391 178 369 229 q 446 81 413 128 q 526 -14 479 33 l 504 -100 l 168 -100 l 186 -40 l 444 -40 q 360 75 393 19 q 309 187 328 131 q 283 303 290 243 q 276 433 276 364 q 308 651 276 554 q 396 815 339 747 q 533 920 453 883 q 710 957 613 957 q 866 930 796 957 q 985 853 936 903 q 1061 732 1035 803 q 1088 575 1088 661 q 1047 351 1088 460 q 928 156 1006 243 q 804 48 872 99 q 643 -40 736 -3 l 944 -40 l 931 -100 z "},"α":{"ha":896,"x_min":69,"x_max":811,"o":"m 699 35 q 676 -51 688 -15 q 643 -61 657 -58 q 617 -64 629 -64 q 578 -58 593 -64 q 554 -33 563 -51 q 542 17 546 -15 q 536 101 538 50 q 497 56 521 85 q 438 -3 472 26 q 360 -53 404 -32 q 264 -74 317 -74 q 184 -56 219 -74 q 123 -4 149 -37 q 83 75 97 29 q 69 176 69 121 q 96 355 69 265 q 169 516 122 444 q 282 632 217 588 q 424 676 347 676 q 558 614 517 676 q 600 429 600 551 q 599 354 600 393 q 596 267 597 315 q 663 410 624 318 q 736 635 701 501 q 774 618 756 626 q 811 600 792 610 q 761 465 785 524 q 713 358 738 407 q 660 262 688 308 q 597 161 632 215 q 599 94 597 119 q 608 53 601 68 q 624 32 614 38 q 650 26 635 26 q 677 28 669 26 q 699 35 685 29 m 440 72 q 495 133 471 101 q 539 193 519 165 q 540 350 540 279 q 529 471 540 421 q 491 549 518 521 q 413 576 464 576 q 298 542 350 576 q 201 428 246 507 q 150 311 168 368 q 132 193 132 254 q 140 124 132 160 q 165 60 147 89 q 210 13 182 32 q 278 -6 238 -6 q 362 13 325 -6 q 440 72 399 31 z "},"β":{"ha":896,"x_min":21,"x_max":765,"o":"m 21 -240 q 147 209 85 -12 q 271 654 208 431 q 380 865 311 797 q 551 932 449 932 q 708 878 650 932 q 765 731 765 825 q 707 566 765 633 q 546 486 649 499 q 592 469 565 483 q 642 428 618 456 q 682 357 665 400 q 699 253 699 314 q 674 121 699 182 q 608 15 650 60 q 510 -57 565 -31 q 392 -83 454 -83 q 328 -72 360 -83 q 268 -40 296 -60 q 217 6 240 -21 q 176 60 193 32 q 138 -85 157 -10 q 96 -240 119 -161 l 21 -240 m 403 463 q 406 490 404 478 q 410 519 408 503 l 453 519 q 553 538 508 519 q 631 585 599 556 q 680 653 663 615 q 697 728 697 690 q 655 828 697 790 q 551 865 613 865 q 421 807 471 865 q 339 636 371 749 q 264 370 300 501 q 190 107 228 239 q 276 3 231 33 q 388 -26 321 -26 q 483 -5 439 -26 q 558 55 526 17 q 608 144 590 93 q 626 256 626 196 q 577 406 626 350 q 444 463 528 463 l 403 463 z "},"γ":{"ha":896,"x_min":117,"x_max":801,"o":"m 367 -79 l 293 -79 l 360 257 q 377 370 371 319 q 383 451 383 421 q 344 560 383 524 q 231 597 304 597 q 180 588 206 597 q 133 563 154 578 l 117 644 q 167 672 133 663 q 229 681 200 681 q 367 630 313 681 q 431 488 421 579 q 524 612 461 572 q 661 651 586 651 q 740 647 706 651 q 801 626 774 642 l 767 539 q 715 559 740 553 q 649 565 689 565 q 546 547 585 565 q 481 476 507 528 q 465 442 471 458 q 453 404 458 426 q 440 351 447 382 q 424 274 433 321 l 367 -79 z "},"δ":{"ha":896,"x_min":96,"x_max":826,"o":"m 826 904 l 814 846 q 717 864 768 858 q 618 868 667 869 q 528 859 569 867 q 463 840 488 851 q 444 828 449 833 q 440 810 440 824 q 449 790 440 801 q 476 756 457 779 q 530 691 496 732 q 617 583 564 650 q 706 346 706 469 q 684 203 706 271 q 625 78 663 135 q 494 -44 567 -4 q 324 -83 422 -83 q 157 -24 218 -83 q 96 140 96 36 q 106 238 96 188 q 135 337 117 289 q 181 426 154 385 q 239 496 207 467 q 338 561 276 536 q 460 586 399 586 q 501 585 471 586 q 556 576 532 583 q 486 655 522 614 q 421 732 450 696 q 373 797 392 768 q 354 839 354 825 q 376 870 354 854 q 437 899 397 886 q 534 921 476 913 q 664 929 592 929 q 747 923 708 929 q 826 904 786 917 m 464 533 q 274 442 344 533 q 226 369 247 408 q 191 291 206 331 q 168 212 176 251 q 160 139 160 172 q 206 20 160 64 q 324 -24 251 -24 q 448 13 392 -24 q 546 106 504 50 q 612 231 588 163 q 639 364 636 300 q 593 490 639 446 q 464 533 547 533 z "},"ε":{"ha":896,"x_min":104,"x_max":785,"o":"m 785 636 l 756 585 q 688 606 718 597 q 629 620 657 615 q 574 628 601 625 q 515 631 547 631 q 443 621 476 631 q 385 592 410 611 q 347 548 361 574 q 333 492 333 522 q 377 405 333 435 q 488 375 421 375 l 647 375 l 624 321 l 513 321 q 383 308 442 321 q 282 268 325 294 q 215 204 239 242 q 192 119 192 167 q 245 8 192 43 q 394 -28 299 -28 q 500 -17 443 -28 q 640 24 557 -6 l 615 -42 q 551 -64 581 -56 q 494 -77 522 -72 q 438 -83 465 -82 q 378 -85 410 -85 q 263 -73 306 -85 q 183 -37 219 -61 q 126 27 147 -14 q 104 113 104 68 q 122 191 104 153 q 172 262 139 229 q 254 318 206 294 q 365 351 303 342 q 319 373 340 357 q 283 410 299 389 q 260 453 268 431 q 251 494 251 475 q 274 569 251 533 q 333 631 296 604 q 422 673 371 657 q 532 689 474 689 q 590 686 563 689 q 648 677 618 683 q 710 661 678 671 q 785 636 743 651 z "},"ζ":{"ha":896,"x_min":131,"x_max":764,"o":"m 246 825 l 271 888 l 590 888 q 669 899 643 888 q 710 928 694 910 q 756 867 742 886 q 764 838 769 847 q 733 826 760 831 q 669 821 706 821 q 576 695 626 764 q 476 561 525 626 q 383 441 426 496 q 315 357 340 386 q 288 322 310 350 q 242 258 267 294 q 199 185 218 222 q 181 121 181 147 q 217 51 181 71 q 325 29 253 32 q 465 15 407 25 q 560 -14 524 6 q 615 -65 597 -33 q 633 -143 632 -96 q 584 -276 636 -231 q 436 -321 532 -321 q 404 -320 421 -321 q 354 -312 388 -319 l 374 -254 q 435 -258 401 -257 q 498 -253 469 -260 q 544 -225 526 -246 q 560 -162 563 -204 q 519 -85 560 -114 q 426 -51 479 -57 q 383 -48 408 -50 q 334 -43 358 -46 q 290 -38 310 -40 q 261 -33 269 -36 q 161 13 192 -18 q 131 108 131 43 q 135 149 131 128 q 151 196 139 169 q 185 257 164 222 q 243 338 207 292 q 340 464 293 403 q 434 584 388 525 q 527 703 481 643 q 622 825 574 763 l 246 825 z "},"η":{"ha":896,"x_min":121,"x_max":749,"o":"m 639 -153 l 565 -153 l 669 435 q 649 558 682 514 q 526 603 617 603 q 434 588 478 603 q 356 546 390 572 q 297 483 321 519 q 265 404 274 447 l 192 6 l 121 6 l 233 656 l 306 656 l 288 535 q 410 642 340 611 q 549 672 479 672 q 642 658 601 675 q 710 612 683 642 q 747 542 736 582 q 749 456 757 501 l 639 -153 z "},"θ":{"ha":896,"x_min":126,"x_max":778,"o":"m 778 674 q 764 527 778 607 q 725 366 750 447 q 666 208 700 285 q 592 71 632 132 q 478 -48 539 -10 q 344 -86 418 -86 q 126 171 126 -86 q 139 328 126 246 q 174 490 151 410 q 228 642 196 569 q 297 772 260 715 q 411 889 340 847 q 557 931 482 931 q 722 866 665 931 q 778 674 778 801 m 232 435 l 669 435 q 701 569 690 504 q 713 674 713 635 q 672 815 713 767 q 557 863 632 863 q 453 836 501 863 q 360 751 404 810 q 323 694 340 724 q 289 628 306 665 q 258 544 272 592 q 232 435 243 497 m 660 381 l 222 381 q 201 263 206 314 q 196 161 196 211 q 232 24 196 65 q 347 -18 268 -18 q 428 -2 390 -18 q 502 53 467 14 q 571 159 538 93 q 640 324 604 225 l 660 381 z "},"ι":{"ha":578,"x_min":146,"x_max":397,"o":"m 331 653 l 397 653 l 254 114 q 238 44 242 72 q 242 0 233 17 q 274 -23 250 -17 q 340 -29 297 -29 q 356 -29 349 -29 q 372 -26 363 -29 l 360 -82 l 218 -82 q 150 -51 165 -82 q 146 24 135 -19 l 331 653 z "},"κ":{"ha":896,"x_min":93,"x_max":821,"o":"m 675 -78 l 581 -78 l 256 292 l 172 -78 l 93 -78 l 279 679 l 356 679 l 278 371 l 726 679 l 821 679 l 311 324 l 675 -78 z "},"λ":{"ha":896,"x_min":33,"x_max":800,"o":"m 311 881 l 347 933 q 454 862 410 906 q 531 758 499 818 q 584 622 563 699 q 625 454 606 546 q 651 324 638 392 q 685 188 665 256 q 732 59 704 121 q 800 -53 760 -3 l 738 -89 q 660 46 689 -33 q 610 211 631 125 q 575 384 590 297 q 540 543 560 471 q 438 460 479 525 q 346 285 396 394 q 225 60 288 158 q 90 -89 163 -39 l 33 -29 q 106 26 72 -4 q 173 103 139 57 q 245 219 207 150 q 331 392 283 289 q 369 469 351 436 q 408 528 388 503 q 455 574 429 554 q 517 611 481 594 q 474 717 494 674 q 431 790 454 760 q 379 840 408 819 q 311 881 350 861 z "},"μ":{"ha":896,"x_min":92,"x_max":781,"o":"m 781 650 l 682 99 q 681 65 679 82 q 690 33 682 47 q 715 10 699 19 q 760 0 732 1 l 756 -57 q 665 -37 701 -58 q 622 35 628 -15 q 539 -44 600 -14 q 399 -75 478 -75 q 324 -63 358 -75 q 263 -34 289 -51 q 223 4 238 -17 q 208 43 208 25 l 161 -169 l 92 -169 l 260 650 l 326 650 l 249 251 q 242 210 244 229 q 239 169 239 192 q 247 97 239 129 q 275 43 256 65 q 326 9 294 21 q 404 -3 357 -3 q 556 53 496 -3 q 636 218 617 110 l 713 650 l 781 650 z "},"ν":{"ha":896,"x_min":46,"x_max":840,"o":"m 840 669 l 829 597 q 815 600 819 600 q 807 600 810 600 q 739 559 771 599 q 682 453 707 519 q 640 331 661 400 q 592 193 619 263 q 556 102 575 151 q 512 11 538 53 q 453 -58 486 -31 q 378 -85 421 -86 q 333 -66 350 -83 q 308 -13 317 -49 q 294 76 299 22 q 289 206 290 131 q 248 504 282 411 q 161 594 214 597 q 75 540 114 592 l 46 600 q 103 647 71 628 q 175 665 136 665 q 246 640 214 665 q 301 557 278 614 q 339 410 325 500 q 357 193 353 321 q 362 82 360 122 q 368 22 364 42 q 379 -3 372 1 q 399 -8 386 -8 q 454 43 425 -8 q 514 172 483 94 q 576 341 544 250 q 639 513 607 432 q 716 630 667 585 q 840 669 765 675 z "},"ξ":{"ha":896,"x_min":147,"x_max":794,"o":"m 639 411 l 547 411 q 422 395 482 411 q 317 348 363 379 q 245 272 272 317 q 218 171 218 228 q 226 108 218 132 q 253 69 235 85 q 299 46 271 54 q 367 29 328 38 q 557 -32 503 10 q 611 -142 611 -74 q 560 -272 611 -225 q 415 -319 510 -319 q 365 -314 390 -319 q 322 -303 339 -308 l 342 -240 q 394 -253 372 -250 q 440 -256 413 -256 q 492 -248 467 -256 q 537 -222 518 -240 q 556 -169 556 -204 q 517 -94 556 -126 q 404 -46 479 -61 q 396 -45 404 -47 q 382 -42 388 -43 q 342 -35 364 -39 q 296 -25 319 -31 q 251 -12 272 -19 q 213 7 229 -4 q 164 71 181 31 q 147 157 147 111 q 228 342 147 264 q 460 447 310 421 q 409 474 432 456 q 369 517 386 493 q 344 566 353 540 q 335 615 335 592 q 351 686 335 651 q 399 751 368 721 q 470 803 429 781 q 560 839 511 826 l 350 839 q 353 853 353 846 q 354 864 353 860 q 357 883 356 874 q 358 899 358 892 l 656 899 q 711 915 683 899 q 750 947 739 932 q 788 885 772 913 q 794 844 804 857 q 767 837 789 838 q 722 836 746 836 q 690 836 706 836 q 664 833 675 836 q 572 808 619 826 q 484 763 524 790 q 419 702 444 736 q 393 631 393 668 q 408 558 393 589 q 447 507 422 526 q 506 478 472 488 q 579 468 540 468 l 656 468 l 639 411 z "},"ο":{"ha":896,"x_min":129,"x_max":756,"o":"m 511 672 q 694 610 632 672 q 756 425 756 547 q 744 315 756 371 q 713 207 733 260 q 665 105 693 154 q 604 17 638 56 q 500 -53 560 -28 q 365 -78 440 -78 q 270 -60 314 -78 q 195 -10 226 -43 q 147 69 164 22 q 129 178 129 117 q 144 299 129 236 q 187 421 160 363 q 250 528 214 479 q 328 607 286 578 q 414 656 364 639 q 511 672 464 672 m 514 618 q 369 572 429 618 q 264 431 308 526 q 216 298 235 372 q 197 161 197 224 q 247 28 197 74 q 382 -17 296 -17 q 519 25 461 -17 q 626 160 576 67 q 655 224 642 189 q 678 297 668 260 q 693 369 688 333 q 699 435 699 404 q 651 570 699 522 q 514 618 604 618 z "},"π":{"ha":896,"x_min":81,"x_max":833,"o":"m 135 -62 q 108 -39 121 -49 q 81 -17 96 -29 q 158 120 128 47 q 209 272 189 193 q 240 431 229 350 q 258 590 251 511 l 138 590 l 149 649 l 833 649 l 819 590 l 707 590 q 666 410 681 488 q 644 278 651 332 q 636 192 638 224 q 635 153 635 161 q 642 79 635 111 q 660 22 649 47 q 688 -24 672 -3 q 722 -62 704 -44 l 661 -82 q 616 -26 633 -57 q 590 35 599 6 q 577 90 581 65 q 574 129 574 115 q 577 204 574 164 q 588 298 581 244 q 608 422 596 351 q 640 590 621 493 l 319 590 q 298 424 310 507 q 267 258 286 340 q 215 96 247 176 q 135 -62 183 15 z "},"ρ":{"ha":896,"x_min":68,"x_max":756,"o":"m 68 -172 l 232 442 q 272 540 244 496 q 338 615 300 585 q 424 663 376 646 q 526 679 472 679 q 697 615 639 679 q 756 429 756 550 q 728 255 756 336 q 654 113 700 174 q 548 18 608 53 q 422 -17 488 -17 q 292 27 344 -17 q 219 139 239 71 l 139 -172 l 68 -172 m 296 433 l 244 232 q 290 101 246 149 q 413 53 333 53 q 517 85 468 53 q 604 171 567 118 q 663 292 642 224 q 685 433 685 361 q 642 565 685 521 q 517 608 599 608 q 374 563 433 608 q 296 433 315 517 z "},"σ":{"ha":896,"x_min":122,"x_max":704,"o":"m 322 528 q 269 453 293 494 q 226 365 244 411 q 199 270 208 318 q 189 178 189 222 q 224 42 189 92 q 338 -7 260 -7 q 442 26 393 -7 q 529 115 492 60 q 588 240 567 169 q 610 385 610 310 q 572 531 610 479 q 460 582 533 582 q 385 567 424 582 q 322 528 347 551 m 675 769 q 690 740 683 754 q 704 710 697 725 q 601 676 656 697 q 510 638 546 656 q 628 567 581 628 q 676 407 676 507 q 647 221 676 308 q 571 68 618 133 q 463 -35 524 3 q 339 -74 401 -74 q 183 -6 243 -74 q 122 192 122 61 q 158 396 122 300 q 264 564 193 492 q 340 622 292 593 q 444 677 388 651 q 562 726 501 703 q 675 769 622 750 z "},"τ":{"ha":896,"x_min":151,"x_max":751,"o":"m 751 639 l 739 581 q 676 570 710 572 q 606 569 642 568 q 535 574 569 571 q 469 582 500 578 l 374 42 q 367 2 369 17 q 379 -18 365 -12 q 449 -26 403 -28 q 540 -15 496 -24 l 536 -65 q 468 -77 507 -72 q 393 -79 429 -82 q 336 -63 358 -76 q 307 -21 314 -50 q 306 4 304 -6 q 311 39 307 14 l 408 585 q 291 591 360 592 q 151 568 222 590 l 160 625 q 306 652 231 651 q 458 643 382 653 q 521 635 483 640 q 599 628 558 631 q 680 627 640 625 q 751 639 719 629 z "},"υ":{"ha":896,"x_min":113,"x_max":756,"o":"m 658 632 l 722 658 q 756 547 756 617 q 738 419 756 496 q 681 228 719 343 q 615 75 647 135 q 543 -19 583 15 q 451 -67 503 -54 q 325 -81 399 -81 q 163 -52 214 -81 q 113 33 113 -24 q 116 69 113 49 q 125 112 119 90 q 137 153 131 133 q 149 189 143 174 q 197 344 174 268 q 235 501 219 419 q 231 564 242 540 q 200 597 219 588 l 253 643 q 292 598 276 625 q 304 536 307 571 q 289 442 303 501 q 258 320 275 382 q 226 208 242 258 q 207 142 211 158 q 189 76 194 97 q 185 32 183 54 q 198 7 185 17 q 231 -8 211 -3 q 274 -16 250 -14 q 322 -18 299 -18 q 398 -14 365 -18 q 456 -1 431 -10 q 500 24 481 8 q 535 61 519 39 q 573 128 554 88 q 609 217 592 169 q 641 315 626 265 q 666 409 656 364 q 681 491 676 454 q 685 547 686 528 q 676 602 685 583 q 658 632 667 621 z "},"φ":{"ha":896,"x_min":13,"x_max":875,"o":"m 314 -197 l 246 -197 l 306 1 q 85 78 158 13 q 13 260 13 144 q 103 531 13 419 q 356 686 194 642 l 365 625 q 301 599 328 611 q 251 572 274 586 q 209 543 228 558 q 169 508 190 528 q 108 401 129 458 q 86 272 86 344 q 141 115 86 165 q 319 51 196 64 l 454 510 q 490 581 467 549 q 541 635 513 613 q 603 672 569 658 q 672 685 636 685 q 819 615 764 685 q 875 426 875 546 q 844 249 875 328 q 754 114 813 169 q 613 29 696 58 q 424 0 529 0 l 376 0 l 314 -197 m 517 461 l 390 50 q 488 54 444 50 q 565 68 531 58 q 629 94 600 78 q 686 132 658 110 q 735 192 713 157 q 772 268 757 228 q 797 352 788 308 q 806 438 806 396 q 773 572 806 525 q 676 619 740 619 q 619 606 644 619 q 575 571 594 593 q 541 520 556 549 q 517 461 526 492 z "},"χ":{"ha":896,"x_min":83,"x_max":749,"o":"m 749 650 l 481 314 q 552 139 519 222 q 617 1 585 56 q 640 -19 625 -11 q 673 -29 656 -26 q 708 -33 690 -32 q 739 -33 726 -33 l 732 -79 l 690 -79 q 631 -74 654 -79 q 590 -59 607 -69 q 563 -34 574 -49 q 544 1 553 -19 q 485 135 513 67 q 429 265 457 203 l 165 -79 l 83 -79 l 408 313 q 357 426 383 371 q 303 540 331 482 q 276 576 292 564 q 241 594 260 589 q 201 600 222 600 q 161 600 181 600 l 153 650 l 236 650 q 308 635 276 650 q 354 590 339 621 l 457 365 l 676 650 l 749 650 z "},"ψ":{"ha":896,"x_min":18,"x_max":875,"o":"m 179 647 l 226 601 q 180 547 194 572 q 151 486 165 521 q 125 408 138 453 q 103 317 113 364 q 88 225 93 269 q 82 146 82 181 q 92 78 82 110 q 125 28 101 46 q 193 0 154 7 q 288 -7 232 -7 l 347 -7 q 424 370 386 179 q 503 754 463 561 l 568 754 q 489 369 528 560 q 413 -8 450 178 q 508 0 467 -6 q 580 15 549 6 q 636 37 611 24 q 685 68 661 50 q 810 529 810 181 q 808 577 810 561 q 800 607 806 593 l 861 624 q 872 577 868 607 q 875 483 875 547 q 869 385 875 436 q 854 285 864 335 q 833 193 844 236 q 807 117 821 150 q 723 13 776 56 q 590 -51 669 -29 q 508 -67 560 -60 q 403 -78 457 -74 q 391 -133 397 -103 q 378 -192 385 -162 l 307 -192 q 321 -131 314 -160 q 333 -78 328 -101 q 249 -76 285 -78 q 188 -69 214 -74 q 142 -59 161 -65 q 107 -44 124 -53 q 42 25 65 -21 q 18 140 18 71 q 26 244 18 186 q 47 360 33 301 q 78 471 61 418 q 117 561 96 524 q 145 607 131 588 q 179 647 160 626 z "},"ω":{"ha":896,"x_min":21,"x_max":875,"o":"m 742 674 l 815 674 q 860 522 844 588 q 875 392 875 457 q 850 203 875 290 q 783 51 825 115 q 685 -49 740 -12 q 568 -85 629 -85 q 501 -72 535 -85 q 440 -39 467 -60 q 397 11 413 -18 q 388 74 382 40 q 358 19 378 46 q 314 -28 339 -7 q 258 -63 289 -50 q 197 -76 228 -76 q 72 -11 122 -76 q 21 178 21 54 q 78 406 21 288 q 264 674 135 525 l 346 674 q 235 548 285 613 q 151 418 186 483 q 99 290 117 353 q 81 169 81 226 q 114 38 81 86 q 214 -11 147 -11 q 260 3 238 -11 q 303 40 283 17 q 340 93 324 64 q 367 154 356 122 l 483 517 l 550 517 l 449 179 q 438 110 436 146 q 453 45 439 75 q 493 -3 467 15 q 558 -22 519 -22 q 662 10 615 -22 q 741 96 708 42 q 792 223 774 150 q 810 378 810 296 q 792 526 810 457 q 742 674 774 594 z "},"Ё":{"ha":1239,"x_min":285,"x_max":953,"o":"m 953 713 l 353 713 l 353 407 l 886 407 l 886 332 l 353 332 l 353 -28 l 953 -28 l 953 -94 l 285 -94 l 285 779 l 953 779 l 953 713 m 696 926 q 717 977 696 958 q 765 996 738 996 q 809 977 788 996 q 831 926 831 958 q 808 876 831 897 q 756 856 786 856 q 716 876 736 856 q 696 926 696 897 m 417 926 q 440 977 417 958 q 489 996 463 996 q 535 977 513 996 q 557 926 557 958 q 535 876 557 897 q 489 856 514 856 q 440 876 464 856 q 417 926 417 896 z "},"А":{"ha":1239,"x_min":200,"x_max":1031,"o":"m 838 239 l 397 239 l 275 -90 l 200 -90 l 579 942 l 667 942 l 1031 -90 l 960 -90 l 838 239 m 819 297 l 619 874 l 414 297 l 819 297 z "},"Б":{"ha":1239,"x_min":296,"x_max":951,"o":"m 789 875 l 361 875 l 361 500 l 617 500 q 863 425 774 500 q 951 193 951 350 q 624 -97 951 -97 l 296 -97 l 296 940 l 818 940 l 892 844 l 846 806 l 789 875 m 614 432 l 361 432 l 361 -32 l 625 -32 q 822 24 758 -32 q 885 190 885 81 q 820 374 885 317 q 614 432 756 432 z "},"В":{"ha":1239,"x_min":282,"x_max":989,"o":"m 650 942 q 769 929 715 942 q 863 888 824 917 q 925 809 903 858 q 947 686 947 760 q 910 541 947 597 q 794 456 872 485 q 935 367 881 438 q 989 193 989 296 q 913 -24 989 49 q 681 -97 838 -97 l 282 -97 l 282 942 l 650 942 m 688 872 l 350 872 l 350 492 l 689 492 q 832 545 779 492 q 885 689 885 599 q 833 824 885 776 q 688 872 781 872 m 350 -29 l 675 -29 q 800 -16 754 -29 q 883 33 846 -3 q 904 64 896 46 q 917 103 913 82 q 924 145 922 124 q 926 185 926 167 q 908 281 926 238 q 857 356 890 325 q 778 405 824 388 q 679 422 733 422 l 350 422 l 350 -29 z "},"Г":{"ha":1239,"x_min":324,"x_max":992,"o":"m 942 788 l 894 861 l 482 861 l 482 -87 l 418 -87 l 418 861 l 324 861 l 324 928 l 922 928 l 992 819 l 942 788 z "},"Д":{"ha":1239,"x_min":213,"x_max":986,"o":"m 936 -181 q 885 -126 910 -150 q 835 -74 860 -101 l 369 -74 q 315 -144 340 -118 q 257 -186 289 -169 q 235 -153 246 -169 q 213 -121 224 -137 q 278 -78 251 -101 q 320 -18 304 -54 q 344 71 336 18 q 356 200 351 124 q 356 234 356 217 q 356 279 356 251 q 357 351 357 307 q 358 463 357 394 q 358 629 358 531 q 358 865 358 728 l 306 865 l 306 929 l 951 929 l 951 865 l 894 865 l 894 -28 q 940 -76 917 -51 q 986 -128 963 -100 l 936 -181 m 417 865 l 417 332 q 416 251 417 294 q 413 161 415 207 q 403 70 410 115 q 386 -15 397 25 l 838 -15 l 838 865 l 417 865 z "},"Е":{"ha":1239,"x_min":286,"x_max":953,"o":"m 953 933 l 953 864 l 356 864 l 356 479 l 885 479 l 885 414 l 356 414 l 356 -25 l 953 -25 l 953 -94 l 286 -94 l 286 933 l 953 933 z "},"Ж":{"ha":1239,"x_min":151,"x_max":1085,"o":"m 185 142 q 251 419 189 353 q 385 471 294 468 q 335 542 353 490 q 310 668 317 593 q 292 763 301 725 q 266 824 282 801 q 224 858 250 847 q 160 872 199 869 l 160 943 q 248 926 211 939 q 309 885 285 913 q 348 813 333 857 q 371 703 363 768 q 392 589 381 633 q 426 519 404 544 q 486 486 449 494 q 586 479 524 478 l 586 943 l 643 943 l 643 479 q 735 483 697 479 q 798 508 772 486 q 840 576 824 529 q 867 711 856 624 q 899 837 879 792 q 944 905 918 882 q 1006 934 971 928 q 1082 943 1040 940 l 1082 872 q 1015 860 1042 869 q 969 826 988 851 q 939 754 951 800 q 917 632 926 708 q 905 560 914 590 q 885 510 896 529 q 864 481 874 490 q 851 469 854 471 q 949 447 910 467 q 1015 378 988 426 q 1047 267 1042 335 q 1056 126 1053 200 q 1060 47 1057 81 q 1066 -14 1063 13 q 1074 -60 1069 -40 q 1085 -97 1078 -79 l 1024 -97 q 1007 -20 1015 -71 q 993 128 999 31 q 991 165 992 142 q 988 213 990 188 q 983 261 986 238 q 975 301 981 285 q 953 353 965 332 q 921 389 940 375 q 873 409 901 403 q 804 415 844 415 l 643 415 l 643 -97 l 586 -97 l 586 415 l 404 415 q 330 401 360 415 q 281 353 300 386 q 253 265 263 319 q 242 133 244 211 q 236 37 239 75 q 230 -27 233 -1 q 223 -69 226 -53 q 215 -97 219 -85 l 151 -97 q 165 -62 160 -81 q 173 -19 169 -44 q 179 45 176 7 q 185 142 182 83 z "},"З":{"ha":1239,"x_min":260,"x_max":957,"o":"m 607 939 q 735 920 678 939 q 834 868 793 901 q 898 789 875 835 q 921 689 921 743 q 883 547 921 608 q 779 449 846 485 q 913 351 869 417 q 957 200 957 285 q 873 -16 957 58 q 632 -90 789 -90 q 447 -56 521 -90 q 321 47 372 -22 q 285 131 300 88 q 268 240 271 174 l 325 240 q 333 179 328 204 q 344 134 338 154 q 363 98 351 114 q 389 64 374 82 q 492 -5 432 17 q 632 -26 553 -26 q 823 26 758 -26 q 888 186 888 79 q 819 346 888 290 q 624 401 750 401 l 575 401 l 575 471 l 624 471 q 788 530 728 471 q 847 689 847 589 q 783 831 847 783 q 607 878 719 878 q 409 817 483 878 q 293 624 335 756 l 260 624 l 260 767 l 292 756 q 427 894 350 850 q 607 939 504 939 z "},"И":{"ha":1239,"x_min":278,"x_max":965,"o":"m 911 -90 l 911 867 l 906 867 l 351 -90 l 278 -90 l 278 939 l 333 939 l 333 0 l 335 0 q 336 -1 336 0 q 338 -1 336 -1 l 883 939 l 965 939 l 965 -90 l 911 -90 z "},"Й":{"ha":1239,"x_min":271,"x_max":964,"o":"m 903 -90 l 903 675 l 900 675 l 336 -90 l 271 -90 l 271 753 l 329 753 l 329 -8 q 335 -11 329 -8 l 886 753 l 964 753 l 964 -90 l 903 -90 m 614 826 q 563 833 589 826 q 513 859 538 840 q 469 910 489 878 q 439 993 450 943 l 497 993 q 540 913 508 944 q 619 881 571 881 q 697 911 665 881 q 744 993 729 942 l 796 993 q 763 910 783 943 q 719 859 743 878 q 667 833 694 840 q 614 826 640 826 z "},"К":{"ha":1239,"x_min":332,"x_max":1018,"o":"m 389 482 l 532 482 q 627 496 592 482 q 683 536 663 510 q 715 601 704 563 q 736 688 725 639 q 758 782 747 738 q 794 860 769 826 q 860 915 818 894 q 974 935 901 935 q 974 902 974 917 q 975 869 975 888 q 906 862 935 869 q 857 837 878 854 q 822 790 836 819 q 799 715 808 760 q 773 613 783 653 q 751 546 763 572 q 727 501 740 519 q 693 467 714 483 q 853 190 772 328 q 1018 -92 935 51 l 960 -92 q 804 174 881 43 q 653 438 728 306 q 596 419 619 422 q 544 415 572 415 l 389 415 l 389 -92 l 332 -92 l 332 936 l 389 936 l 389 482 z "},"Л":{"ha":1239,"x_min":183,"x_max":990,"o":"m 883 -76 l 826 -76 l 826 868 l 431 868 q 426 731 428 799 q 421 585 424 664 q 403 261 414 389 q 368 56 392 133 q 305 -56 344 -21 q 201 -106 265 -92 q 192 -69 196 -86 q 183 -33 189 -53 q 246 -16 221 -28 q 289 24 271 -4 q 319 100 307 53 q 339 224 331 147 q 349 342 344 271 q 358 499 354 414 q 367 679 363 585 q 374 868 371 774 l 279 868 l 279 932 l 990 932 l 990 868 l 883 868 l 883 -76 z "},"М":{"ha":1239,"x_min":146,"x_max":1111,"o":"m 390 931 l 622 17 l 626 17 l 863 931 l 957 931 l 1111 -86 l 1051 -86 l 911 835 l 903 835 l 661 -86 l 588 -86 l 353 835 l 344 833 l 207 -86 l 146 -86 l 294 931 l 390 931 z "},"Н":{"ha":1239,"x_min":265,"x_max":968,"o":"m 328 494 l 906 494 l 906 943 l 968 943 l 968 -94 l 906 -94 l 906 436 l 328 436 l 328 -94 l 265 -94 l 265 943 l 328 943 l 328 494 z "},"О":{"ha":1239,"x_min":254,"x_max":993,"o":"m 619 -86 q 468 -51 536 -86 q 353 49 400 -17 q 280 208 306 114 q 254 421 254 301 q 350 804 254 672 q 619 936 446 936 q 774 901 706 936 q 892 801 843 867 q 967 640 940 736 q 993 422 993 544 q 967 208 993 303 q 892 49 940 114 q 774 -51 843 -17 q 619 -86 704 -86 m 624 -15 q 753 15 697 -15 q 847 103 810 46 q 904 241 885 160 q 924 424 924 322 q 905 608 924 526 q 849 748 886 690 q 755 837 811 806 q 624 868 699 868 q 493 837 550 868 q 398 747 436 806 q 340 606 360 689 q 319 422 319 524 q 340 243 319 324 q 398 105 360 163 q 493 16 436 47 q 624 -15 550 -15 z "},"П":{"ha":1239,"x_min":228,"x_max":999,"o":"m 999 864 l 889 864 l 889 -90 l 833 -90 l 833 864 l 400 864 l 400 -90 l 344 -90 l 344 864 l 228 864 l 228 933 l 999 933 l 999 864 z "},"Р":{"ha":1239,"x_min":293,"x_max":967,"o":"m 293 -89 l 293 938 l 678 936 q 894 865 821 936 q 967 654 967 793 q 678 376 967 376 l 351 375 l 351 -89 l 293 -89 m 679 871 l 351 871 l 351 433 l 678 433 q 848 490 790 433 q 906 651 906 546 q 679 871 906 871 z "},"С":{"ha":1239,"x_min":260,"x_max":992,"o":"m 901 715 q 799 826 865 788 q 647 865 732 865 q 507 835 568 865 q 403 750 446 806 q 339 615 361 694 q 317 436 317 535 q 345 228 317 324 q 422 75 374 133 q 517 8 467 29 q 635 -14 567 -14 q 768 15 706 -14 q 865 97 831 44 q 910 175 896 138 q 931 275 924 213 l 990 275 q 960 145 978 200 q 907 47 943 90 q 788 -44 860 -11 q 636 -78 715 -78 q 483 -42 553 -78 q 364 59 414 -7 q 287 219 314 125 q 260 431 260 313 q 288 634 260 543 q 367 790 317 725 q 490 890 418 854 q 649 925 561 925 q 832 878 753 925 q 950 758 911 831 q 979 683 969 721 q 992 597 989 646 l 932 597 q 919 665 925 640 q 901 715 914 689 z "},"Т":{"ha":1239,"x_min":271,"x_max":967,"o":"m 271 865 l 271 933 l 967 933 l 967 865 l 653 865 l 653 -90 l 586 -90 l 586 865 l 271 865 z "},"У":{"ha":1239,"x_min":268,"x_max":929,"o":"m 858 938 l 929 938 q 769 509 847 722 q 611 85 690 296 q 590 26 600 56 q 564 -26 579 -3 q 524 -65 549 -50 q 461 -79 500 -79 q 419 -74 439 -79 q 379 -61 399 -69 l 379 17 q 418 5 401 10 q 453 0 435 0 q 506 17 489 0 q 539 78 522 33 l 597 238 q 433 584 514 408 q 268 938 353 760 l 338 938 q 485 618 413 776 q 628 308 558 460 q 742 618 683 460 q 858 938 800 776 z "},"Ф":{"ha":1239,"x_min":183,"x_max":1053,"o":"m 183 417 q 193 517 183 468 q 222 611 203 567 q 267 692 240 656 q 326 753 293 728 q 379 788 353 774 q 435 814 406 803 q 502 831 465 825 q 585 842 539 838 l 585 933 l 650 933 l 650 840 q 740 833 700 839 q 814 815 781 826 q 875 787 847 804 q 929 747 903 769 q 1020 610 988 696 q 1053 421 1053 524 q 1017 233 1053 317 q 921 101 981 150 q 799 33 864 54 q 650 10 733 13 l 650 -86 l 585 -86 l 585 10 q 444 34 517 13 q 315 104 372 56 q 218 238 253 157 q 183 417 183 319 m 651 778 l 651 71 q 805 100 740 74 q 911 173 869 126 q 973 283 953 219 q 993 426 993 347 q 909 688 993 599 q 651 778 825 776 m 244 426 l 244 414 q 267 281 244 342 q 334 174 290 219 q 441 101 378 128 q 586 71 504 74 l 586 776 q 431 747 496 776 q 325 670 367 718 q 264 558 283 622 q 244 426 244 494 z "},"Х":{"ha":1239,"x_min":232,"x_max":997,"o":"m 306 -89 l 232 -89 l 574 438 l 254 939 l 324 939 l 617 496 l 904 939 l 978 939 l 654 440 l 997 -89 l 921 -89 l 617 386 l 306 -89 z "},"Ц":{"ha":1239,"x_min":238,"x_max":994,"o":"m 333 938 l 393 938 l 393 -21 l 832 -21 l 832 938 l 896 938 l 896 -21 l 994 -133 l 936 -185 l 847 -85 l 238 -85 l 238 -21 l 333 -21 l 333 938 z "},"Ч":{"ha":1239,"x_min":281,"x_max":875,"o":"m 367 413 q 440 352 393 372 q 550 332 488 332 q 755 402 690 332 q 819 621 819 472 l 819 932 l 875 932 l 875 -89 l 819 -89 l 819 411 q 710 304 783 338 q 550 271 638 271 q 404 297 460 271 q 317 376 349 324 q 299 413 306 393 q 288 459 292 432 q 282 522 283 486 q 281 611 281 558 l 281 932 l 336 932 l 336 593 q 343 490 336 535 q 367 413 350 444 z "},"Ш":{"ha":1239,"x_min":169,"x_max":1060,"o":"m 265 938 l 321 938 l 321 -25 l 590 -25 l 590 938 l 649 938 l 649 -25 l 911 -25 l 911 938 l 967 938 l 967 -25 l 1060 -25 l 1060 -87 l 169 -87 l 169 -25 l 265 -25 l 265 938 z "},"Щ":{"ha":1239,"x_min":158,"x_max":1053,"o":"m 293 940 l 293 -21 l 589 -21 l 589 940 l 647 940 l 647 -21 l 936 -21 l 936 940 l 990 940 l 990 -51 l 1053 -147 l 1006 -183 l 943 -85 l 158 -85 l 158 -21 l 238 -21 l 238 940 l 293 940 z "},"Ъ":{"ha":1239,"x_min":176,"x_max":1022,"o":"m 753 431 l 429 431 l 429 -29 l 738 -29 q 913 24 863 -29 q 963 185 963 76 q 953 287 963 242 q 919 364 943 332 q 854 413 894 396 q 753 431 814 431 m 417 940 l 417 496 l 742 496 q 951 423 881 496 q 1022 194 1022 350 q 749 -96 1022 -96 l 351 -96 l 351 874 l 176 874 l 176 940 l 417 940 z "},"Ы":{"ha":1239,"x_min":235,"x_max":989,"o":"m 532 -83 l 235 -83 l 235 935 l 292 935 l 292 489 l 536 489 q 732 413 661 489 q 803 199 803 336 q 734 -12 803 60 q 532 -83 665 -83 m 506 428 l 292 428 l 292 -22 l 504 -22 q 685 35 632 -22 q 738 204 738 92 q 684 369 738 311 q 506 428 631 428 m 933 -89 l 933 935 l 989 935 l 989 -89 l 933 -89 z "},"Ь":{"ha":1239,"x_min":324,"x_max":981,"o":"m 981 206 q 917 -20 981 51 q 706 -92 854 -92 l 324 -92 l 324 935 l 388 935 l 388 493 l 708 493 q 981 206 981 493 m 860 24 q 918 208 918 76 q 869 376 918 321 q 711 432 819 432 l 388 432 l 388 -26 l 711 -26 q 763 -24 742 -26 q 802 -15 785 -21 q 833 0 819 -10 q 860 24 846 10 z "},"Э":{"ha":1239,"x_min":254,"x_max":994,"o":"m 606 -17 q 763 20 700 -17 q 863 116 825 57 q 916 250 900 175 q 935 401 932 325 q 915 385 929 394 q 885 365 901 375 q 849 349 868 356 q 814 343 831 343 q 747 358 778 343 q 687 390 715 372 q 630 422 658 407 q 572 436 601 436 q 513 418 543 436 q 444 361 483 400 l 417 418 q 501 481 458 460 q 576 501 544 501 q 643 488 611 501 q 705 456 675 474 q 762 425 735 439 q 817 411 789 411 q 871 433 839 411 q 931 479 903 454 q 845 764 925 661 q 622 867 765 867 q 424 802 497 867 q 319 593 350 738 l 257 593 q 299 738 267 674 q 378 846 331 801 q 488 914 426 890 q 622 938 550 938 q 780 901 711 938 q 897 799 849 864 q 969 645 944 733 q 994 453 994 557 q 888 46 994 179 q 599 -87 782 -87 q 476 -69 533 -87 q 372 -10 418 -50 q 295 90 326 29 q 254 233 264 150 l 322 233 q 356 119 331 167 q 419 41 382 71 q 504 -3 457 11 q 606 -17 551 -17 z "},"Ю":{"ha":1239,"x_min":153,"x_max":1104,"o":"m 743 -18 q 871 19 815 -18 q 963 118 926 57 q 1017 257 999 179 q 1036 417 1036 335 q 1016 593 1036 513 q 958 733 996 674 q 864 825 919 792 q 736 858 808 858 q 621 825 674 858 q 531 733 568 792 q 472 596 493 675 q 451 424 451 517 q 472 270 451 349 q 531 128 493 192 q 624 23 569 64 q 743 -18 678 -18 m 210 922 l 210 489 l 390 489 q 419 658 393 578 q 492 800 446 739 q 603 896 539 861 q 744 928 667 931 q 888 892 822 928 q 1002 790 954 856 q 1077 631 1050 724 q 1104 426 1104 539 q 1077 218 1104 313 q 1003 56 1050 124 q 893 -50 957 -12 q 754 -87 829 -87 q 601 -47 669 -90 q 485 68 533 -4 q 413 232 438 140 q 390 419 388 324 l 210 419 l 210 -79 l 153 -79 l 153 922 l 210 922 z "},"Я":{"ha":1239,"x_min":258,"x_max":938,"o":"m 403 428 q 299 518 333 456 q 264 676 264 581 q 282 792 264 742 q 331 876 300 842 q 405 927 363 910 q 496 944 447 944 l 938 944 l 938 -92 l 876 -92 l 876 401 l 550 401 q 456 387 493 401 q 399 338 419 372 q 369 244 378 303 q 357 99 360 186 q 353 24 356 54 q 348 -26 351 -6 q 341 -62 344 -47 q 333 -92 338 -78 l 258 -92 q 282 -14 275 -56 q 290 96 289 28 q 297 229 292 175 q 315 321 303 283 q 349 383 328 358 q 403 428 369 408 m 515 467 l 876 467 l 876 876 l 515 876 q 376 825 424 876 q 329 681 329 774 q 379 526 329 586 q 515 467 429 467 z "},"а":{"ha":1239,"x_min":307,"x_max":901,"o":"m 871 461 l 871 83 q 878 -6 871 25 q 901 -61 886 -37 l 836 -68 q 817 -13 825 -49 q 808 54 810 22 q 765 6 793 29 q 700 -37 738 -18 q 618 -67 663 -56 q 526 -78 574 -78 q 367 -22 426 -78 q 307 131 307 33 q 328 234 307 193 q 388 302 349 275 q 482 344 426 329 q 607 368 538 358 q 694 382 657 375 q 757 401 732 389 q 794 429 782 413 q 806 474 806 446 q 753 572 806 538 q 618 607 701 607 q 463 567 518 607 q 400 449 407 526 l 331 449 q 356 542 333 500 q 415 614 378 585 q 501 659 451 643 q 610 675 551 675 q 809 621 747 675 q 871 461 871 567 m 650 313 q 562 298 610 307 q 473 271 514 289 q 405 222 432 253 q 378 140 378 190 q 418 29 378 69 q 539 -11 458 -11 q 642 6 593 -11 q 728 56 692 24 q 788 135 765 89 q 810 238 810 181 l 810 367 q 751 333 794 344 q 650 313 708 321 z "},"б":{"ha":1239,"x_min":344,"x_max":882,"o":"m 413 433 q 504 560 444 521 q 626 599 564 599 q 731 575 683 599 q 811 508 778 551 q 863 403 844 464 q 882 265 882 342 q 863 117 882 183 q 810 6 844 51 q 729 -65 776 -40 q 625 -89 682 -89 q 506 -54 558 -89 q 418 45 454 -19 q 363 200 382 110 q 344 403 344 290 q 363 633 344 533 q 414 799 382 732 q 490 899 446 865 q 588 932 535 932 q 637 922 614 932 q 681 899 660 911 q 724 876 703 886 q 768 865 744 865 q 813 877 788 865 q 857 908 838 889 l 857 847 q 817 820 846 832 q 746 810 788 808 q 708 818 726 810 q 670 836 689 826 q 633 854 651 846 q 600 863 615 863 q 461 758 508 863 q 413 433 414 654 m 829 257 q 816 372 829 319 q 778 462 803 424 q 715 521 753 500 q 631 542 678 542 q 544 520 582 542 q 481 461 507 499 q 440 372 454 424 q 426 257 426 319 q 440 145 426 196 q 481 58 454 94 q 543 0 507 21 q 625 -21 579 -21 q 710 0 672 -21 q 774 58 747 21 q 815 145 800 94 q 829 257 829 196 z "},"в":{"ha":1239,"x_min":328,"x_max":919,"o":"m 667 583 l 390 583 l 390 324 l 675 324 q 731 335 704 324 q 779 365 758 346 q 813 410 800 383 q 826 465 826 436 q 790 553 826 524 q 667 583 754 583 m 856 122 q 841 181 856 156 q 802 222 826 206 q 745 247 778 239 q 676 256 713 256 l 390 256 l 390 -17 l 668 -17 q 807 16 758 -17 q 856 122 856 49 m 888 475 q 878 408 888 438 q 855 357 869 379 q 823 319 840 335 q 789 297 806 304 q 883 238 847 282 q 919 122 919 194 q 658 -81 919 -81 q 579 -81 621 -81 q 494 -81 538 -81 q 408 -82 450 -82 q 328 -82 365 -82 l 328 650 l 671 650 q 833 602 778 650 q 888 475 888 554 z "},"г":{"ha":1239,"x_min":376,"x_max":896,"o":"m 896 533 l 847 497 l 799 578 l 442 578 l 442 -82 l 376 -82 l 376 650 l 829 650 l 896 533 z "},"д":{"ha":1239,"x_min":236,"x_max":926,"o":"m 851 -42 l 926 -149 l 875 -192 l 804 -85 l 374 -85 q 326 -142 353 -117 q 272 -190 299 -168 l 236 -137 q 314 -60 282 -104 q 366 47 346 -17 q 395 199 386 111 q 404 410 404 288 l 404 589 l 342 589 l 342 658 l 914 658 l 914 589 l 851 589 l 851 -42 m 457 589 l 457 397 q 446 171 457 283 q 404 -25 435 58 l 800 -25 l 800 589 l 457 589 z "},"е":{"ha":1239,"x_min":300,"x_max":913,"o":"m 406 106 q 489 10 432 43 q 621 -22 546 -22 q 757 17 704 -22 q 826 135 810 56 l 906 135 q 801 -35 878 21 q 617 -92 725 -90 q 486 -66 544 -92 q 386 8 428 -40 q 322 127 344 57 q 300 286 300 197 q 323 448 300 376 q 388 569 346 519 q 490 644 431 618 q 619 669 549 669 q 785 619 714 669 q 883 482 856 568 q 903 402 897 444 q 913 285 910 360 l 371 285 q 378 189 369 232 q 406 106 386 146 m 372 343 l 846 342 q 779 531 839 461 q 613 601 719 601 q 449 533 507 601 q 372 343 392 465 z "},"ж":{"ha":1239,"x_min":271,"x_max":967,"o":"m 967 646 l 967 574 q 892 534 922 567 q 850 428 861 501 q 838 376 846 396 q 822 344 831 356 q 807 326 814 332 q 799 318 800 319 q 883 251 854 303 q 919 89 913 199 q 922 33 921 57 q 926 -10 924 10 q 932 -47 928 -29 q 943 -82 936 -64 l 876 -82 q 863 -24 865 -60 q 860 53 861 13 q 854 136 858 94 q 836 213 850 178 q 818 239 831 228 q 791 256 806 250 q 761 265 776 263 q 735 268 746 268 l 651 268 l 651 -82 l 585 -82 l 585 268 l 499 268 q 432 247 467 268 q 388 186 397 226 q 377 117 379 151 q 374 49 375 83 q 369 -18 372 15 q 354 -82 365 -51 l 288 -82 q 305 -25 299 -53 q 313 43 311 3 q 322 164 315 124 q 339 231 328 204 q 377 283 351 261 q 447 315 403 304 q 413 369 428 329 q 394 458 399 408 q 359 538 390 507 q 271 572 328 569 l 271 644 q 406 590 364 632 q 456 476 447 547 q 482 368 464 404 q 556 332 500 332 l 585 332 l 585 646 l 651 646 l 651 333 l 678 333 q 708 335 692 333 q 738 347 724 336 q 765 378 753 357 q 786 442 778 400 q 818 546 799 507 q 861 606 838 585 q 912 634 885 626 q 967 646 939 642 z "},"з":{"ha":1239,"x_min":324,"x_max":940,"o":"m 631 671 q 830 617 758 671 q 901 475 901 563 q 873 368 901 417 q 778 296 844 319 q 822 282 794 293 q 875 250 849 271 q 921 197 901 229 q 940 122 940 165 q 860 -32 940 25 q 635 -89 779 -89 q 482 -66 550 -89 q 375 6 414 -43 q 324 144 331 63 l 386 146 q 406 83 393 107 q 446 32 418 60 q 524 -4 474 8 q 635 -17 574 -17 q 733 -8 688 -17 q 810 19 778 1 q 862 63 843 36 q 881 124 881 89 q 863 178 881 153 q 813 221 844 203 q 737 249 781 239 q 643 258 693 258 l 588 258 l 588 324 l 643 324 q 782 365 728 324 q 836 471 836 407 q 777 567 836 533 q 622 601 718 601 q 457 564 517 601 q 363 446 397 526 l 329 446 l 331 563 l 367 547 q 474 640 414 610 q 631 671 535 671 z "},"и":{"ha":1239,"x_min":329,"x_max":908,"o":"m 847 654 l 908 654 l 908 -90 l 843 -90 l 843 532 l 842 532 l 397 -90 l 329 -90 l 329 654 l 392 654 l 392 11 l 847 654 z "},"й":{"ha":1239,"x_min":329,"x_max":908,"o":"m 444 896 l 507 896 q 545 802 517 833 q 618 771 574 771 q 735 896 707 771 l 792 896 q 729 753 776 797 q 621 708 682 708 q 563 717 592 708 q 509 748 533 726 q 467 806 485 769 q 444 896 450 842 m 847 654 l 908 654 l 908 -90 l 843 -90 l 843 532 l 842 532 l 397 -90 l 329 -90 l 329 654 l 392 654 l 392 11 l 847 654 z "},"к":{"ha":1239,"x_min":358,"x_max":888,"o":"m 417 331 l 583 331 q 655 363 629 333 q 697 453 681 392 q 717 526 713 506 q 722 551 721 546 q 732 579 725 560 q 755 618 739 599 q 800 651 771 638 q 876 664 829 665 l 876 585 l 868 585 q 822 574 840 585 q 791 542 803 563 q 772 494 779 522 q 757 433 764 467 q 721 340 744 372 q 686 299 697 308 l 888 -87 l 819 -87 l 671 194 q 636 243 653 228 q 590 258 619 258 l 417 258 l 417 -87 l 358 -87 l 358 651 l 417 651 l 417 331 z "},"л":{"ha":1239,"x_min":258,"x_max":924,"o":"m 836 608 l 836 -85 l 776 -85 l 776 608 l 469 608 q 459 331 468 446 q 430 135 450 217 q 376 -1 410 54 q 292 -96 342 -56 l 258 -33 q 305 11 285 -12 q 340 65 325 35 q 367 132 356 94 q 388 218 379 169 q 403 363 396 268 q 410 608 410 458 l 314 608 l 314 667 l 924 667 l 924 608 l 836 608 z "},"м":{"ha":1239,"x_min":243,"x_max":1003,"o":"m 297 -92 l 243 -92 l 293 657 l 368 657 l 621 0 l 871 657 l 950 657 l 1003 -92 l 949 -92 l 897 554 l 647 -92 l 597 -92 l 343 554 l 297 -92 z "},"н":{"ha":1239,"x_min":321,"x_max":907,"o":"m 843 338 l 843 658 l 907 658 l 907 -85 l 843 -85 l 843 264 l 383 264 l 383 -85 l 321 -85 l 321 658 l 383 658 l 383 338 l 843 338 z "},"о":{"ha":1239,"x_min":293,"x_max":956,"o":"m 622 -86 q 490 -58 550 -86 q 385 21 429 -29 q 317 141 342 71 q 293 294 293 211 q 317 450 293 379 q 385 572 342 521 q 489 650 429 622 q 621 678 549 678 q 755 650 693 678 q 861 572 817 622 q 931 451 906 522 q 956 294 956 381 q 931 140 956 210 q 863 19 907 69 q 757 -58 818 -31 q 622 -86 696 -86 m 621 -17 q 730 8 681 -17 q 815 74 779 32 q 872 172 851 115 q 892 294 892 229 q 872 419 892 361 q 817 519 853 476 q 731 585 781 561 q 621 608 681 608 q 512 585 560 608 q 429 522 464 563 q 376 424 394 481 q 358 300 358 368 q 377 175 358 233 q 430 74 396 117 q 513 8 464 32 q 621 -17 561 -17 z "},"п":{"ha":1239,"x_min":299,"x_max":932,"o":"m 850 583 l 850 -83 l 799 -83 l 799 583 l 435 583 l 435 -83 l 382 -83 l 382 583 l 299 583 l 299 650 l 932 650 l 932 583 l 850 583 z "},"р":{"ha":1239,"x_min":346,"x_max":915,"o":"m 404 661 l 404 543 q 431 586 411 563 q 479 630 450 610 q 547 664 508 650 q 629 678 585 678 q 740 653 688 678 q 831 581 792 628 q 892 466 869 533 q 915 314 915 399 q 893 158 915 226 q 832 42 871 90 q 742 -31 793 -6 q 633 -56 692 -56 q 492 -19 556 -56 q 404 75 428 17 l 404 -246 l 346 -246 l 346 661 l 404 661 m 849 310 q 833 431 849 376 q 788 524 817 486 q 717 583 758 563 q 626 604 676 604 q 530 583 571 604 q 461 524 489 563 q 419 433 433 486 q 406 315 406 379 q 419 193 406 249 q 461 98 433 138 q 531 37 489 58 q 626 15 572 15 q 717 37 676 15 q 788 98 758 58 q 833 191 817 138 q 849 310 849 244 z "},"с":{"ha":1239,"x_min":293,"x_max":907,"o":"m 621 601 q 517 578 564 601 q 438 515 471 556 q 385 417 404 474 q 367 293 367 361 q 432 76 367 154 q 615 -1 497 -1 q 763 40 711 -1 q 829 179 815 82 l 907 179 q 879 74 900 122 q 822 -8 858 26 q 733 -63 786 -43 q 610 -85 681 -83 q 481 -58 539 -85 q 381 17 422 -32 q 316 135 339 65 q 293 293 293 206 q 317 453 293 381 q 387 576 342 525 q 494 655 432 626 q 631 683 556 683 q 738 665 689 683 q 822 615 786 647 q 878 538 857 583 q 903 439 900 493 l 826 439 q 766 562 819 522 q 621 601 713 601 z "},"т":{"ha":1239,"x_min":328,"x_max":921,"o":"m 328 574 l 328 649 l 921 649 l 921 574 l 658 574 l 658 -79 l 589 -79 l 589 574 l 328 574 z "},"у":{"ha":1239,"x_min":307,"x_max":933,"o":"m 863 649 l 933 649 l 643 -36 q 594 -140 615 -101 q 552 -199 572 -179 q 510 -224 532 -218 q 461 -229 489 -229 q 430 -227 443 -229 q 399 -218 417 -225 l 399 -132 q 471 -146 440 -146 q 533 -106 510 -146 q 585 7 556 -67 l 307 649 l 382 649 l 624 86 l 863 649 z "},"ф":{"ha":1239,"x_min":160,"x_max":1081,"o":"m 447 600 q 361 576 401 599 q 291 515 321 554 q 244 421 261 475 q 226 300 226 367 q 242 174 226 231 q 288 77 258 117 q 358 16 317 38 q 447 -6 399 -6 q 523 6 486 -6 q 586 40 560 17 l 586 553 q 518 590 557 579 q 447 600 479 601 m 775 -6 q 943 69 879 -6 q 1010 289 1007 144 q 996 414 1011 357 q 953 513 981 471 q 884 577 925 554 q 793 600 843 600 q 715 590 754 600 q 644 553 676 579 l 644 42 q 703 7 668 19 q 775 -6 739 -6 m 443 -82 q 333 -56 385 -82 q 242 19 281 -29 q 182 137 204 68 q 160 289 160 206 q 183 447 160 376 q 246 566 206 517 q 341 642 286 615 q 458 669 396 669 q 531 657 497 669 q 586 626 565 644 l 586 775 l 643 775 l 643 628 q 668 643 651 636 q 704 656 685 650 q 744 666 724 663 q 783 669 765 669 q 905 643 850 669 q 999 569 960 617 q 1059 456 1038 521 q 1081 315 1081 390 q 1058 136 1081 211 q 995 13 1036 61 q 898 -59 954 -36 q 775 -82 842 -82 q 699 -67 736 -82 q 643 -37 661 -53 l 643 -187 l 586 -187 l 586 -40 q 563 -55 579 -47 q 525 -69 546 -62 q 482 -78 504 -75 q 443 -82 460 -82 z "},"х":{"ha":1239,"x_min":311,"x_max":921,"o":"m 840 -83 l 618 239 l 389 -83 l 311 -83 l 575 286 l 319 654 l 396 654 l 619 339 l 832 654 l 907 654 l 660 286 l 921 -83 l 840 -83 z "},"ц":{"ha":1239,"x_min":293,"x_max":929,"o":"m 378 646 l 444 646 l 444 -8 l 789 -8 l 789 646 l 854 646 l 858 -32 l 929 -133 l 871 -178 l 799 -76 l 293 -78 l 293 -8 l 378 -8 l 378 646 z "},"ч":{"ha":1239,"x_min":315,"x_max":867,"o":"m 807 397 l 807 649 l 867 649 l 867 -85 l 807 -85 l 807 251 q 772 212 796 231 q 715 179 747 193 q 645 158 682 165 q 571 150 608 150 q 375 220 435 150 q 315 435 315 290 l 315 649 l 378 649 l 378 419 q 422 272 378 317 q 560 226 465 226 q 739 269 671 226 q 807 397 807 311 z "},"ш":{"ha":1239,"x_min":232,"x_max":1007,"o":"m 314 646 l 376 646 l 376 -11 l 592 -11 l 592 646 l 653 646 l 653 -11 l 868 -11 l 868 646 l 926 646 l 926 -11 l 1007 -11 l 1007 -87 l 232 -87 l 232 -11 l 314 -11 l 314 646 z "},"щ":{"ha":1239,"x_min":224,"x_max":1006,"o":"m 378 650 l 378 -1 l 594 -1 l 594 650 l 657 650 l 657 -1 l 875 -1 l 875 650 l 940 650 l 940 -37 l 1006 -149 l 946 -189 l 882 -79 l 224 -79 l 224 -1 l 311 -1 l 311 650 l 378 650 z "},"ъ":{"ha":1239,"x_min":251,"x_max":950,"o":"m 744 314 l 503 314 l 503 -12 l 742 -12 q 851 29 817 -12 q 886 142 886 71 q 853 266 886 218 q 744 314 819 314 m 251 657 l 503 657 l 503 381 l 746 381 q 894 318 838 381 q 950 150 950 256 q 935 52 950 94 q 894 -19 921 10 q 833 -64 868 -49 q 757 -79 799 -79 l 440 -79 l 440 597 l 251 597 l 251 657 z "},"ы":{"ha":1239,"x_min":288,"x_max":933,"o":"m 558 308 l 347 308 l 347 -24 l 558 -24 q 674 17 639 -24 q 710 140 710 58 q 674 264 710 219 q 558 308 639 308 m 347 657 l 347 374 l 582 374 q 722 311 669 374 q 774 142 774 249 q 722 -26 774 35 q 579 -87 671 -87 l 288 -87 l 288 657 l 347 657 m 933 657 l 933 -87 l 872 -87 l 872 657 l 933 657 z "},"ь":{"ha":1239,"x_min":368,"x_max":911,"o":"m 699 315 l 422 315 l 422 -24 l 699 -24 q 814 19 775 -24 q 853 135 853 61 q 699 315 853 315 m 422 658 l 422 376 l 726 376 q 863 313 814 376 q 911 140 911 250 q 860 -26 911 35 q 725 -87 810 -87 l 368 -87 l 368 658 l 422 658 z "},"э":{"ha":1239,"x_min":331,"x_max":906,"o":"m 847 276 q 810 252 839 265 q 750 240 781 239 q 699 256 725 240 q 649 288 674 271 q 602 320 625 306 q 558 335 579 335 q 500 314 526 335 q 458 267 474 293 l 440 321 q 506 382 472 371 q 564 393 539 393 q 616 378 590 393 q 667 346 642 364 q 715 313 692 328 q 761 299 738 299 q 806 313 781 299 q 846 346 831 326 q 774 542 840 469 q 596 614 708 614 q 464 574 521 614 q 390 463 407 535 l 331 463 q 363 553 340 513 q 420 624 386 594 q 498 669 454 653 q 594 686 542 686 q 723 660 665 686 q 821 583 781 633 q 883 462 861 533 q 906 300 906 390 q 884 136 906 208 q 823 13 863 64 q 728 -64 783 -37 q 606 -90 672 -90 q 431 -37 497 -90 q 333 129 364 17 l 397 129 q 474 17 421 53 q 601 -19 526 -19 q 778 57 713 -19 q 847 276 844 133 z "},"ю":{"ha":1239,"x_min":242,"x_max":1029,"o":"m 765 -33 q 848 -8 811 -33 q 911 60 885 17 q 951 164 938 104 q 965 292 965 224 q 952 417 965 360 q 913 517 939 475 q 851 581 888 558 q 769 604 815 604 q 687 581 724 604 q 624 517 650 558 q 584 417 599 475 q 569 289 569 360 q 583 156 569 215 q 622 54 596 96 q 683 -10 647 13 q 765 -33 719 -33 m 296 657 l 296 336 l 510 336 q 538 482 515 418 q 596 590 561 546 q 676 656 631 633 q 772 679 721 679 q 874 653 826 679 q 955 576 921 626 q 1009 456 989 526 q 1029 296 1029 385 q 1009 128 1029 203 q 954 0 989 53 q 872 -81 919 -53 q 769 -110 825 -110 q 578 -4 640 -104 q 510 275 515 96 l 296 275 l 296 -86 l 242 -86 l 242 657 l 296 657 z "},"я":{"ha":1239,"x_min":292,"x_max":897,"o":"m 494 326 l 836 326 l 836 589 l 494 589 q 403 554 433 589 q 374 453 374 519 q 383 405 374 428 q 409 365 393 382 q 447 337 425 347 q 494 326 469 326 m 361 -85 l 292 -85 q 311 -24 306 -57 q 319 65 317 8 q 349 224 322 174 q 415 286 375 275 q 378 306 396 290 q 347 344 361 321 q 324 396 332 367 q 315 457 315 425 q 328 540 315 503 q 363 602 342 576 q 414 642 385 628 q 475 656 443 656 l 897 656 l 897 -85 l 836 -85 l 836 256 l 539 256 q 431 225 463 256 q 392 140 400 194 q 388 95 389 124 q 383 34 386 67 q 376 -31 381 1 q 361 -85 371 -62 z "},"ё":{"ha":1239,"x_min":304,"x_max":913,"o":"m 707 724 q 671 742 688 724 q 654 790 654 760 q 672 833 654 818 q 708 849 689 849 q 747 834 728 849 q 765 790 765 819 q 746 741 765 758 q 707 724 726 724 m 517 724 q 476 741 496 724 q 456 790 456 758 q 476 834 456 819 q 518 849 496 849 q 553 833 535 849 q 571 790 571 818 q 553 741 571 758 q 517 724 535 724 m 408 101 q 494 3 436 36 q 625 -29 553 -29 q 760 9 708 -29 q 833 131 811 47 l 904 131 q 868 28 893 72 q 806 -44 843 -15 q 722 -87 768 -74 q 622 -101 675 -101 q 492 -75 551 -101 q 392 0 433 -49 q 327 119 350 49 q 304 281 304 190 q 327 442 304 369 q 392 567 350 515 q 494 647 435 619 q 625 675 553 675 q 784 622 717 675 q 883 483 851 568 q 906 396 899 443 q 913 278 913 349 l 375 278 q 377 222 375 246 q 383 178 379 197 q 394 140 388 158 q 408 101 400 122 m 381 339 l 846 338 q 778 530 838 461 q 617 599 719 599 q 454 530 513 599 q 381 339 396 461 z "},"―":{"ha":1239,"x_min":0,"x_max":1239,"o":"m 0 465 l 1239 465 l 1239 404 l 0 404 l 0 465 z "},"‘":{"ha":421,"x_min":203,"x_max":365,"o":"m 285 933 q 339 913 319 931 q 358 858 358 894 q 338 805 358 824 q 285 786 318 786 q 226 810 249 786 q 203 885 203 833 q 240 1017 203 958 q 353 1104 278 1075 l 365 1079 q 294 1026 321 1060 q 264 954 268 993 q 285 933 263 935 z "},"’":{"ha":421,"x_min":51,"x_max":214,"o":"m 132 931 q 78 951 97 933 q 58 1006 58 969 q 78 1059 58 1040 q 132 1078 99 1078 q 191 1054 168 1078 q 214 979 214 1031 q 176 847 214 906 q 64 760 139 789 l 51 785 q 122 838 96 804 q 153 910 149 871 q 132 931 154 929 z "},"“":{"ha":619,"x_min":199,"x_max":569,"o":"m 489 932 q 543 911 524 929 q 563 857 563 893 q 542 803 563 822 q 489 785 522 785 q 430 808 453 785 q 407 883 407 832 q 444 1015 407 957 q 557 1103 482 1074 l 569 1078 q 499 1025 525 1058 q 468 953 472 992 q 489 932 467 933 m 281 933 q 335 913 315 931 q 354 858 354 894 q 334 805 354 824 q 281 786 314 786 q 222 810 244 786 q 199 885 199 833 q 236 1017 199 958 q 349 1104 274 1075 l 361 1079 q 290 1026 317 1060 q 260 954 264 993 q 281 933 258 935 z "},"”":{"ha":619,"x_min":51,"x_max":422,"o":"m 132 931 q 78 951 97 933 q 58 1006 58 969 q 78 1059 58 1040 q 132 1078 99 1078 q 191 1054 168 1078 q 214 979 214 1031 q 176 847 214 906 q 64 760 139 789 l 51 785 q 122 838 96 804 q 153 910 149 871 q 132 931 154 929 m 340 929 q 286 950 306 932 q 267 1004 267 968 q 287 1058 267 1039 q 340 1076 307 1076 q 399 1053 376 1076 q 422 978 422 1029 q 385 846 422 904 q 272 758 347 788 l 260 783 q 331 836 304 803 q 361 908 357 869 q 340 929 363 928 z "},"†":{"ha":1239,"x_min":258,"x_max":979,"o":"m 979 678 l 979 610 l 665 610 l 665 -203 l 586 -203 l 586 610 l 258 610 l 258 678 l 586 678 l 586 1031 l 665 1031 l 665 678 l 979 678 z "},"‡":{"ha":1239,"x_min":264,"x_max":986,"o":"m 986 844 l 986 779 l 664 779 l 664 599 l 957 599 l 957 533 l 664 533 l 664 -201 l 586 -201 l 586 533 l 289 533 l 289 599 l 586 599 l 586 779 l 264 779 l 264 844 l 586 844 l 586 1036 l 664 1036 l 664 844 l 986 844 z "},"‥":{"ha":1239,"x_min":296,"x_max":943,"o":"m 369 582 q 443 510 443 582 q 369 438 443 438 q 296 510 296 438 q 369 582 296 582 m 869 582 q 943 510 943 582 q 869 438 943 438 q 796 510 796 438 q 869 582 796 582 z "},"…":{"ha":1239,"x_min":211,"x_max":1025,"o":"m 285 582 q 358 510 358 582 q 285 438 358 438 q 211 510 211 438 q 285 582 211 582 m 618 582 q 692 510 692 582 q 618 438 692 438 q 544 510 544 438 q 618 582 544 582 m 951 582 q 1025 510 1025 582 q 951 438 1025 438 q 878 510 878 438 q 951 582 878 582 z "},"‰":{"ha":1239,"x_min":21,"x_max":1211,"o":"m 133 776 q 201 848 163 818 q 281 892 240 878 q 360 905 321 907 q 431 882 400 903 q 476 825 461 861 q 490 746 490 789 q 474 656 489 703 q 428 567 458 610 q 360 497 399 525 q 282 456 322 469 q 203 444 242 442 q 135 465 164 446 q 90 520 106 485 q 75 599 75 556 q 90 688 75 642 q 133 776 104 735 m 21 -108 l 815 951 l 888 951 l 94 -108 l 21 -108 m 382 603 q 417 673 406 636 q 431 742 429 710 q 423 801 432 775 q 394 839 414 826 q 349 850 375 851 q 294 836 324 849 q 237 800 265 824 q 183 743 208 776 q 148 674 160 710 q 134 608 136 639 q 141 551 132 576 q 169 514 150 526 q 214 500 188 501 q 269 509 240 499 q 328 543 299 519 q 382 603 357 567 m 429 233 q 499 305 460 275 q 578 349 538 335 q 658 362 618 364 q 728 339 697 360 q 773 282 758 318 q 787 203 788 246 q 771 113 786 160 q 725 24 756 67 q 658 -46 696 -18 q 579 -87 619 -74 q 500 -99 539 -101 q 432 -78 461 -97 q 388 -23 403 -58 q 372 56 372 13 q 386 145 372 99 q 429 233 400 192 m 679 60 q 715 130 703 93 q 728 199 726 167 q 719 258 729 232 q 690 296 710 283 q 647 307 672 308 q 592 293 621 306 q 534 257 563 281 q 481 200 506 233 q 444 131 457 167 q 431 65 432 96 q 438 8 429 33 q 467 -29 447 -17 q 511 -43 485 -42 q 567 -34 538 -44 q 625 0 596 -24 q 679 60 654 24 m 853 233 q 922 305 883 275 q 1001 349 961 335 q 1081 362 1042 364 q 1151 339 1121 360 q 1197 282 1182 318 q 1210 203 1211 246 q 1194 113 1210 160 q 1149 24 1179 67 q 1081 -46 1119 -18 q 1003 -87 1043 -74 q 924 -99 963 -101 q 856 -78 885 -97 q 811 -23 826 -58 q 796 56 796 13 q 810 145 796 99 q 853 233 824 192 m 1101 60 q 1138 130 1125 93 q 1151 199 1150 167 q 1143 258 1153 232 q 1114 296 1133 283 q 1069 307 1096 308 q 1015 293 1043 306 q 957 257 986 281 q 904 200 928 233 q 868 131 881 167 q 853 65 856 96 q 860 8 851 33 q 889 -29 869 -17 q 935 -43 908 -42 q 990 -34 961 -44 q 1048 0 1019 -24 q 1101 60 1076 24 z "},"′":{"ha":619,"x_min":199,"x_max":383,"o":"m 358 1064 q 383 1016 388 1046 q 355 951 378 986 q 299 876 332 915 q 239 803 265 838 q 224 791 232 793 q 208 792 215 789 q 199 804 201 796 q 200 824 196 813 l 282 1029 q 314 1064 290 1053 q 358 1064 338 1075 z "},"″":{"ha":619,"x_min":107,"x_max":494,"o":"m 481 956 l 336 765 q 309 757 324 749 q 301 785 294 765 l 388 1008 q 421 1044 397 1032 q 465 1044 444 1056 q 494 1001 492 1029 q 481 956 496 974 m 286 983 l 144 792 q 130 783 138 785 q 116 785 122 782 q 108 795 110 788 q 110 814 106 803 l 193 1038 q 228 1072 203 1060 q 274 1071 254 1085 q 299 1031 297 1060 q 286 983 301 1003 z "},"※":{"ha":1239,"x_min":115,"x_max":1118,"o":"m 972 442 q 991 493 972 469 q 1043 517 1010 517 q 1092 494 1069 517 q 1114 443 1114 472 q 1092 392 1114 415 q 1043 369 1071 369 q 991 392 1010 369 q 972 442 972 414 m 121 442 q 142 493 121 469 q 193 517 164 517 q 245 494 225 517 q 265 443 265 472 q 245 392 265 415 q 193 369 225 369 q 143 392 165 369 q 121 442 121 414 m 544 869 q 565 919 544 896 q 618 942 586 942 q 669 919 646 942 q 692 869 692 896 q 670 817 692 838 q 618 797 649 797 q 567 817 589 797 q 544 869 544 838 m 544 17 q 566 68 544 47 q 618 89 588 89 q 669 69 646 89 q 692 18 692 49 q 670 -32 692 -10 q 618 -54 649 -54 q 567 -32 589 -54 q 544 17 544 -10 m 1085 944 l 1118 911 l 656 443 l 1118 -24 l 1085 -57 l 618 408 l 150 -57 l 115 -24 l 582 443 l 115 911 l 150 944 l 618 479 l 1085 944 z "},"⁴":{"ha":619,"x_min":28,"x_max":321,"o":"m 28 814 l 215 1093 l 257 1093 l 257 817 l 321 817 l 321 788 l 257 788 l 257 693 l 222 693 l 222 788 l 28 788 l 28 814 m 225 815 l 225 1056 l 213 1032 l 65 815 l 225 815 z "},"ⁿ":{"ha":619,"x_min":22,"x_max":318,"o":"m 318 925 l 318 696 l 283 696 l 283 919 q 258 1022 283 993 q 189 1050 232 1050 q 142 1039 165 1050 q 101 1008 119 1028 q 70 964 82 989 q 58 910 58 939 l 58 696 l 22 696 l 22 1076 l 53 1076 l 57 999 l 58 999 q 110 1060 74 1035 q 192 1086 147 1086 q 285 1047 251 1086 q 318 925 318 1008 z "},"₁":{"ha":619,"x_min":81,"x_max":200,"o":"m 81 190 l 81 215 q 124 240 103 225 q 160 274 144 254 l 200 274 l 200 -129 l 165 -129 l 165 232 q 126 204 146 215 q 90 186 106 193 q 81 190 81 185 z "},"₂":{"ha":619,"x_min":43,"x_max":292,"o":"m 67 200 q 60 198 64 197 q 57 201 57 199 l 57 236 q 104 266 76 253 q 167 279 132 279 q 254 253 222 279 q 286 175 286 228 q 265 108 286 139 q 207 33 243 78 l 89 -99 l 292 -99 l 292 -131 l 43 -131 l 43 -100 l 171 43 q 208 88 193 69 q 231 121 222 107 q 244 147 240 135 q 247 174 247 158 q 168 247 247 247 q 117 235 140 247 q 67 200 93 224 z "},"₃":{"ha":619,"x_min":43,"x_max":294,"o":"m 54 -61 q 164 -106 99 -106 q 231 -84 203 -106 q 258 -22 258 -62 q 228 42 258 21 q 150 64 199 64 l 135 64 l 135 94 l 143 94 q 175 98 157 94 q 210 110 193 101 q 238 134 226 118 q 249 175 249 150 q 225 228 249 208 q 165 249 201 249 q 115 240 138 249 q 65 207 92 231 q 58 205 63 204 q 54 208 54 206 l 54 242 q 100 267 69 257 q 163 278 131 278 q 253 250 221 278 q 285 178 285 222 q 267 117 285 143 q 217 81 249 92 q 272 47 250 74 q 294 -22 294 19 q 261 -101 294 -67 q 163 -136 228 -136 q 95 -126 128 -136 q 43 -96 63 -115 l 43 -62 q 47 -59 43 -60 q 54 -61 51 -58 z "},"₄":{"ha":619,"x_min":28,"x_max":321,"o":"m 28 -6 l 215 274 l 257 274 l 257 -3 l 321 -3 l 321 -32 l 257 -32 l 257 -126 l 222 -126 l 222 -32 l 28 -32 l 28 -6 m 225 -4 l 225 236 l 213 213 l 65 -4 l 225 -4 z "},"€":{"ha":1239,"x_min":171,"x_max":1022,"o":"m 1001 136 q 1013 142 1004 143 q 1022 133 1022 140 l 1022 47 q 899 -31 974 -1 q 729 -60 824 -60 q 462 37 567 -60 q 321 304 357 133 l 171 304 l 171 367 l 311 367 q 306 420 308 393 q 304 475 304 447 q 313 583 304 531 l 185 583 l 185 646 l 324 646 q 385 797 344 731 q 479 910 425 864 q 600 981 533 957 q 740 1006 667 1006 q 893 985 824 1006 q 1013 917 963 965 l 1013 839 q 1004 830 1014 831 q 992 835 994 829 q 871 917 933 896 q 744 938 808 938 q 631 917 685 938 q 534 857 578 896 q 458 765 490 818 q 407 646 425 711 l 746 646 l 746 583 l 393 583 q 385 481 385 533 q 387 422 385 450 q 392 367 389 393 l 732 367 l 732 304 l 403 304 q 522 84 435 157 q 740 11 610 11 q 826 22 786 11 q 898 49 865 32 q 957 89 931 67 q 1001 136 983 111 z "},"℃":{"ha":1239,"x_min":72,"x_max":1072,"o":"m 1057 133 q 1066 139 1060 140 q 1072 131 1072 138 l 1072 51 q 950 -20 1024 7 q 781 -47 876 -47 q 597 -12 678 -47 q 460 86 517 22 q 375 241 404 150 q 346 444 346 332 q 381 647 346 557 q 476 801 415 738 q 617 899 536 864 q 793 933 699 933 q 943 915 878 933 q 1061 851 1008 896 l 1061 779 q 1056 772 1061 772 q 1046 775 1050 771 q 925 851 985 832 q 797 871 865 871 q 645 839 714 871 q 527 751 576 807 q 450 617 478 694 q 422 450 422 540 q 519 126 422 235 q 792 18 615 18 q 954 53 889 18 q 1057 133 1019 88 m 233 815 q 307 844 278 815 q 336 919 336 874 q 307 994 336 964 q 233 1024 278 1024 q 160 994 190 1024 q 131 919 131 964 q 160 844 131 874 q 233 815 189 815 m 233 1076 q 296 1064 267 1076 q 347 1031 325 1051 q 381 981 368 1010 q 393 919 393 953 q 381 858 393 886 q 347 808 368 829 q 296 775 325 788 q 233 763 267 763 q 171 775 200 763 q 120 808 142 788 q 85 858 99 829 q 72 919 72 886 q 85 981 72 953 q 120 1031 99 1010 q 171 1064 142 1051 q 233 1076 200 1076 z "},"℉":{"ha":1239,"x_min":72,"x_max":1054,"o":"m 500 915 l 1054 915 l 1054 850 l 572 850 l 572 508 l 1035 508 l 1035 447 l 572 447 l 572 -37 l 500 -37 l 500 915 m 233 815 q 307 844 278 815 q 336 919 336 874 q 307 994 336 964 q 233 1024 278 1024 q 160 994 190 1024 q 131 919 131 964 q 160 844 131 874 q 233 815 189 815 m 233 1076 q 296 1064 267 1076 q 347 1031 325 1051 q 381 981 368 1010 q 393 919 393 953 q 381 858 393 886 q 347 808 368 829 q 296 775 325 788 q 233 763 267 763 q 171 775 200 763 q 120 808 142 788 q 85 858 99 829 q 72 919 72 886 q 85 981 72 953 q 120 1031 99 1010 q 171 1064 142 1051 q 233 1076 200 1076 z "},"ℓ":{"ha":1239,"x_min":354,"x_max":858,"o":"m 814 18 l 858 -28 q 801 -108 835 -71 q 719 -157 768 -146 q 621 -141 678 -167 q 514 -37 564 -115 q 449 -71 486 -54 q 375 -93 411 -87 l 354 -17 q 419 -5 383 -14 q 482 24 454 4 q 417 245 432 132 q 404 490 401 358 q 427 681 407 593 q 480 834 447 769 q 554 937 513 899 q 643 978 596 975 q 728 946 692 982 q 785 843 764 910 q 810 681 806 776 q 801 472 815 586 q 765 310 789 382 q 713 181 742 238 q 650 80 683 124 q 583 3 617 36 q 658 -75 619 -58 q 728 -76 696 -92 q 776 -40 760 -61 q 814 18 793 -18 m 642 896 q 581 858 608 894 q 533 765 554 822 q 500 636 513 708 q 485 489 488 564 q 496 249 482 360 q 549 64 510 138 q 667 237 619 135 q 725 479 714 339 q 734 624 732 550 q 728 759 736 699 q 700 858 721 819 q 642 896 679 897 z "},"№":{"ha":1239,"x_min":36,"x_max":1219,"o":"m 868 6 q 944 26 911 6 q 999 82 976 46 q 1032 168 1021 118 q 1043 279 1043 218 q 1032 390 1043 339 q 999 476 1021 440 q 944 533 976 513 q 868 553 911 553 q 790 533 824 553 q 733 476 757 513 q 698 390 710 440 q 686 279 686 339 q 699 168 686 218 q 734 82 711 118 q 791 26 757 46 q 868 6 825 6 m 625 279 q 640 408 625 347 q 685 515 654 469 q 761 588 715 561 q 868 615 807 615 q 974 588 929 615 q 1049 515 1019 561 q 1094 408 1079 469 q 1108 279 1108 347 q 1094 147 1108 208 q 1049 41 1079 86 q 974 -30 1019 -4 q 868 -56 929 -56 q 761 -30 807 -56 q 685 41 715 -4 q 640 147 654 86 q 625 279 625 208 m 465 143 l 508 18 l 508 919 l 571 919 l 571 -47 l 478 -47 l 140 731 l 97 856 l 99 724 l 99 -47 l 36 -47 l 36 919 l 126 919 l 465 143 m 1219 0 q 1202 -44 1219 -26 q 1158 -61 1185 -61 q 1115 -44 1132 -61 q 1097 0 1097 -26 q 1115 44 1097 26 q 1158 61 1132 61 q 1202 44 1185 61 q 1219 0 1219 26 z "},"℡":{"ha":1239,"x_min":31,"x_max":1149,"o":"m 735 661 q 910 575 850 661 q 971 332 971 489 l 971 310 l 538 310 l 538 283 q 594 81 540 153 q 756 10 649 10 q 851 29 801 10 q 936 86 900 49 q 947 81 947 97 l 947 11 q 853 -44 904 -31 q 743 -58 803 -58 q 630 -32 681 -58 q 544 42 579 -6 q 491 154 510 89 q 472 297 472 219 q 492 444 472 378 q 546 559 511 511 q 629 634 581 607 q 735 661 678 661 m 543 364 l 904 364 q 860 540 904 476 q 733 604 815 604 q 608 540 658 604 q 543 364 557 476 m 365 860 l 365 -47 l 304 -47 l 304 860 l 31 860 l 31 922 l 640 922 l 640 860 l 365 860 m 1085 996 l 1149 996 l 1149 -47 l 1085 -47 l 1085 996 z "},"™":{"ha":1239,"x_min":89,"x_max":1071,"o":"m 1013 933 l 849 496 l 797 496 l 624 924 l 624 496 l 568 496 l 568 996 l 650 996 l 821 581 l 974 996 l 1071 996 l 1071 496 l 1013 496 l 1013 933 m 272 496 l 272 946 l 89 946 l 89 996 l 499 996 l 499 946 l 331 946 l 331 496 l 272 496 z "},"⅓":{"ha":1239,"x_min":110,"x_max":1133,"o":"m 1093 950 l 151 -203 l 110 -174 l 1051 981 l 1093 950 m 179 914 l 179 957 q 244 994 213 971 q 299 1046 275 1018 l 365 1046 l 365 435 l 304 435 l 304 971 q 245 933 276 949 q 190 908 214 918 q 179 914 179 904 m 764 -111 q 841 -160 796 -144 q 935 -176 886 -176 q 1031 -145 992 -176 q 1071 -56 1071 -114 q 1028 38 1071 7 q 911 69 985 69 l 886 69 l 886 122 l 900 122 q 948 127 921 122 q 999 144 975 132 q 1039 180 1022 157 q 1056 239 1056 203 q 1023 316 1056 288 q 936 344 990 344 q 858 331 896 344 q 781 282 819 317 q 771 278 775 276 q 767 286 767 279 l 767 340 q 838 381 792 363 q 933 399 885 399 q 1069 354 1021 399 q 1118 243 1118 310 q 1094 156 1118 194 q 1026 97 1069 117 q 1102 45 1071 85 q 1133 -56 1133 6 q 1120 -121 1133 -89 q 1082 -178 1107 -153 q 1019 -217 1057 -203 q 933 -232 982 -232 q 829 -214 879 -232 q 750 -167 779 -196 l 750 -117 q 754 -108 750 -110 q 764 -111 758 -106 z "},"⅔":{"ha":1239,"x_min":110,"x_max":1133,"o":"m 1093 950 l 151 -203 l 110 -174 l 1051 981 l 1093 950 m 150 947 q 135 953 135 935 l 135 1007 q 209 1053 167 1033 q 304 1074 251 1074 q 436 1035 388 1074 q 485 914 485 996 q 476 861 485 886 q 452 811 468 836 q 414 759 436 786 q 365 700 392 732 l 196 510 l 494 510 l 494 453 l 114 453 l 114 503 l 306 721 q 360 788 339 761 q 396 836 382 815 q 415 874 410 857 q 421 913 421 892 q 306 1019 421 1019 q 150 947 229 1019 m 764 -111 q 841 -160 796 -144 q 935 -176 886 -176 q 1031 -145 992 -176 q 1071 -56 1071 -114 q 1028 38 1071 7 q 911 69 985 69 l 886 69 l 886 122 l 900 122 q 948 127 921 122 q 999 144 975 132 q 1039 180 1022 157 q 1056 239 1056 203 q 1023 316 1056 288 q 936 344 990 344 q 858 331 896 344 q 781 282 819 317 q 771 278 775 276 q 767 286 767 279 l 767 340 q 838 381 792 363 q 933 399 885 399 q 1069 354 1021 399 q 1118 243 1118 310 q 1094 156 1118 194 q 1026 97 1069 117 q 1102 45 1071 85 q 1133 -56 1133 6 q 1120 -121 1133 -89 q 1082 -178 1107 -153 q 1019 -217 1057 -203 q 933 -232 982 -232 q 829 -214 879 -232 q 750 -167 779 -196 l 750 -117 q 754 -108 750 -110 q 764 -111 758 -106 z "},"⅛":{"ha":1239,"x_min":110,"x_max":1138,"o":"m 1093 950 l 151 -203 l 110 -174 l 1051 981 l 1093 950 m 179 914 l 179 957 q 244 994 213 971 q 299 1046 275 1018 l 365 1046 l 365 435 l 304 435 l 304 971 q 245 933 276 949 q 190 908 214 918 q 179 914 179 904 m 933 -183 q 988 -175 963 -183 q 1034 -151 1014 -167 q 1066 -111 1054 -135 q 1078 -58 1078 -87 q 1066 -7 1078 -31 q 1034 34 1054 17 q 988 61 1014 51 q 933 71 963 71 q 878 61 904 71 q 833 34 853 51 q 801 -7 813 17 q 789 -58 789 -31 q 801 -111 789 -87 q 833 -151 813 -135 q 878 -175 853 -167 q 933 -183 904 -183 m 933 125 q 981 132 957 125 q 1023 152 1004 139 q 1053 186 1042 165 q 1064 235 1064 207 q 1025 317 1064 288 q 933 346 986 346 q 842 317 881 346 q 803 235 803 288 q 814 186 803 207 q 844 152 825 165 q 886 132 863 139 q 933 125 910 125 m 933 -235 q 850 -222 888 -235 q 785 -185 813 -208 q 744 -131 758 -161 q 729 -64 729 -100 q 756 34 729 -8 q 842 96 783 76 q 769 151 794 115 q 743 235 743 188 q 755 296 743 267 q 790 347 767 325 q 849 383 814 369 q 933 396 885 396 q 1017 383 981 396 q 1076 347 1053 369 q 1112 296 1100 325 q 1124 235 1124 267 q 1096 151 1124 188 q 1022 96 1068 114 q 1110 35 1082 76 q 1138 -64 1138 -7 q 1124 -130 1138 -99 q 1083 -184 1110 -161 q 1019 -221 1057 -207 q 933 -235 981 -235 z "},"⅜":{"ha":1239,"x_min":110,"x_max":1138,"o":"m 1093 950 l 151 -203 l 110 -174 l 1051 981 l 1093 950 m 161 550 q 238 501 193 517 q 332 485 283 485 q 428 516 389 485 q 468 606 468 547 q 425 699 468 668 q 308 731 382 731 l 283 731 l 283 783 l 297 783 q 345 788 318 783 q 396 806 372 793 q 436 841 419 818 q 453 900 453 864 q 420 977 453 949 q 333 1006 388 1006 q 255 992 293 1006 q 178 943 217 978 q 168 939 172 938 q 164 947 164 940 l 164 1001 q 235 1042 189 1024 q 331 1060 282 1060 q 467 1015 418 1060 q 515 904 515 971 q 491 817 515 856 q 424 758 467 778 q 499 706 468 746 q 531 606 531 667 q 517 540 531 572 q 479 483 504 508 q 417 444 454 458 q 331 429 379 429 q 226 447 276 429 q 147 494 176 465 l 147 544 q 151 553 147 551 q 161 550 156 556 m 933 -183 q 988 -175 963 -183 q 1034 -151 1014 -167 q 1066 -111 1054 -135 q 1078 -58 1078 -87 q 1066 -7 1078 -31 q 1034 34 1054 17 q 988 61 1014 51 q 933 71 963 71 q 878 61 904 71 q 833 34 853 51 q 801 -7 813 17 q 789 -58 789 -31 q 801 -111 789 -87 q 833 -151 813 -135 q 878 -175 853 -167 q 933 -183 904 -183 m 933 125 q 981 132 957 125 q 1023 152 1004 139 q 1053 186 1042 165 q 1064 235 1064 207 q 1025 317 1064 288 q 933 346 986 346 q 842 317 881 346 q 803 235 803 288 q 814 186 803 207 q 844 152 825 165 q 886 132 863 139 q 933 125 910 125 m 933 -235 q 850 -222 888 -235 q 785 -185 813 -208 q 744 -131 758 -161 q 729 -64 729 -100 q 756 34 729 -8 q 842 96 783 76 q 769 151 794 115 q 743 235 743 188 q 755 296 743 267 q 790 347 767 325 q 849 383 814 369 q 933 396 885 396 q 1017 383 981 396 q 1076 347 1053 369 q 1112 296 1100 325 q 1124 235 1124 267 q 1096 151 1124 188 q 1022 96 1068 114 q 1110 35 1082 76 q 1138 -64 1138 -7 q 1124 -130 1138 -99 q 1083 -184 1110 -161 q 1019 -221 1057 -207 q 933 -235 981 -235 z "},"⅝":{"ha":1239,"x_min":110,"x_max":1138,"o":"m 1093 950 l 151 -203 l 110 -174 l 1051 981 l 1093 950 m 165 525 q 243 490 201 501 q 326 478 285 478 q 436 520 393 479 q 479 622 479 561 q 465 683 479 658 q 428 722 451 707 q 372 744 404 738 q 301 751 339 751 q 238 747 271 751 q 175 735 206 742 l 190 1040 l 503 1040 l 503 988 l 244 988 l 232 796 q 279 801 256 799 q 325 804 303 804 q 478 758 418 804 q 539 629 539 711 q 524 549 539 586 q 481 485 508 513 q 413 441 453 457 q 322 425 372 425 q 229 437 272 425 q 153 472 186 449 l 153 519 q 165 525 153 535 m 933 -183 q 988 -175 963 -183 q 1034 -151 1014 -167 q 1066 -111 1054 -135 q 1078 -58 1078 -87 q 1066 -7 1078 -31 q 1034 34 1054 17 q 988 61 1014 51 q 933 71 963 71 q 878 61 904 71 q 833 34 853 51 q 801 -7 813 17 q 789 -58 789 -31 q 801 -111 789 -87 q 833 -151 813 -135 q 878 -175 853 -167 q 933 -183 904 -183 m 933 125 q 981 132 957 125 q 1023 152 1004 139 q 1053 186 1042 165 q 1064 235 1064 207 q 1025 317 1064 288 q 933 346 986 346 q 842 317 881 346 q 803 235 803 288 q 814 186 803 207 q 844 152 825 165 q 886 132 863 139 q 933 125 910 125 m 933 -235 q 850 -222 888 -235 q 785 -185 813 -208 q 744 -131 758 -161 q 729 -64 729 -100 q 756 34 729 -8 q 842 96 783 76 q 769 151 794 115 q 743 235 743 188 q 755 296 743 267 q 790 347 767 325 q 849 383 814 369 q 933 396 885 396 q 1017 383 981 396 q 1076 347 1053 369 q 1112 296 1100 325 q 1124 235 1124 267 q 1096 151 1124 188 q 1022 96 1068 114 q 1110 35 1082 76 q 1138 -64 1138 -7 q 1124 -130 1138 -99 q 1083 -184 1110 -161 q 1019 -221 1057 -207 q 933 -235 981 -235 z "},"⅞":{"ha":1239,"x_min":110,"x_max":1138,"o":"m 1093 950 l 151 -203 l 110 -174 l 1051 981 l 1093 950 m 290 421 l 225 421 l 472 976 l 146 976 l 146 1029 l 536 1029 l 536 979 l 290 421 m 933 -183 q 988 -175 963 -183 q 1034 -151 1014 -167 q 1066 -111 1054 -135 q 1078 -58 1078 -87 q 1066 -7 1078 -31 q 1034 34 1054 17 q 988 61 1014 51 q 933 71 963 71 q 878 61 904 71 q 833 34 853 51 q 801 -7 813 17 q 789 -58 789 -31 q 801 -111 789 -87 q 833 -151 813 -135 q 878 -175 853 -167 q 933 -183 904 -183 m 933 125 q 981 132 957 125 q 1023 152 1004 139 q 1053 186 1042 165 q 1064 235 1064 207 q 1025 317 1064 288 q 933 346 986 346 q 842 317 881 346 q 803 235 803 288 q 814 186 803 207 q 844 152 825 165 q 886 132 863 139 q 933 125 910 125 m 933 -235 q 850 -222 888 -235 q 785 -185 813 -208 q 744 -131 758 -161 q 729 -64 729 -100 q 756 34 729 -8 q 842 96 783 76 q 769 151 794 115 q 743 235 743 188 q 755 296 743 267 q 790 347 767 325 q 849 383 814 369 q 933 396 885 396 q 1017 383 981 396 q 1076 347 1053 369 q 1112 296 1100 325 q 1124 235 1124 267 q 1096 151 1124 188 q 1022 96 1068 114 q 1110 35 1082 76 q 1138 -64 1138 -7 q 1124 -130 1138 -99 q 1083 -184 1110 -161 q 1019 -221 1057 -207 q 933 -235 981 -235 z "},"Ⅰ":{"ha":1239,"x_min":578,"x_max":660,"o":"m 660 950 l 660 -86 l 578 -86 l 578 950 l 660 950 z "},"Ⅱ":{"ha":1239,"x_min":425,"x_max":807,"o":"m 807 949 l 807 -86 l 729 -86 l 729 949 l 807 949 m 499 949 l 499 -86 l 425 -86 l 425 949 l 499 949 z "},"Ⅲ":{"ha":1239,"x_min":357,"x_max":882,"o":"m 882 950 l 882 -86 l 806 -86 l 806 950 l 882 950 m 661 950 l 661 -86 l 583 -86 l 583 950 l 661 950 m 432 950 l 432 -86 l 357 -86 l 357 950 l 432 950 z "},"Ⅳ":{"ha":1239,"x_min":221,"x_max":1114,"o":"m 1038 953 l 1114 953 l 772 -86 l 708 -86 l 358 953 l 436 953 l 739 31 l 1038 953 m 296 953 l 296 -86 l 221 -86 l 221 953 l 296 953 z "},"Ⅴ":{"ha":1239,"x_min":157,"x_max":1067,"o":"m 989 953 l 1067 953 l 642 -86 l 583 -86 l 157 953 l 236 953 l 614 21 l 989 953 z "},"Ⅵ":{"ha":1239,"x_min":143,"x_max":1021,"o":"m 1021 953 l 1021 -86 l 947 -86 l 947 953 l 1021 953 m 822 953 l 903 953 l 553 -86 l 492 -86 l 143 953 l 222 953 l 524 31 l 822 953 z "},"Ⅶ":{"ha":1239,"x_min":75,"x_max":1089,"o":"m 1089 953 l 1089 -86 l 1006 -86 l 1006 953 l 1089 953 m 896 953 l 896 -86 l 814 -86 l 814 953 l 896 953 m 683 953 l 764 953 l 449 -86 l 389 -86 l 75 953 l 153 953 l 421 39 l 683 953 z "},"Ⅷ":{"ha":1239,"x_min":24,"x_max":1153,"o":"m 1153 953 l 1153 -86 l 1074 -86 l 1074 953 l 1153 953 m 975 953 l 975 -86 l 893 -86 l 893 953 l 975 953 m 792 953 l 792 -86 l 711 -86 l 711 953 l 792 953 m 603 953 l 682 953 l 383 -86 l 318 -86 l 24 953 l 99 953 l 353 42 l 603 953 z "},"Ⅸ":{"ha":1239,"x_min":176,"x_max":1131,"o":"m 1108 951 l 763 440 l 1131 -87 l 1049 -87 l 715 388 l 386 -87 l 301 -87 l 672 442 l 326 951 l 408 951 l 717 500 l 1022 951 l 1108 951 m 256 951 l 256 -87 l 176 -87 l 176 951 l 256 951 z "},"Ⅹ":{"ha":1239,"x_min":192,"x_max":1054,"o":"m 1031 953 l 669 442 l 1054 -86 l 965 -86 l 624 390 l 281 -86 l 192 -86 l 579 446 l 215 953 l 301 953 l 625 503 l 946 953 l 1031 953 z "},"ⅰ":{"ha":1239,"x_min":578,"x_max":671,"o":"m 671 949 l 671 853 l 578 853 l 578 949 l 671 949 m 667 672 l 667 -86 l 586 -86 l 586 672 l 667 672 z "},"ⅱ":{"ha":1239,"x_min":435,"x_max":844,"o":"m 844 947 l 844 856 l 756 856 l 756 947 l 844 947 m 526 947 l 526 856 l 435 856 l 435 947 l 526 947 m 839 672 l 839 -85 l 763 -85 l 763 672 l 839 672 m 518 672 l 518 -85 l 442 -85 l 442 672 l 518 672 z "},"ⅲ":{"ha":1239,"x_min":335,"x_max":907,"o":"m 907 947 l 907 856 l 815 856 l 815 947 l 907 947 m 668 947 l 668 856 l 578 856 l 578 947 l 668 947 m 426 947 l 426 856 l 335 856 l 335 947 l 426 947 m 901 672 l 901 -85 l 822 -85 l 822 672 l 901 672 m 663 672 l 663 -85 l 585 -85 l 585 672 l 663 672 m 418 672 l 418 -85 l 344 -85 l 344 672 l 418 672 z "},"ⅳ":{"ha":1239,"x_min":226,"x_max":1121,"o":"m 319 949 l 319 853 l 226 853 l 226 949 l 319 949 m 1036 686 l 1121 686 l 774 -86 l 717 -86 l 369 686 l 454 686 l 747 38 l 1036 686 m 314 686 l 314 -86 l 239 -86 l 239 686 l 314 686 z "},"ⅴ":{"ha":1239,"x_min":260,"x_max":1014,"o":"m 932 682 l 1014 682 l 665 -90 l 611 -90 l 260 682 l 343 682 l 639 31 l 932 682 z "},"ⅵ":{"ha":1239,"x_min":140,"x_max":1054,"o":"m 1054 949 l 1054 853 l 957 853 l 957 949 l 1054 949 m 1046 682 l 1046 -86 l 968 -86 l 968 682 l 1046 682 m 813 682 l 896 682 l 547 -86 l 492 -86 l 140 682 l 226 682 l 517 33 l 813 682 z "},"ⅶ":{"ha":1239,"x_min":76,"x_max":1117,"o":"m 1117 947 l 1117 854 l 1021 854 l 1021 947 l 1117 947 m 917 947 l 917 854 l 821 854 l 821 947 l 917 947 m 1111 686 l 1111 -86 l 1028 -86 l 1028 686 l 1111 686 m 910 686 l 910 -86 l 825 -86 l 825 686 l 910 686 m 683 686 l 772 686 l 453 -86 l 396 -86 l 76 686 l 165 686 l 425 47 l 683 686 z "},"ⅷ":{"ha":1239,"x_min":32,"x_max":1161,"o":"m 1161 947 l 1161 854 l 1071 854 l 1071 947 l 1161 947 m 988 947 l 988 854 l 893 854 l 893 947 l 988 947 m 814 947 l 814 854 l 717 854 l 717 947 l 814 947 m 1156 686 l 1156 -86 l 1076 -86 l 1076 686 l 1156 686 m 978 686 l 978 -86 l 899 -86 l 899 686 l 978 686 m 804 686 l 804 -86 l 722 -86 l 722 686 l 804 686 m 588 686 l 676 686 l 386 -86 l 332 -86 l 32 686 l 124 686 l 357 53 l 588 686 z "},"ⅸ":{"ha":1239,"x_min":250,"x_max":1094,"o":"m 342 949 l 342 853 l 250 853 l 250 949 l 342 949 m 1083 686 l 779 307 l 1094 -86 l 993 -86 l 728 250 l 465 -86 l 364 -86 l 678 307 l 376 686 l 478 686 l 728 367 l 981 686 l 1083 686 m 338 686 l 338 -86 l 258 -86 l 258 686 l 338 686 z "},"ⅹ":{"ha":1239,"x_min":264,"x_max":1010,"o":"m 994 681 l 685 301 l 1010 -92 l 915 -92 l 639 246 l 358 -92 l 264 -92 l 590 301 l 276 681 l 375 681 l 639 361 l 903 681 l 994 681 z "},"←":{"ha":1239,"x_min":3,"x_max":1208,"o":"m 431 372 l 472 239 l 3 422 l 472 597 l 431 464 l 1208 464 l 1208 372 l 431 372 z "},"↑":{"ha":1239,"x_min":439,"x_max":797,"o":"m 664 669 l 664 -225 l 574 -225 l 574 669 l 439 626 l 619 1097 l 797 626 l 664 669 z "},"→":{"ha":1239,"x_min":31,"x_max":1236,"o":"m 767 239 l 810 371 l 31 371 l 31 463 l 810 463 l 767 597 l 1236 422 l 767 239 z "},"↓":{"ha":1239,"x_min":439,"x_max":797,"o":"m 619 -261 l 439 210 l 572 167 l 572 1063 l 664 1063 l 664 168 l 797 211 l 619 -261 z "},"↔":{"ha":1239,"x_min":3,"x_max":1236,"o":"m 826 183 l 868 371 l 367 371 l 410 183 l 3 418 l 410 650 l 367 464 l 868 464 l 826 650 l 1236 418 l 826 183 z "},"↕":{"ha":1239,"x_min":385,"x_max":851,"o":"m 615 -275 l 385 132 l 572 90 l 572 743 l 385 701 l 615 1108 l 851 701 l 664 743 l 664 90 l 851 132 l 615 -275 z "},"↖":{"ha":1239,"x_min":-1,"x_max":1225,"o":"m 1161 -189 l 254 718 l 214 590 l -1 1040 l 447 824 l 319 783 l 1225 -124 l 1161 -189 z "},"↗":{"ha":1239,"x_min":15,"x_max":1242,"o":"m 1026 590 l 986 718 l 81 -189 l 15 -124 l 921 783 l 793 824 l 1242 1040 l 1026 590 z "},"↘":{"ha":1239,"x_min":8,"x_max":1235,"o":"m 788 18 l 913 58 l 8 964 l 74 1029 l 978 124 l 1021 250 l 1235 -199 l 788 18 z "},"↙":{"ha":1239,"x_min":6,"x_max":1232,"o":"m 326 58 l 454 18 l 6 -199 l 221 250 l 261 124 l 1167 1029 l 1232 964 l 326 58 z "},"⇒":{"ha":1239,"x_min":44,"x_max":1232,"o":"m 938 243 l 44 243 l 44 325 l 1019 325 l 1114 415 l 1019 507 l 44 507 l 44 589 l 938 589 l 778 744 l 842 804 l 1232 415 l 842 28 l 778 88 l 938 243 z "},"⇔":{"ha":1239,"x_min":6,"x_max":1233,"o":"m 939 243 l 301 243 l 461 88 l 399 28 l 6 415 l 399 804 l 461 744 l 301 589 l 939 589 l 779 744 l 840 804 l 1233 415 l 840 28 l 779 88 l 939 243 m 125 415 l 221 325 l 1019 325 l 1114 415 l 1019 507 l 221 507 l 125 415 z "},"∀":{"ha":1239,"x_min":186,"x_max":1063,"o":"m 997 939 l 1063 939 l 668 -90 l 586 -90 l 186 942 l 256 942 l 372 649 l 886 649 l 997 939 m 628 -22 l 861 586 l 394 586 l 628 -22 z "},"∂":{"ha":619,"x_min":18,"x_max":582,"o":"m 365 1003 q 451 983 411 1003 q 519 927 490 964 q 565 838 549 890 q 582 718 582 785 q 569 590 582 663 q 536 441 557 518 q 488 289 515 364 q 429 154 460 214 q 332 35 389 75 q 221 -6 275 -6 q 140 8 178 -6 q 75 51 103 22 q 32 122 47 79 q 18 222 17 165 q 47 376 21 307 q 114 494 74 446 q 203 569 154 543 q 301 596 253 596 q 409 554 363 596 q 467 450 456 513 q 508 617 497 550 q 519 732 519 685 q 510 807 519 771 q 481 870 500 843 q 432 914 461 897 q 365 931 403 931 q 272 887 317 931 q 196 776 226 843 l 129 815 q 177 897 150 861 q 235 956 204 932 q 300 991 267 979 q 365 1003 333 1003 m 357 160 q 401 260 389 207 q 414 360 414 314 q 406 422 414 390 q 383 478 399 453 q 344 518 368 503 q 289 533 321 533 q 208 503 246 533 q 142 427 171 474 q 97 325 114 381 q 81 218 81 269 q 89 157 81 186 q 115 106 97 128 q 158 72 132 85 q 218 58 183 58 q 297 87 265 58 q 357 160 329 115 z "},"∃":{"ha":1239,"x_min":321,"x_max":986,"o":"m 986 938 l 986 -87 l 340 -87 l 340 -28 l 919 -28 l 919 386 l 357 386 l 357 442 l 919 442 l 919 875 l 321 875 l 321 938 l 986 938 z "},"∇":{"ha":1239,"x_min":6,"x_max":1232,"o":"m 621 -122 l 6 942 l 1232 942 l 621 -122 m 101 885 l 621 -1 l 1133 885 l 101 885 z "},"∈":{"ha":1239,"x_min":110,"x_max":1097,"o":"m 1096 446 l 1096 385 l 174 385 q 198 285 176 336 q 259 191 219 233 q 358 122 299 149 q 494 94 417 94 l 1097 94 l 1097 35 l 522 35 q 349 63 425 35 q 219 143 272 92 q 138 264 165 194 q 110 417 110 333 q 138 567 110 497 q 219 688 165 636 q 349 767 272 739 q 522 796 425 796 l 1097 796 l 1097 736 l 494 736 q 358 709 417 736 q 259 640 299 682 q 198 546 219 597 q 174 446 176 494 l 1096 446 z "},"∋":{"ha":1239,"x_min":143,"x_max":1117,"o":"m 1053 385 l 144 385 l 144 446 l 1053 446 q 1029 548 1050 496 q 969 642 1008 600 q 870 710 929 683 q 732 736 811 736 l 143 736 l 143 796 l 706 796 q 879 767 803 796 q 1008 688 956 739 q 1089 567 1061 636 q 1117 417 1117 497 q 1089 264 1117 333 q 1008 143 1061 194 q 879 63 956 92 q 706 35 803 35 l 143 35 l 143 94 l 732 94 q 865 121 806 94 q 965 189 924 147 q 1028 282 1006 231 q 1053 385 1051 333 z "},"∏":{"ha":1239,"x_min":171,"x_max":1069,"o":"m 1069 890 l 1069 811 l 863 811 l 863 -54 l 792 -54 l 792 811 l 444 811 l 444 -54 l 376 -54 l 376 811 l 171 811 l 171 890 l 1069 890 z "},"∑":{"ha":1239,"x_min":207,"x_max":1078,"o":"m 425 960 l 1078 960 l 1065 865 l 490 865 l 765 494 l 328 78 l 951 78 l 929 -12 l 207 -12 l 226 74 l 665 500 l 399 864 l 425 960 z "},"√":{"ha":1239,"x_min":44,"x_max":1168,"o":"m 1168 1032 l 739 1032 l 363 -129 l 139 444 l 58 360 q 51 374 56 368 q 44 386 47 379 l 189 540 l 382 58 l 704 1076 l 1168 1076 l 1168 1032 z "},"∝":{"ha":1239,"x_min":125,"x_max":1119,"o":"m 1086 239 q 1102 215 1094 225 q 1119 190 1110 206 q 1047 154 1082 167 q 963 142 1013 142 q 842 168 893 142 q 757 229 792 194 q 703 295 722 264 q 681 338 685 326 q 659 294 678 326 q 606 228 640 263 q 520 168 571 194 q 403 142 469 142 q 294 163 344 142 q 206 222 243 185 q 147 310 168 260 q 125 417 125 360 q 147 522 125 472 q 206 608 168 571 q 294 667 243 646 q 403 689 344 689 q 520 663 469 689 q 606 601 571 636 q 659 535 640 567 q 681 493 678 503 q 706 535 686 503 q 759 601 725 567 q 844 663 793 636 q 963 689 894 689 q 1048 676 1011 689 q 1118 640 1085 663 q 1103 616 1108 626 q 1086 593 1097 606 q 1031 619 1060 611 q 963 626 1003 626 q 881 611 917 626 q 817 574 844 596 q 771 525 790 551 q 740 475 751 499 q 722 435 728 451 q 714 417 715 419 q 722 397 715 414 q 740 358 728 381 q 771 308 751 335 q 817 258 790 281 q 881 221 844 236 q 963 206 917 206 q 1033 215 1003 206 q 1086 239 1063 224 m 650 417 q 628 465 644 431 q 583 536 613 500 q 509 599 554 572 q 401 626 464 626 q 317 610 356 626 q 249 566 278 594 q 204 499 221 538 q 188 417 188 461 q 204 333 188 371 q 249 266 221 294 q 317 222 278 238 q 401 206 356 206 q 510 237 464 206 q 588 306 557 268 q 633 378 618 344 q 650 417 649 411 z "},"∞":{"ha":1239,"x_min":110,"x_max":1128,"o":"m 358 671 q 473 644 425 671 q 552 585 521 618 q 599 521 583 551 q 618 482 615 490 q 635 521 619 490 q 683 585 651 551 q 762 644 714 618 q 876 671 810 671 q 974 651 928 671 q 1053 596 1019 631 q 1108 516 1088 561 q 1128 419 1128 471 q 1108 321 1128 367 q 1053 240 1088 275 q 974 185 1019 206 q 876 165 928 165 q 762 192 810 165 q 683 251 714 218 q 635 315 651 285 q 618 353 619 346 q 599 315 615 346 q 552 251 583 285 q 473 192 521 218 q 358 165 425 165 q 263 185 308 165 q 184 240 218 206 q 130 321 150 275 q 110 419 110 367 q 130 516 110 471 q 184 596 150 561 q 263 651 218 631 q 358 671 308 671 m 358 615 q 283 600 318 615 q 222 558 247 585 q 181 496 196 532 q 165 419 165 460 q 181 342 165 378 q 222 278 196 306 q 283 236 247 251 q 358 221 318 221 q 460 251 418 221 q 530 317 503 281 q 572 385 557 353 q 590 419 586 417 q 580 436 588 421 q 560 473 572 451 q 531 519 549 494 q 488 566 513 544 q 431 601 463 588 q 358 615 399 615 m 876 221 q 952 236 917 221 q 1015 278 988 251 q 1058 342 1042 306 q 1074 419 1074 378 q 1058 496 1074 460 q 1015 558 1042 532 q 952 600 988 585 q 876 615 917 615 q 805 601 836 615 q 749 566 774 588 q 706 519 724 544 q 675 473 688 494 q 655 436 663 451 q 644 419 647 421 q 665 385 650 417 q 706 317 679 353 q 775 251 733 281 q 876 221 817 221 z "},"∠":{"ha":1239,"x_min":136,"x_max":1107,"o":"m 1107 31 l 1107 -25 l 157 -25 q 137 -6 133 -25 q 158 31 140 13 l 982 861 l 1025 819 l 244 31 l 1107 31 z "},"∥":{"ha":1239,"x_min":443,"x_max":793,"o":"m 793 -278 l 732 -278 l 732 1111 l 793 1111 l 793 -278 m 503 -278 l 443 -278 l 443 1111 l 503 1111 l 503 -278 z "},"∧":{"ha":1239,"x_min":146,"x_max":1090,"o":"m 1090 -32 l 1029 -65 l 618 778 l 206 -65 l 146 -32 l 582 865 q 617 894 593 892 q 654 865 642 897 l 1090 -32 z "},"∨":{"ha":1239,"x_min":146,"x_max":1090,"o":"m 1029 900 l 1090 865 l 654 -31 q 617 -62 639 -67 q 582 -31 596 -58 l 146 865 l 206 900 l 618 56 l 1029 900 z "},"∩":{"ha":1239,"x_min":221,"x_max":1013,"o":"m 1013 -79 l 944 -79 l 944 531 q 914 681 944 618 q 836 784 883 743 q 733 844 789 825 q 625 863 676 863 l 611 863 q 502 844 558 863 q 399 784 446 825 q 322 681 351 743 q 292 531 292 618 l 292 -79 l 221 -79 l 221 508 q 251 687 221 607 q 335 822 282 767 q 460 908 388 878 q 618 938 533 938 q 774 908 701 938 q 899 822 846 878 q 983 687 953 767 q 1013 508 1013 607 l 1013 -79 z "},"∪":{"ha":1239,"x_min":201,"x_max":994,"o":"m 994 910 l 994 324 q 964 146 994 225 q 881 10 933 67 q 755 -76 828 -46 q 599 -107 682 -107 q 441 -76 514 -107 q 315 10 368 -46 q 232 146 263 67 q 201 324 201 225 l 201 910 l 272 910 l 272 301 q 302 151 272 214 q 379 47 332 88 q 482 -12 426 7 q 590 -32 538 -32 l 606 -32 q 713 -12 657 -32 q 815 47 768 7 q 892 151 861 88 q 922 301 922 214 l 922 910 l 994 910 z "},"∫":{"ha":1239,"x_min":285,"x_max":933,"o":"m 803 1024 q 899 999 865 1024 q 933 936 933 975 q 915 885 933 904 q 868 867 896 867 q 822 887 836 867 q 810 957 807 907 q 798 984 811 974 q 766 994 785 994 q 727 977 747 993 q 693 926 707 961 q 666 849 674 889 q 658 754 658 808 q 663 649 660 707 q 670 527 667 590 q 676 398 674 464 q 677 270 679 332 q 668 153 675 208 q 647 54 661 97 q 551 -84 619 -33 q 396 -135 482 -135 q 313 -110 342 -135 q 285 -44 285 -85 q 302 0 285 -17 q 347 17 319 17 q 392 -1 375 17 q 411 -56 408 -19 q 418 -86 413 -75 q 443 -97 424 -97 q 506 -73 476 -97 q 556 -9 535 -49 q 590 81 578 31 q 601 181 601 131 q 597 269 600 218 q 589 378 593 319 q 581 501 585 438 q 578 628 578 565 q 593 813 578 733 q 638 938 608 893 q 803 1024 700 1024 z "},"∬":{"ha":1239,"x_min":214,"x_max":1046,"o":"m 661 1022 q 714 1001 693 1022 q 735 950 735 981 q 721 908 735 924 q 683 893 707 893 q 646 906 658 894 q 625 933 633 918 q 610 961 617 947 q 590 982 603 975 q 567 953 579 972 q 543 906 554 933 q 524 844 532 879 q 515 765 517 808 q 518 658 517 703 q 520 579 519 614 q 522 517 521 544 q 522 461 522 489 q 523 400 522 433 q 524 322 524 367 q 461 -10 524 111 q 426 -60 447 -37 q 380 -100 404 -83 q 330 -126 356 -117 q 282 -136 304 -136 q 233 -118 251 -136 q 214 -72 214 -100 q 228 -32 215 -46 q 256 -16 240 -18 q 287 -25 272 -14 q 306 -60 301 -36 q 320 -90 310 -79 q 343 -100 331 -100 q 378 -81 363 -100 q 401 -44 394 -62 q 424 25 414 -14 q 442 106 435 64 q 452 190 449 147 q 456 272 456 232 l 447 625 q 447 717 446 678 q 454 787 449 757 q 469 842 460 817 q 490 890 478 867 q 567 988 519 953 q 661 1022 615 1022 m 964 1022 q 1022 1001 999 1022 q 1046 950 1046 981 q 1030 909 1044 924 q 995 892 1015 894 q 956 902 975 890 q 928 942 938 914 q 910 969 921 958 q 890 979 899 979 q 875 963 886 976 q 852 924 864 950 q 831 859 840 899 q 819 764 821 819 q 822 610 821 685 q 825 474 824 535 q 827 372 826 414 q 828 313 828 329 q 813 130 828 208 q 767 -11 797 51 q 688 -103 738 -69 q 590 -137 639 -137 q 537 -119 556 -137 q 518 -72 518 -101 q 530 -36 518 -50 q 557 -20 542 -22 q 588 -28 572 -18 q 611 -60 603 -37 q 626 -89 617 -79 q 647 -99 636 -99 q 682 -79 667 -99 q 710 -30 697 -60 q 732 38 722 0 q 749 115 742 76 q 757 231 756 157 q 756 390 758 306 q 751 559 754 475 q 749 706 749 643 q 765 827 747 769 q 814 928 783 885 q 883 997 844 971 q 964 1022 922 1022 z "},"∮":{"ha":1239,"x_min":289,"x_max":946,"o":"m 946 911 q 882 851 946 851 q 844 865 854 851 q 831 890 833 879 q 828 906 829 894 q 824 928 828 917 q 812 947 819 939 q 789 953 804 954 q 759 942 769 951 q 733 903 749 933 q 715 858 722 875 q 704 825 708 842 q 697 788 700 808 q 689 732 693 767 q 683 677 686 711 q 676 596 681 643 q 799 529 760 579 q 838 406 838 479 q 790 275 838 326 q 651 213 743 224 q 633 64 646 121 q 611 -22 621 7 q 528 -131 582 -94 q 403 -167 475 -167 q 319 -147 350 -167 q 289 -87 289 -126 q 305 -40 289 -58 q 351 -21 321 -21 q 390 -30 367 -21 q 422 -69 413 -39 q 424 -86 424 -76 q 426 -106 424 -96 q 433 -122 428 -115 q 453 -129 439 -129 q 501 -109 481 -131 q 534 -53 521 -87 q 556 23 547 -18 q 567 103 564 64 q 572 172 571 142 q 572 215 574 203 q 453 281 496 231 q 411 404 411 331 q 460 535 411 481 q 599 601 510 590 q 612 711 606 663 q 626 790 618 760 q 713 942 656 888 q 847 996 769 996 q 919 974 893 996 q 946 911 946 953 m 806 408 q 774 508 806 461 q 676 567 743 554 q 669 493 674 533 q 662 410 665 453 q 656 323 658 367 q 654 242 654 279 q 766 297 726 250 q 806 408 806 343 m 596 571 q 538 553 565 568 q 491 514 511 538 q 459 462 471 490 q 447 406 447 433 q 481 303 447 349 q 574 247 515 258 q 584 419 579 344 q 596 571 589 493 z "},"∴":{"ha":1239,"x_min":160,"x_max":1064,"o":"m 622 817 q 683 790 657 817 q 708 728 708 763 q 681 668 708 696 q 618 640 654 640 q 585 649 600 640 q 559 671 569 657 q 543 701 549 685 q 538 733 538 717 q 545 765 538 750 q 565 791 553 779 q 592 810 578 803 q 622 817 607 817 m 978 197 q 1038 171 1011 197 q 1064 111 1064 144 q 1056 79 1064 94 q 1035 51 1049 64 q 1006 31 1022 39 q 974 24 990 24 q 940 32 956 24 q 915 53 925 40 q 898 83 904 67 q 892 115 892 99 q 899 147 892 132 q 919 172 907 161 q 947 190 932 183 q 978 197 963 197 m 335 113 q 325 69 335 86 q 301 42 315 51 q 271 28 286 32 q 243 25 256 25 q 210 33 225 25 q 183 55 194 42 q 166 84 172 68 q 160 117 160 100 q 168 147 160 132 q 189 173 176 161 q 217 192 201 185 q 247 199 232 199 q 308 172 281 199 q 335 113 335 146 z "},"∵":{"ha":1239,"x_min":154,"x_max":1079,"o":"m 1079 728 q 1053 668 1079 694 q 992 642 1026 642 q 962 649 976 642 q 935 667 947 656 q 915 692 922 678 q 907 722 907 707 q 913 756 907 739 q 930 787 919 774 q 956 809 940 800 q 989 818 971 818 q 1022 810 1006 818 q 1051 790 1039 803 q 1072 760 1064 776 q 1079 728 1079 744 m 329 728 q 303 668 329 694 q 243 642 276 642 q 183 666 211 642 q 154 722 154 690 q 178 787 154 756 q 240 818 203 818 q 272 810 256 818 q 300 790 288 803 q 321 760 313 776 q 329 728 329 744 m 706 118 q 678 58 706 82 q 618 33 651 33 q 588 40 603 33 q 561 57 574 46 q 541 82 549 68 q 533 113 533 96 q 539 146 533 129 q 556 176 544 163 q 581 198 567 189 q 615 207 596 207 q 649 199 632 207 q 678 179 665 192 q 698 151 690 167 q 706 118 706 135 z "},"∼":{"ha":1239,"x_min":169,"x_max":1069,"o":"m 613 390 l 554 432 q 524 451 539 443 q 490 461 510 458 q 415 467 449 469 q 355 453 382 464 q 306 428 328 443 q 264 397 283 413 q 231 363 246 382 q 201 333 215 344 q 172 322 186 315 q 169 353 158 328 q 208 412 181 375 q 274 483 236 449 q 360 542 313 518 q 456 565 407 567 q 563 536 518 563 q 647 482 608 510 q 715 431 679 457 q 792 400 751 404 q 874 408 835 397 q 945 438 913 419 q 1002 479 978 457 q 1042 522 1026 501 q 1052 530 1046 529 q 1063 527 1058 531 q 1069 517 1068 524 q 1067 501 1071 510 q 1032 447 1057 481 q 970 380 1007 413 q 889 325 933 347 q 797 306 844 303 q 740 315 767 307 q 692 336 714 324 q 650 363 669 349 q 613 390 631 378 z "},"∽":{"ha":1239,"x_min":94,"x_max":1154,"o":"m 478 564 q 428 588 463 572 q 343 603 394 603 q 265 587 299 603 q 208 544 231 571 q 174 484 185 518 q 163 415 163 450 q 174 344 163 379 q 210 283 186 310 q 270 238 233 256 q 356 221 307 221 q 450 247 410 221 q 522 313 490 274 q 578 397 553 353 q 625 478 603 442 q 675 552 649 518 q 734 610 701 586 q 806 649 767 635 q 894 663 846 663 q 990 646 943 663 q 1073 597 1036 629 q 1132 515 1110 564 q 1154 400 1154 465 q 1133 306 1151 350 q 1083 229 1115 263 q 1006 177 1051 196 q 901 158 960 158 q 837 165 865 158 q 789 181 808 172 q 758 197 769 189 q 743 207 746 204 q 757 235 750 222 q 771 264 764 247 q 790 255 776 261 q 821 242 803 249 q 862 229 839 235 q 908 224 885 224 q 978 238 946 224 q 1036 275 1011 251 q 1075 329 1061 299 q 1089 392 1089 360 q 1075 473 1089 435 q 1035 539 1061 511 q 974 583 1010 567 q 892 599 938 599 q 808 578 843 599 q 744 527 772 558 q 695 460 717 496 q 653 390 674 424 q 615 328 638 367 q 558 251 593 289 q 475 187 524 214 q 360 160 426 160 q 265 176 313 160 q 180 224 218 192 q 118 305 142 257 q 94 417 94 353 q 112 508 94 464 q 162 588 129 553 q 242 644 194 622 q 349 665 289 665 q 412 658 383 665 q 460 642 440 651 q 492 626 481 633 q 507 617 504 618 l 478 564 z "},"≒":{"ha":1239,"x_min":151,"x_max":1085,"o":"m 151 499 l 151 563 l 1085 563 l 1085 499 l 151 499 m 151 268 l 151 332 l 1085 332 l 1085 268 l 151 268 m 254 779 q 279 842 254 818 q 340 867 304 867 q 403 842 379 867 q 428 779 428 818 q 403 715 428 740 q 340 690 379 690 q 279 715 304 690 q 254 779 254 740 m 808 54 q 833 116 808 90 q 896 142 858 142 q 957 116 932 142 q 982 54 982 90 q 957 -10 982 15 q 896 -35 932 -35 q 833 -10 858 -35 q 808 54 808 15 z "},"≠":{"ha":1239,"x_min":276,"x_max":961,"o":"m 276 669 l 699 669 l 828 888 l 886 853 l 778 669 l 961 669 l 961 601 l 738 601 l 603 374 l 961 374 l 961 306 l 561 306 l 433 89 l 374 124 l 482 306 l 276 306 l 276 374 l 522 374 l 658 601 l 276 601 l 276 669 z "},"≡":{"ha":1239,"x_min":151,"x_max":1082,"o":"m 1082 615 l 153 615 l 153 675 l 1082 675 l 1082 615 m 1082 386 l 151 386 l 151 444 l 1082 444 l 1082 386 m 1082 156 l 151 156 l 151 215 l 1082 215 l 1082 156 z "},"≤":{"ha":1239,"x_min":192,"x_max":1043,"o":"m 1043 58 l 1043 -7 l 192 -7 l 192 58 l 1043 58 m 965 217 l 222 600 l 947 983 l 976 922 l 369 601 l 1000 279 l 965 217 z "},"≥":{"ha":1239,"x_min":192,"x_max":1043,"o":"m 192 58 l 1043 58 l 1043 -7 l 192 -7 l 192 58 m 269 217 l 235 279 l 865 601 l 258 922 l 288 983 l 1013 600 l 269 217 z "},"≪":{"ha":1239,"x_min":83,"x_max":1165,"o":"m 1165 -39 l 1119 -93 q 936 36 1022 -25 q 767 156 850 97 q 603 271 685 214 q 435 386 522 328 q 419 400 425 393 q 413 417 413 407 q 422 433 413 425 q 442 449 431 442 l 1121 925 l 1163 865 l 513 417 l 1165 -39 m 836 -39 l 792 -93 q 608 37 694 -25 q 438 157 521 99 q 274 272 356 215 q 106 386 192 328 q 90 400 96 393 q 83 417 83 407 q 92 433 83 425 q 111 447 100 440 l 793 925 l 833 865 l 183 417 l 836 -39 z "},"≫":{"ha":1239,"x_min":64,"x_max":1149,"o":"m 1149 417 q 1144 404 1149 410 q 1135 393 1140 399 q 1125 388 1129 390 q 1117 382 1121 385 l 439 -93 l 394 -39 l 1049 417 l 399 865 l 439 925 l 1118 449 q 1139 433 1129 442 q 1149 417 1149 425 m 821 417 q 803 394 821 403 q 797 388 801 392 q 788 381 793 385 l 110 -93 l 64 -39 l 717 417 l 68 865 l 110 925 l 789 449 q 810 434 799 442 q 821 417 821 426 z "},"⊂":{"ha":1239,"x_min":108,"x_max":1113,"o":"m 1113 29 l 511 29 l 511 28 q 345 57 419 28 q 218 138 271 86 q 137 261 165 190 q 108 417 108 332 q 137 571 108 500 q 219 694 165 642 q 351 775 274 746 q 528 804 429 804 l 1113 804 l 1113 738 l 493 738 q 353 707 413 738 q 254 629 293 676 q 197 527 215 582 q 178 422 178 472 l 178 410 q 197 304 178 360 q 254 203 215 249 q 353 126 293 157 q 493 96 413 96 l 1113 96 l 1113 29 z "},"⊃":{"ha":1239,"x_min":122,"x_max":1126,"o":"m 707 29 l 122 28 l 122 94 l 740 94 q 882 125 822 94 q 981 202 942 156 q 1040 304 1021 249 q 1058 410 1058 360 l 1058 422 q 1040 527 1058 472 q 981 628 1021 582 q 882 706 942 675 q 740 736 822 736 l 122 736 l 122 804 l 707 804 q 882 775 804 804 q 1014 694 960 746 q 1097 571 1068 642 q 1126 417 1126 500 q 1097 261 1126 332 q 1014 139 1068 190 q 882 58 960 88 q 707 29 804 29 z "},"⊆":{"ha":1239,"x_min":108,"x_max":1126,"o":"m 1113 193 l 511 193 l 511 192 q 334 217 410 192 q 208 287 258 242 q 133 393 158 332 q 108 525 108 454 q 134 657 108 596 q 212 763 160 718 q 342 833 264 808 q 528 858 421 858 l 1113 858 l 1113 792 l 493 792 q 350 767 410 792 q 252 705 290 743 q 195 619 214 667 q 176 525 176 572 q 195 429 176 476 q 252 344 214 382 q 350 283 290 307 q 493 260 410 260 l 1113 260 l 1113 193 m 1126 -26 l 108 -26 l 108 42 l 1126 42 l 1126 -26 z "},"⊇":{"ha":1239,"x_min":108,"x_max":1126,"o":"m 707 193 l 122 192 l 122 258 l 740 258 q 883 282 824 258 q 983 343 943 306 q 1041 428 1022 381 q 1060 525 1060 476 q 1041 619 1060 572 q 983 705 1022 667 q 883 767 943 743 q 740 790 824 790 l 122 790 l 122 858 l 707 858 q 892 833 814 858 q 1023 763 971 808 q 1101 657 1075 718 q 1126 525 1126 596 q 1101 393 1126 454 q 1024 288 1076 332 q 894 218 972 243 q 707 193 815 193 m 1126 -26 l 108 -26 l 108 42 l 1126 42 l 1126 -26 z "},"⊙":{"ha":1239,"x_min":46,"x_max":1188,"o":"m 625 -154 q 394 -110 500 -154 q 211 10 289 -67 q 90 190 133 86 q 46 417 46 294 q 90 639 46 536 q 213 817 135 742 q 396 936 290 893 q 625 979 501 979 q 849 936 746 979 q 1026 817 951 893 q 1144 639 1101 742 q 1188 417 1188 536 q 1144 189 1188 293 q 1026 8 1101 85 q 849 -111 951 -68 q 625 -154 746 -154 m 625 150 q 513 169 564 150 q 426 224 463 189 q 370 309 390 260 q 350 417 350 358 q 370 522 350 474 q 426 603 390 569 q 513 657 463 638 q 625 676 564 676 q 732 657 683 676 q 815 603 781 638 q 869 522 850 569 q 889 417 889 474 q 869 309 889 358 q 813 224 849 260 q 730 169 778 189 q 625 150 682 150 m 625 928 q 424 887 518 928 q 261 776 331 846 q 151 613 192 706 q 111 417 111 519 q 151 215 111 310 q 262 50 192 121 q 425 -62 332 -21 q 625 -103 518 -103 q 819 -62 728 -103 q 978 50 910 -21 q 1087 215 1047 121 q 1126 417 1126 310 q 1085 614 1126 521 q 976 776 1044 707 q 816 887 907 846 q 625 928 725 928 z "},"⊥":{"ha":1239,"x_min":158,"x_max":1076,"o":"m 158 42 l 578 42 l 578 833 l 657 833 l 657 42 l 1076 42 l 1076 -12 l 158 -12 l 158 42 z "},"⌒":{"ha":1239,"x_min":132,"x_max":1085,"o":"m 199 792 l 132 792 q 186 910 144 856 q 291 1006 228 965 q 435 1069 354 1046 q 608 1093 517 1093 q 781 1069 700 1093 q 926 1006 863 1046 q 1031 910 989 965 q 1085 792 1072 856 l 1017 792 q 967 896 1004 849 q 874 977 929 943 q 751 1030 819 1011 q 608 1049 682 1049 q 465 1030 533 1049 q 342 978 397 1011 q 250 897 288 944 q 199 792 213 850 z "},"①":{"ha":1239,"x_min":25,"x_max":1215,"o":"m 621 1032 q 851 983 743 1032 q 1041 851 960 935 q 1169 656 1122 768 q 1215 418 1215 544 q 1169 178 1215 290 q 1041 -17 1122 67 q 851 -149 960 -100 q 621 -197 743 -197 q 389 -149 497 -197 q 199 -17 281 -100 q 72 178 118 67 q 25 418 25 290 q 70 665 25 553 q 196 859 115 778 q 385 986 276 940 q 621 1032 493 1032 m 621 994 q 401 950 503 994 q 226 828 300 906 q 110 646 153 751 q 68 418 68 540 q 111 194 68 299 q 229 10 154 89 q 405 -114 304 -68 q 621 -160 506 -160 q 835 -114 735 -160 q 1011 10 936 -68 q 1129 194 1086 89 q 1172 418 1172 299 q 1129 641 1172 536 q 1011 824 1086 746 q 835 949 936 903 q 621 994 735 994 m 449 613 l 449 668 q 526 713 489 685 q 592 772 564 740 l 674 772 l 674 53 l 599 53 l 599 681 q 528 636 567 656 q 463 606 490 617 q 449 613 449 597 z "},"②":{"ha":1239,"x_min":25,"x_max":1215,"o":"m 621 1032 q 851 983 743 1032 q 1041 851 960 935 q 1169 656 1122 768 q 1215 418 1215 544 q 1169 178 1215 290 q 1041 -17 1122 67 q 851 -149 960 -100 q 621 -197 743 -197 q 389 -149 497 -197 q 199 -17 281 -100 q 72 178 118 67 q 25 418 25 290 q 70 665 25 553 q 196 859 115 778 q 385 986 276 940 q 621 1032 493 1032 m 621 994 q 401 950 503 994 q 226 828 300 906 q 110 646 153 751 q 68 418 68 540 q 111 194 68 299 q 229 10 154 89 q 405 -114 304 -68 q 621 -160 506 -160 q 835 -114 735 -160 q 1011 10 936 -68 q 1129 194 1086 89 q 1172 418 1172 299 q 1129 641 1172 536 q 1011 824 1086 746 q 835 949 936 903 q 621 994 735 994 m 444 654 q 433 651 438 649 q 428 660 428 653 l 428 728 q 517 782 467 758 q 631 806 568 806 q 789 759 731 806 q 847 617 847 713 q 837 554 847 583 q 808 496 826 525 q 763 435 789 467 q 704 365 736 403 l 504 142 l 858 142 l 858 74 l 401 74 l 401 135 l 633 389 q 698 469 672 436 q 739 525 724 501 q 761 569 754 549 q 768 614 768 589 q 736 708 768 676 q 633 739 704 739 q 537 717 585 739 q 444 654 489 696 z "},"③":{"ha":1239,"x_min":25,"x_max":1215,"o":"m 621 1032 q 851 983 743 1032 q 1041 851 960 935 q 1169 656 1122 768 q 1215 418 1215 544 q 1169 178 1215 290 q 1041 -17 1122 67 q 851 -149 960 -100 q 621 -197 743 -197 q 389 -149 497 -197 q 199 -17 281 -100 q 72 178 118 67 q 25 418 25 290 q 70 665 25 553 q 196 859 115 778 q 385 986 276 940 q 621 1032 493 1032 m 621 994 q 401 950 503 994 q 226 828 300 906 q 110 646 153 751 q 68 418 68 540 q 111 194 68 299 q 229 10 154 89 q 405 -114 304 -68 q 621 -160 506 -160 q 835 -114 735 -160 q 1011 10 936 -68 q 1129 194 1086 89 q 1172 418 1172 299 q 1129 641 1172 536 q 1011 824 1086 746 q 835 949 936 903 q 621 994 735 994 m 413 193 q 506 135 451 156 q 618 114 560 114 q 733 151 685 114 q 781 254 781 188 q 729 365 781 329 q 589 400 678 400 l 560 400 l 560 465 l 576 465 q 634 471 601 465 q 694 491 667 476 q 742 532 722 506 q 761 600 761 558 q 723 691 761 658 q 619 724 685 724 q 526 707 571 724 q 433 650 481 690 q 421 645 426 643 q 415 656 415 647 l 415 721 q 502 769 446 749 q 617 789 558 789 q 779 737 721 789 q 838 607 838 685 q 809 503 838 549 q 732 436 781 457 q 820 372 783 419 q 857 254 857 325 q 841 176 857 214 q 794 110 825 139 q 719 65 764 82 q 615 47 674 47 q 492 67 551 47 q 396 124 432 88 l 396 189 q 401 198 396 196 q 413 193 406 200 z "},"④":{"ha":1239,"x_min":25,"x_max":1215,"o":"m 621 1032 q 851 983 743 1032 q 1041 851 960 935 q 1169 656 1122 768 q 1215 418 1215 544 q 1169 178 1215 290 q 1041 -17 1122 67 q 851 -149 960 -100 q 621 -197 743 -197 q 389 -149 497 -197 q 199 -17 281 -100 q 72 178 118 67 q 25 418 25 290 q 70 665 25 553 q 196 859 115 778 q 385 986 276 940 q 621 1032 493 1032 m 621 994 q 401 950 503 994 q 226 828 300 906 q 110 646 153 751 q 68 418 68 540 q 111 194 68 299 q 229 10 154 89 q 405 -114 304 -68 q 621 -160 506 -160 q 835 -114 735 -160 q 1011 10 936 -68 q 1129 194 1086 89 q 1172 418 1172 299 q 1129 641 1172 536 q 1011 824 1086 746 q 835 949 936 903 q 621 994 735 994 m 308 286 l 644 786 l 728 786 l 728 296 l 842 296 l 842 232 l 728 232 l 728 67 l 654 67 l 654 232 l 308 232 l 308 286 m 658 294 l 658 689 l 649 669 l 393 294 l 658 294 z "},"⑤":{"ha":1239,"x_min":25,"x_max":1215,"o":"m 621 1032 q 851 983 743 1032 q 1041 851 960 935 q 1169 656 1122 768 q 1215 418 1215 544 q 1169 178 1215 290 q 1041 -17 1122 67 q 851 -149 960 -100 q 621 -197 743 -197 q 389 -149 497 -197 q 199 -17 281 -100 q 72 178 118 67 q 25 418 25 290 q 70 665 25 553 q 196 859 115 778 q 385 986 276 940 q 621 1032 493 1032 m 621 994 q 401 950 503 994 q 226 828 300 906 q 110 646 153 751 q 68 418 68 540 q 111 194 68 299 q 229 10 154 89 q 405 -114 304 -68 q 621 -160 506 -160 q 835 -114 735 -160 q 1011 10 936 -68 q 1129 194 1086 89 q 1172 418 1172 299 q 1129 641 1172 536 q 1011 824 1086 746 q 835 949 936 903 q 621 994 735 994 m 422 172 q 515 130 464 144 q 615 115 567 115 q 688 130 654 117 q 745 165 721 143 q 783 218 769 188 q 797 283 797 249 q 781 356 797 326 q 735 403 764 385 q 669 428 707 421 q 586 436 631 436 q 510 430 550 436 q 432 417 471 424 l 453 778 l 828 778 l 828 714 l 519 714 l 506 492 q 560 497 532 494 q 613 499 588 499 q 716 485 668 499 q 798 444 764 471 q 851 378 832 417 q 871 293 871 340 q 853 199 871 243 q 801 122 835 154 q 719 72 767 90 q 611 53 671 53 q 407 108 488 53 l 407 167 q 422 172 407 185 z "},"⑥":{"ha":1239,"x_min":25,"x_max":1215,"o":"m 621 1032 q 851 983 743 1032 q 1041 851 960 935 q 1169 656 1122 768 q 1215 418 1215 544 q 1169 178 1215 290 q 1041 -17 1122 67 q 851 -149 960 -100 q 621 -197 743 -197 q 389 -149 497 -197 q 199 -17 281 -100 q 72 178 118 67 q 25 418 25 290 q 70 665 25 553 q 196 859 115 778 q 385 986 276 940 q 621 1032 493 1032 m 621 994 q 401 950 503 994 q 226 828 300 906 q 110 646 153 751 q 68 418 68 540 q 111 194 68 299 q 229 10 154 89 q 405 -114 304 -68 q 621 -160 506 -160 q 835 -114 735 -160 q 1011 10 936 -68 q 1129 194 1086 89 q 1172 418 1172 299 q 1129 641 1172 536 q 1011 824 1086 746 q 835 949 936 903 q 621 994 735 994 m 814 679 q 688 714 757 714 q 600 692 639 714 q 533 633 561 671 q 487 545 504 596 q 464 436 469 494 q 535 499 492 478 q 636 519 579 519 q 724 501 683 519 q 794 451 764 483 q 840 376 824 419 q 857 282 857 332 q 840 181 857 226 q 792 103 822 136 q 717 53 761 71 q 622 36 674 36 q 515 62 560 36 q 442 132 471 88 q 401 238 414 176 q 388 372 388 300 q 404 514 388 442 q 458 644 421 586 q 551 740 494 703 q 686 778 607 778 q 762 770 728 778 q 828 746 796 763 l 828 688 q 814 679 828 672 m 468 275 q 480 207 468 239 q 513 151 492 175 q 563 114 533 128 q 625 100 592 100 q 695 115 665 100 q 744 156 725 131 q 773 213 764 181 q 782 278 782 244 q 773 347 782 314 q 745 403 764 379 q 697 442 726 428 q 629 456 668 456 q 560 441 589 456 q 512 402 532 426 q 481 345 492 378 q 468 275 471 313 z "},"⑦":{"ha":1239,"x_min":25,"x_max":1215,"o":"m 621 1032 q 851 983 743 1032 q 1041 851 960 935 q 1169 656 1122 768 q 1215 418 1215 544 q 1169 178 1215 290 q 1041 -17 1122 67 q 851 -149 960 -100 q 621 -197 743 -197 q 389 -149 497 -197 q 199 -17 281 -100 q 72 178 118 67 q 25 418 25 290 q 70 665 25 553 q 196 859 115 778 q 385 986 276 940 q 621 1032 493 1032 m 621 994 q 401 950 503 994 q 226 828 300 906 q 110 646 153 751 q 68 418 68 540 q 111 194 68 299 q 229 10 154 89 q 405 -114 304 -68 q 621 -160 506 -160 q 835 -114 735 -160 q 1011 10 936 -68 q 1129 194 1086 89 q 1172 418 1172 299 q 1129 641 1172 536 q 1011 824 1086 746 q 835 949 936 903 q 621 994 735 994 m 551 29 l 471 29 l 765 683 l 376 683 l 376 747 l 844 747 l 844 688 l 551 29 z "},"⑧":{"ha":1239,"x_min":25,"x_max":1215,"o":"m 621 1032 q 851 983 743 1032 q 1041 851 960 935 q 1169 656 1122 768 q 1215 418 1215 544 q 1169 178 1215 290 q 1041 -17 1122 67 q 851 -149 960 -100 q 621 -197 743 -197 q 389 -149 497 -197 q 199 -17 281 -100 q 72 178 118 67 q 25 418 25 290 q 70 665 25 553 q 196 859 115 778 q 385 986 276 940 q 621 1032 493 1032 m 621 994 q 401 950 503 994 q 226 828 300 906 q 110 646 153 751 q 68 418 68 540 q 111 194 68 299 q 229 10 154 89 q 405 -114 304 -68 q 621 -160 506 -160 q 835 -114 735 -160 q 1011 10 936 -68 q 1129 194 1086 89 q 1172 418 1172 299 q 1129 641 1172 536 q 1011 824 1086 746 q 835 949 936 903 q 621 994 735 994 m 622 110 q 688 119 657 110 q 742 148 718 129 q 779 194 765 167 q 793 256 793 221 q 779 317 793 289 q 742 365 765 344 q 687 396 718 385 q 622 407 656 407 q 558 396 589 407 q 503 365 526 385 q 465 317 479 344 q 451 256 451 289 q 465 194 451 221 q 503 148 479 167 q 557 119 526 129 q 622 110 588 110 m 622 472 q 678 481 650 472 q 727 505 706 489 q 763 544 749 521 q 776 600 776 568 q 731 695 776 661 q 622 729 685 729 q 514 695 560 729 q 468 600 468 661 q 481 544 468 568 q 517 505 494 521 q 567 481 539 489 q 622 472 594 472 m 622 49 q 523 65 568 49 q 445 108 478 81 q 395 172 413 135 q 378 250 378 208 q 410 364 378 314 q 510 438 442 414 q 424 503 456 460 q 393 600 393 546 q 408 673 393 639 q 451 733 422 707 q 522 775 479 760 q 622 790 565 790 q 722 775 679 790 q 794 733 765 760 q 837 673 822 707 q 851 600 851 639 q 819 503 851 546 q 735 438 788 460 q 835 364 803 414 q 867 250 867 314 q 850 172 867 208 q 801 108 833 135 q 724 65 769 81 q 622 49 679 49 z "},"⑨":{"ha":1239,"x_min":25,"x_max":1215,"o":"m 621 1032 q 851 983 743 1032 q 1041 851 960 935 q 1169 656 1122 768 q 1215 418 1215 544 q 1169 178 1215 290 q 1041 -17 1122 67 q 851 -149 960 -100 q 621 -197 743 -197 q 389 -149 497 -197 q 199 -17 281 -100 q 72 178 118 67 q 25 418 25 290 q 70 665 25 553 q 196 859 115 778 q 385 986 276 940 q 621 1032 493 1032 m 621 994 q 401 950 503 994 q 226 828 300 906 q 110 646 153 751 q 68 418 68 540 q 111 194 68 299 q 229 10 154 89 q 405 -114 304 -68 q 621 -160 506 -160 q 835 -114 735 -160 q 1011 10 936 -68 q 1129 194 1086 89 q 1172 418 1172 299 q 1129 641 1172 536 q 1011 824 1086 746 q 835 949 936 903 q 621 994 735 994 m 436 142 q 488 124 451 132 q 564 115 525 115 q 724 192 664 115 q 793 396 783 268 q 719 334 765 360 q 610 308 674 308 q 519 326 560 308 q 450 377 478 344 q 407 453 422 410 q 392 546 392 496 q 409 647 392 601 q 458 724 426 692 q 532 774 489 757 q 626 792 575 792 q 746 761 700 792 q 818 682 792 731 q 853 574 844 633 q 863 454 863 514 q 846 304 863 376 q 793 175 829 232 q 700 84 757 118 q 564 50 643 50 q 487 60 522 50 q 424 82 451 69 l 424 133 q 436 142 424 147 m 781 553 q 770 622 781 589 q 740 678 760 654 q 692 717 721 703 q 628 731 664 731 q 558 715 588 731 q 508 673 528 699 q 478 614 488 647 q 468 547 468 581 q 476 478 468 511 q 503 422 485 446 q 551 385 522 399 q 622 371 581 371 q 690 385 661 371 q 738 425 719 400 q 767 483 757 450 q 781 553 778 515 z "},"⑩":{"ha":1239,"x_min":25,"x_max":1215,"o":"m 621 1032 q 851 983 743 1032 q 1041 851 960 935 q 1169 656 1122 768 q 1215 418 1215 544 q 1169 178 1215 290 q 1041 -17 1122 67 q 851 -149 960 -100 q 621 -197 743 -197 q 389 -149 497 -197 q 199 -17 281 -100 q 72 178 118 67 q 25 418 25 290 q 70 665 25 553 q 196 859 115 778 q 385 986 276 940 q 621 1032 493 1032 m 621 994 q 401 950 503 994 q 226 828 300 906 q 110 646 153 751 q 68 418 68 540 q 111 194 68 299 q 229 10 154 89 q 405 -114 304 -68 q 621 -160 506 -160 q 835 -114 735 -160 q 1011 10 936 -68 q 1129 194 1086 89 q 1172 418 1172 299 q 1129 641 1172 536 q 1011 824 1086 746 q 835 949 936 903 q 621 994 735 994 m 211 613 l 211 668 q 289 713 251 685 q 354 772 326 740 l 435 772 l 435 53 l 361 53 l 361 681 q 291 636 329 656 q 225 606 253 617 q 211 613 211 597 m 769 789 q 940 698 882 789 q 997 414 997 607 q 940 135 997 222 q 769 47 883 47 q 598 135 654 47 q 542 414 542 222 q 599 698 542 607 q 769 789 656 789 m 769 719 q 654 645 689 719 q 619 414 619 571 q 655 184 619 254 q 769 114 690 114 q 884 184 849 114 q 919 414 919 254 q 885 645 919 571 q 769 719 850 719 z "},"⑪":{"ha":1239,"x_min":25,"x_max":1215,"o":"m 621 1032 q 851 983 743 1032 q 1041 851 960 935 q 1169 656 1122 768 q 1215 418 1215 544 q 1169 178 1215 290 q 1041 -17 1122 67 q 851 -149 960 -100 q 621 -197 743 -197 q 389 -149 497 -197 q 199 -17 281 -100 q 72 178 118 67 q 25 418 25 290 q 70 665 25 553 q 196 859 115 778 q 385 986 276 940 q 621 1032 493 1032 m 621 994 q 401 950 503 994 q 226 828 300 906 q 110 646 153 751 q 68 418 68 540 q 111 194 68 299 q 229 10 154 89 q 405 -114 304 -68 q 621 -160 506 -160 q 835 -114 735 -160 q 1011 10 936 -68 q 1129 194 1086 89 q 1172 418 1172 299 q 1129 641 1172 536 q 1011 824 1086 746 q 835 949 936 903 q 621 994 735 994 m 249 617 l 249 672 q 326 717 289 689 q 392 776 364 744 l 472 776 l 472 57 l 399 57 l 399 685 q 328 640 367 660 q 263 610 290 621 q 249 617 249 601 m 654 617 l 654 672 q 732 717 694 689 q 797 776 769 744 l 878 776 l 878 57 l 804 57 l 804 685 q 734 640 772 660 q 668 610 696 621 q 654 617 654 601 z "},"⑫":{"ha":1239,"x_min":25,"x_max":1215,"o":"m 621 1032 q 851 983 743 1032 q 1041 851 960 935 q 1169 656 1122 768 q 1215 418 1215 544 q 1169 178 1215 290 q 1041 -17 1122 67 q 851 -149 960 -100 q 621 -197 743 -197 q 389 -149 497 -197 q 199 -17 281 -100 q 72 178 118 67 q 25 418 25 290 q 70 665 25 553 q 196 859 115 778 q 385 986 276 940 q 621 1032 493 1032 m 621 994 q 401 950 503 994 q 226 828 300 906 q 110 646 153 751 q 68 418 68 540 q 111 194 68 299 q 229 10 154 89 q 405 -114 304 -68 q 621 -160 506 -160 q 835 -114 735 -160 q 1011 10 936 -68 q 1129 194 1086 89 q 1172 418 1172 299 q 1129 641 1172 536 q 1011 824 1086 746 q 835 949 936 903 q 621 994 735 994 m 193 617 l 193 672 q 271 717 233 689 q 336 776 308 744 l 417 776 l 417 57 l 343 57 l 343 685 q 273 640 311 660 q 207 610 235 621 q 193 617 193 601 m 601 638 q 591 634 596 632 q 586 643 586 636 l 586 711 q 669 765 622 742 q 775 789 717 789 q 924 742 867 789 q 982 600 982 696 q 972 538 982 567 q 942 479 961 508 q 899 418 924 450 q 843 349 874 386 l 657 125 l 986 125 l 986 57 l 561 57 l 561 115 l 778 369 q 837 449 813 417 q 876 507 861 482 q 897 552 890 532 q 903 597 903 572 q 873 691 903 660 q 778 722 843 722 q 688 701 733 722 q 601 638 642 679 z "},"⑬":{"ha":1239,"x_min":25,"x_max":1215,"o":"m 621 1032 q 851 983 743 1032 q 1041 851 960 935 q 1169 656 1122 768 q 1215 418 1215 544 q 1169 178 1215 290 q 1041 -17 1122 67 q 851 -149 960 -100 q 621 -197 743 -197 q 389 -149 497 -197 q 199 -17 281 -100 q 72 178 118 67 q 25 418 25 290 q 70 665 25 553 q 196 859 115 778 q 385 986 276 940 q 621 1032 493 1032 m 621 994 q 401 950 503 994 q 226 828 300 906 q 110 646 153 751 q 68 418 68 540 q 111 194 68 299 q 229 10 154 89 q 405 -114 304 -68 q 621 -160 506 -160 q 835 -114 735 -160 q 1011 10 936 -68 q 1129 194 1086 89 q 1172 418 1172 299 q 1129 641 1172 536 q 1011 824 1086 746 q 835 949 936 903 q 621 994 735 994 m 193 617 l 193 672 q 271 717 233 689 q 336 776 308 744 l 417 776 l 417 57 l 343 57 l 343 685 q 273 640 311 660 q 207 610 235 621 q 193 617 193 601 m 565 196 q 653 138 601 158 q 761 117 706 117 q 869 153 824 117 q 914 257 914 190 q 865 367 914 332 q 733 403 817 403 l 706 403 l 706 468 l 721 468 q 776 474 746 468 q 832 494 806 479 q 876 535 858 508 q 894 603 894 561 q 859 694 894 661 q 761 726 824 726 q 673 710 717 726 q 585 653 629 693 q 574 648 579 646 q 568 658 568 650 l 568 724 q 650 772 596 751 q 760 792 704 792 q 914 740 858 792 q 969 610 969 688 q 942 506 969 551 q 868 439 914 460 q 953 375 917 422 q 989 257 989 328 q 974 179 989 217 q 929 113 958 142 q 857 67 900 85 q 758 50 814 50 q 640 70 697 50 q 550 126 583 90 l 550 192 q 554 201 550 199 q 565 196 558 203 z "},"⑭":{"ha":1239,"x_min":25,"x_max":1215,"o":"m 621 1032 q 851 983 743 1032 q 1041 851 960 935 q 1169 656 1122 768 q 1215 418 1215 544 q 1169 178 1215 290 q 1041 -17 1122 67 q 851 -149 960 -100 q 621 -197 743 -197 q 389 -149 497 -197 q 199 -17 281 -100 q 72 178 118 67 q 25 418 25 290 q 70 665 25 553 q 196 859 115 778 q 385 986 276 940 q 621 1032 493 1032 m 621 994 q 401 950 503 994 q 226 828 300 906 q 110 646 153 751 q 68 418 68 540 q 111 194 68 299 q 229 10 154 89 q 405 -114 304 -68 q 621 -160 506 -160 q 835 -114 735 -160 q 1011 10 936 -68 q 1129 194 1086 89 q 1172 418 1172 299 q 1129 641 1172 536 q 1011 824 1086 746 q 835 949 936 903 q 621 994 735 994 m 193 617 l 193 672 q 271 717 233 689 q 336 776 308 744 l 417 776 l 417 57 l 343 57 l 343 685 q 273 640 311 660 q 207 610 235 621 q 193 617 193 601 m 518 276 l 818 776 l 901 776 l 901 286 l 1013 286 l 1013 222 l 901 222 l 901 57 l 829 57 l 829 222 l 518 222 l 518 276 m 833 285 l 833 679 l 824 660 l 603 285 l 833 285 z "},"⑮":{"ha":1239,"x_min":25,"x_max":1215,"o":"m 621 1032 q 851 983 743 1032 q 1041 851 960 935 q 1169 656 1122 768 q 1215 418 1215 544 q 1169 178 1215 290 q 1041 -17 1122 67 q 851 -149 960 -100 q 621 -197 743 -197 q 389 -149 497 -197 q 199 -17 281 -100 q 72 178 118 67 q 25 418 25 290 q 70 665 25 553 q 196 859 115 778 q 385 986 276 940 q 621 1032 493 1032 m 621 994 q 401 950 503 994 q 226 828 300 906 q 110 646 153 751 q 68 418 68 540 q 111 194 68 299 q 229 10 154 89 q 405 -114 304 -68 q 621 -160 506 -160 q 835 -114 735 -160 q 1011 10 936 -68 q 1129 194 1086 89 q 1172 418 1172 299 q 1129 641 1172 536 q 1011 824 1086 746 q 835 949 936 903 q 621 994 735 994 m 193 617 l 193 672 q 271 717 233 689 q 336 776 308 744 l 415 776 l 415 57 l 343 57 l 343 685 q 273 640 311 660 q 207 610 235 621 q 193 617 193 601 m 567 172 q 653 130 606 144 q 747 115 701 115 q 868 165 821 118 q 915 283 915 213 q 900 356 915 326 q 858 403 885 385 q 794 428 831 421 q 717 436 758 436 q 646 430 685 436 q 571 417 607 424 l 590 778 l 946 778 l 946 714 l 656 714 l 643 492 q 692 497 667 494 q 742 499 718 499 q 840 485 794 499 q 919 444 886 471 q 972 378 953 417 q 992 293 992 340 q 974 199 992 243 q 923 122 956 154 q 844 72 890 90 q 743 53 799 53 q 638 67 686 53 q 553 108 590 81 l 553 167 q 567 172 553 183 z "},"⑴":{"ha":1239,"x_min":25,"x_max":1214,"o":"m 447 647 l 447 707 q 531 756 492 725 q 601 824 571 788 l 688 824 l 688 17 l 611 17 l 611 728 q 533 676 575 699 q 458 642 490 654 q 449 638 451 636 q 447 647 447 639 m 1214 417 q 1169 104 1214 250 q 1028 -178 1124 -42 l 993 -178 q 1113 116 1076 -32 q 1150 417 1150 264 q 1113 717 1150 569 q 993 1011 1076 865 l 1028 1011 q 1169 729 1124 875 q 1214 417 1214 583 m 25 417 q 70 729 25 583 q 211 1011 115 875 l 246 1011 q 126 717 163 865 q 89 417 89 569 q 126 116 89 264 q 246 -178 163 -32 l 211 -178 q 70 104 115 -42 q 25 417 25 250 z "},"⑵":{"ha":1239,"x_min":25,"x_max":1214,"o":"m 424 676 q 414 673 418 671 q 410 682 410 675 l 410 756 q 506 815 450 789 q 628 842 561 842 q 798 791 735 842 q 861 632 861 740 q 850 563 861 596 q 818 497 839 531 q 768 428 797 464 q 704 349 739 392 l 485 93 l 872 93 l 872 21 l 381 21 l 381 86 l 633 374 q 703 464 675 428 q 749 527 732 500 q 774 577 767 554 q 781 628 781 600 q 744 735 781 699 q 631 772 708 772 q 525 748 578 772 q 424 676 472 724 m 1214 417 q 1169 104 1214 250 q 1028 -178 1124 -42 l 993 -178 q 1113 116 1076 -32 q 1150 417 1150 264 q 1113 717 1150 569 q 993 1011 1076 865 l 1028 1011 q 1169 729 1124 875 q 1214 417 1214 583 m 25 417 q 70 729 25 583 q 211 1011 115 875 l 246 1011 q 126 717 163 865 q 89 417 89 569 q 126 116 89 264 q 246 -178 163 -32 l 211 -178 q 70 104 115 -42 q 25 417 25 250 z "},"⑶":{"ha":1239,"x_min":25,"x_max":1214,"o":"m 401 169 q 503 103 443 126 q 626 79 564 79 q 695 90 663 79 q 753 122 728 101 q 792 173 778 143 q 807 240 807 203 q 750 367 807 325 q 597 408 693 408 l 567 408 l 567 475 l 583 475 q 645 481 610 475 q 711 505 681 488 q 763 552 742 522 q 785 629 785 582 q 742 734 785 696 q 628 772 699 772 q 526 753 576 772 q 425 689 475 735 q 408 696 408 675 l 408 765 q 448 794 424 781 q 501 817 472 807 q 562 834 531 828 q 625 840 593 840 q 725 825 681 840 q 800 783 769 810 q 847 719 831 756 q 863 639 863 682 q 832 523 863 575 q 743 444 801 471 q 844 372 804 425 q 883 240 883 319 q 867 154 883 196 q 817 81 850 113 q 736 29 785 49 q 624 10 688 10 q 555 15 589 10 q 490 32 521 21 q 432 59 458 43 q 388 94 406 75 l 388 164 q 401 169 388 183 m 1214 417 q 1169 104 1214 250 q 1028 -178 1124 -42 l 993 -178 q 1113 116 1076 -32 q 1150 417 1150 264 q 1113 717 1150 569 q 993 1011 1076 865 l 1028 1011 q 1169 729 1124 875 q 1214 417 1214 583 m 25 417 q 70 729 25 583 q 211 1011 115 875 l 246 1011 q 126 717 163 865 q 89 417 89 569 q 126 116 89 264 q 246 -178 163 -32 l 211 -178 q 70 104 115 -42 q 25 417 25 250 z "},"⑷":{"ha":1239,"x_min":25,"x_max":1214,"o":"m 308 253 l 674 815 l 760 815 l 760 263 l 883 263 l 883 196 l 760 196 l 760 8 l 686 8 l 686 196 l 308 196 l 308 253 m 690 261 l 690 719 l 674 688 l 393 261 l 690 261 m 1214 417 q 1169 104 1214 250 q 1028 -178 1124 -42 l 993 -178 q 1113 116 1076 -32 q 1150 417 1150 264 q 1113 717 1150 569 q 993 1011 1076 865 l 1028 1011 q 1169 729 1124 875 q 1214 417 1214 583 m 25 417 q 70 729 25 583 q 211 1011 115 875 l 246 1011 q 126 717 163 865 q 89 417 89 569 q 126 116 89 264 q 246 -178 163 -32 l 211 -178 q 70 104 115 -42 q 25 417 25 250 z "},"⑸":{"ha":1239,"x_min":25,"x_max":1214,"o":"m 392 133 q 493 85 436 101 q 603 68 550 68 q 683 85 646 69 q 747 126 719 100 q 789 186 774 151 q 804 261 804 221 q 785 343 804 310 q 735 397 767 376 q 661 426 704 417 q 571 435 618 435 q 489 428 532 435 q 407 414 446 421 l 428 814 l 831 814 l 831 746 l 496 746 l 481 493 q 542 499 511 496 q 600 501 572 501 q 711 485 660 501 q 799 440 763 469 q 857 367 836 410 q 878 271 878 325 q 858 165 878 214 q 802 81 839 117 q 714 24 765 44 q 599 3 663 3 q 379 64 465 3 l 379 128 q 392 133 379 143 m 1214 417 q 1169 104 1214 250 q 1028 -178 1124 -42 l 993 -178 q 1113 116 1076 -32 q 1150 417 1150 264 q 1113 717 1150 569 q 993 1011 1076 865 l 1028 1011 q 1169 729 1124 875 q 1214 417 1214 583 m 25 417 q 70 729 25 583 q 211 1011 115 875 l 246 1011 q 126 717 163 865 q 89 417 89 569 q 126 116 89 264 q 246 -178 163 -32 l 211 -178 q 70 104 115 -42 q 25 417 25 250 z "},"⑹":{"ha":1239,"x_min":25,"x_max":1214,"o":"m 831 724 q 765 753 799 743 q 692 763 732 763 q 596 738 639 763 q 521 670 553 714 q 469 567 489 626 q 443 438 449 508 q 526 517 478 492 q 635 542 574 542 q 728 522 685 542 q 804 466 772 501 q 854 382 836 431 q 872 276 872 333 q 853 163 872 214 q 801 76 835 113 q 722 21 768 40 q 619 1 675 1 q 505 30 553 1 q 426 108 457 58 q 381 227 396 158 q 367 378 367 296 q 385 538 367 457 q 442 683 403 618 q 543 790 482 749 q 690 831 604 831 q 771 822 735 831 q 840 796 807 814 l 840 732 q 831 724 840 718 m 449 268 q 462 190 449 226 q 499 126 475 153 q 554 83 522 99 q 624 68 586 68 q 701 85 668 68 q 755 131 733 103 q 787 195 776 158 q 797 272 797 232 q 787 350 797 314 q 756 414 776 386 q 703 458 735 442 q 628 474 671 474 q 551 458 583 474 q 497 413 519 442 q 463 347 475 385 q 449 268 451 310 m 1214 417 q 1169 104 1214 250 q 1028 -178 1124 -42 l 993 -178 q 1113 116 1076 -32 q 1150 417 1150 264 q 1113 717 1150 569 q 993 1011 1076 865 l 1028 1011 q 1169 729 1124 875 q 1214 417 1214 583 m 25 417 q 70 729 25 583 q 211 1011 115 875 l 246 1011 q 126 717 163 865 q 89 417 89 569 q 126 116 89 264 q 246 -178 163 -32 l 211 -178 q 70 104 115 -42 q 25 417 25 250 z "},"⑺":{"ha":1239,"x_min":25,"x_max":1214,"o":"m 567 -10 l 483 -10 l 803 721 l 378 721 l 378 789 l 881 789 l 881 724 l 567 -10 m 1214 417 q 1169 104 1214 250 q 1028 -178 1124 -42 l 993 -178 q 1113 116 1076 -32 q 1150 417 1150 264 q 1113 717 1150 569 q 993 1011 1076 865 l 1028 1011 q 1169 729 1124 875 q 1214 417 1214 583 m 25 417 q 70 729 25 583 q 211 1011 115 875 l 246 1011 q 126 717 163 865 q 89 417 89 569 q 126 116 89 264 q 246 -178 163 -32 l 211 -178 q 70 104 115 -42 q 25 417 25 250 z "},"⑻":{"ha":1239,"x_min":25,"x_max":1214,"o":"m 619 67 q 692 78 657 67 q 753 110 726 89 q 794 163 779 132 q 810 233 810 194 q 794 303 810 271 q 752 359 778 336 q 692 395 726 382 q 619 408 657 408 q 548 395 582 408 q 488 359 514 382 q 447 303 463 336 q 431 233 431 271 q 446 163 431 194 q 488 110 461 132 q 548 78 514 89 q 619 67 582 67 m 619 475 q 681 484 650 475 q 736 512 713 493 q 775 558 760 531 q 790 622 790 586 q 776 684 790 657 q 739 730 763 711 q 685 759 715 749 q 619 769 654 769 q 554 759 585 769 q 500 730 524 749 q 463 684 476 711 q 449 622 449 657 q 464 558 449 586 q 503 512 479 531 q 558 484 528 493 q 619 475 589 475 m 619 3 q 513 20 561 3 q 429 68 464 38 q 376 140 394 99 q 357 228 357 181 q 392 355 357 299 q 506 439 426 411 q 407 515 440 467 q 374 622 374 563 q 389 703 374 665 q 435 770 404 742 q 511 815 465 799 q 619 832 557 832 q 728 815 682 832 q 805 770 774 799 q 851 703 836 742 q 867 622 867 665 q 833 515 867 563 q 733 439 799 467 q 848 355 813 411 q 883 228 883 299 q 865 141 883 182 q 813 69 847 100 q 730 21 779 39 q 619 3 681 3 m 1214 417 q 1169 104 1214 250 q 1028 -178 1124 -42 l 993 -178 q 1113 116 1076 -32 q 1150 417 1150 264 q 1113 717 1150 569 q 993 1011 1076 865 l 1028 1011 q 1169 729 1124 875 q 1214 417 1214 583 m 25 417 q 70 729 25 583 q 211 1011 115 875 l 246 1011 q 126 717 163 865 q 89 417 89 569 q 126 116 89 264 q 246 -178 163 -32 l 211 -178 q 70 104 115 -42 q 25 417 25 250 z "},"⑼":{"ha":1239,"x_min":25,"x_max":1214,"o":"m 417 103 q 439 92 424 97 q 473 82 454 86 q 513 75 492 78 q 556 72 535 72 q 732 160 665 72 q 810 401 799 249 q 726 325 776 354 q 606 296 675 296 q 508 317 551 296 q 435 373 465 338 q 388 457 404 408 q 372 561 372 506 q 391 674 372 624 q 443 760 410 725 q 522 815 476 796 q 624 835 568 835 q 753 801 703 835 q 831 713 803 767 q 869 591 858 658 q 879 457 879 524 q 861 289 879 371 q 804 144 843 207 q 703 42 765 81 q 556 4 642 4 q 473 15 511 4 q 407 39 435 25 l 407 94 q 417 103 407 107 m 796 568 q 784 647 796 610 q 751 713 772 685 q 697 756 729 740 q 626 772 665 772 q 549 754 582 772 q 493 706 515 736 q 460 639 471 676 q 449 563 449 601 q 458 484 449 521 q 489 420 468 447 q 542 377 510 393 q 619 361 574 361 q 694 378 663 361 q 748 422 726 394 q 781 488 769 450 q 796 568 792 526 m 1214 417 q 1169 104 1214 250 q 1028 -178 1124 -42 l 993 -178 q 1113 116 1076 -32 q 1150 417 1150 264 q 1113 717 1150 569 q 993 1011 1076 865 l 1028 1011 q 1169 729 1124 875 q 1214 417 1214 583 m 25 417 q 70 729 25 583 q 211 1011 115 875 l 246 1011 q 126 717 163 865 q 89 417 89 569 q 126 116 89 264 q 246 -178 163 -32 l 211 -178 q 70 104 115 -42 q 25 417 25 250 z "},"⑽":{"ha":1239,"x_min":25,"x_max":1214,"o":"m 175 653 l 175 713 q 258 762 219 731 q 329 829 297 793 l 414 829 l 414 22 l 339 22 l 339 733 q 259 682 301 704 q 186 647 217 660 q 177 643 179 642 q 175 653 175 644 m 781 847 q 964 745 903 847 q 1025 428 1025 643 q 964 115 1025 214 q 781 17 903 17 q 597 115 657 17 q 536 428 536 214 q 597 745 536 643 q 781 847 657 847 m 781 775 q 653 690 692 775 q 614 428 614 606 q 653 167 614 247 q 781 86 693 86 q 908 167 868 86 q 947 428 947 247 q 908 690 947 606 q 781 775 869 775 m 1214 417 q 1169 104 1214 250 q 1028 -178 1124 -42 l 993 -178 q 1113 116 1076 -32 q 1150 417 1150 264 q 1113 717 1150 569 q 993 1011 1076 865 l 1028 1011 q 1169 729 1124 875 q 1214 417 1214 583 m 25 417 q 70 729 25 583 q 211 1011 115 875 l 246 1011 q 126 717 163 865 q 89 417 89 569 q 126 116 89 264 q 246 -178 163 -32 l 211 -178 q 70 104 115 -42 q 25 417 25 250 z "},"⑾":{"ha":1239,"x_min":25,"x_max":1214,"o":"m 225 654 l 225 713 q 309 763 269 732 q 381 831 349 794 l 464 831 l 464 22 l 389 22 l 389 735 q 310 683 351 704 q 236 647 268 661 q 225 654 225 638 m 668 653 l 668 713 q 751 763 711 732 q 822 831 790 794 l 906 831 l 906 22 l 831 22 l 831 735 q 751 683 793 704 q 679 647 708 661 q 668 653 668 640 m 1214 417 q 1169 104 1214 250 q 1028 -178 1124 -42 l 993 -178 q 1113 116 1076 -32 q 1150 417 1150 264 q 1113 717 1150 569 q 993 1011 1076 865 l 1028 1011 q 1169 729 1124 875 q 1214 417 1214 583 m 25 417 q 70 729 25 583 q 211 1011 115 875 l 246 1011 q 126 717 163 865 q 89 417 89 569 q 126 116 89 264 q 246 -178 163 -32 l 211 -178 q 70 104 115 -42 q 25 417 25 250 z "},"⑿":{"ha":1239,"x_min":25,"x_max":1214,"o":"m 182 654 l 182 713 q 267 763 226 732 q 338 831 307 794 l 422 831 l 422 22 l 346 22 l 346 735 q 267 683 310 704 q 193 647 225 661 q 182 654 182 638 m 596 678 q 583 683 583 667 l 583 757 q 672 817 621 790 q 786 843 724 843 q 947 792 885 843 q 1008 633 1008 740 q 997 565 1008 597 q 966 499 986 532 q 918 430 946 465 q 857 351 890 394 l 653 94 l 1014 94 l 1014 22 l 556 22 l 556 85 l 793 372 q 857 463 831 426 q 899 528 883 500 q 922 579 915 556 q 929 631 929 603 q 790 774 929 774 q 596 678 688 774 m 1214 417 q 1169 104 1214 250 q 1028 -178 1124 -42 l 993 -178 q 1113 116 1076 -32 q 1150 417 1150 264 q 1113 717 1150 569 q 993 1011 1076 865 l 1028 1011 q 1169 729 1124 875 q 1214 417 1214 583 m 25 417 q 70 729 25 583 q 211 1011 115 875 l 246 1011 q 126 717 163 865 q 89 417 89 569 q 126 116 89 264 q 246 -178 163 -32 l 211 -178 q 70 104 115 -42 q 25 417 25 250 z "},"⒀":{"ha":1239,"x_min":25,"x_max":1214,"o":"m 182 654 l 182 713 q 267 763 226 732 q 338 831 307 794 l 422 831 l 422 22 l 346 22 l 346 735 q 267 683 310 704 q 193 647 225 661 q 182 654 182 638 m 543 175 q 641 108 583 132 q 758 85 699 85 q 824 96 793 85 q 877 128 854 107 q 914 178 900 149 q 928 246 928 208 q 874 372 928 331 q 731 414 821 414 l 700 414 l 700 482 l 717 482 q 776 488 743 482 q 838 511 808 494 q 887 558 867 528 q 907 635 907 588 q 867 740 907 701 q 758 779 826 779 q 662 760 710 779 q 565 694 614 742 q 554 690 558 688 q 550 701 550 692 l 550 771 q 639 824 581 801 q 757 846 697 846 q 851 831 810 846 q 922 788 893 815 q 967 724 951 761 q 982 644 982 688 q 952 529 982 581 q 868 451 922 478 q 965 378 926 432 q 1004 246 1004 325 q 988 160 1004 201 q 940 86 972 118 q 862 35 908 54 q 756 15 815 15 q 628 38 689 15 q 532 100 567 60 l 532 171 q 543 175 532 189 m 1214 417 q 1169 104 1214 250 q 1028 -178 1124 -42 l 993 -178 q 1113 116 1076 -32 q 1150 417 1150 264 q 1113 717 1150 569 q 993 1011 1076 865 l 1028 1011 q 1169 729 1124 875 q 1214 417 1214 583 m 25 417 q 70 729 25 583 q 211 1011 115 875 l 246 1011 q 126 717 163 865 q 89 417 89 569 q 126 116 89 264 q 246 -178 163 -32 l 211 -178 q 70 104 115 -42 q 25 417 25 250 z "},"⒁":{"ha":1239,"x_min":25,"x_max":1214,"o":"m 182 654 l 182 713 q 267 763 226 732 q 338 831 307 794 l 422 831 l 422 22 l 346 22 l 346 735 q 267 683 310 704 q 193 647 225 661 q 182 654 182 638 m 496 267 l 819 831 l 907 831 l 907 276 l 1028 276 l 1028 210 l 907 210 l 907 22 l 833 22 l 833 210 l 496 210 l 496 267 m 839 275 l 839 733 l 822 703 l 581 275 l 839 275 m 1214 417 q 1169 104 1214 250 q 1028 -178 1124 -42 l 993 -178 q 1113 116 1076 -32 q 1150 417 1150 264 q 1113 717 1150 569 q 993 1011 1076 865 l 1028 1011 q 1169 729 1124 875 q 1214 417 1214 583 m 25 417 q 70 729 25 583 q 211 1011 115 875 l 246 1011 q 126 717 163 865 q 89 417 89 569 q 126 116 89 264 q 246 -178 163 -32 l 211 -178 q 70 104 115 -42 q 25 417 25 250 z "},"⒂":{"ha":1239,"x_min":25,"x_max":1214,"o":"m 181 654 l 181 713 q 265 763 225 732 q 336 831 306 794 l 418 831 l 418 22 l 344 22 l 344 735 q 266 683 308 704 q 192 647 224 661 q 181 654 181 638 m 560 149 q 656 100 603 117 q 758 83 710 83 q 833 100 799 85 q 892 141 867 115 q 931 201 917 167 q 944 276 944 236 q 927 358 944 325 q 880 412 910 392 q 810 441 850 432 q 725 450 771 450 q 648 443 690 450 q 569 429 606 436 l 590 832 l 972 832 l 972 764 l 657 764 l 643 508 q 699 514 671 511 q 753 517 728 517 q 859 501 810 517 q 944 455 908 485 q 1001 383 981 425 q 1022 286 1022 340 q 1003 181 1022 229 q 949 96 983 132 q 864 39 914 60 q 754 18 814 18 q 550 79 631 18 l 550 143 q 560 149 550 158 m 1214 417 q 1169 104 1214 250 q 1028 -178 1124 -42 l 993 -178 q 1113 116 1076 -32 q 1150 417 1150 264 q 1113 717 1150 569 q 993 1011 1076 865 l 1028 1011 q 1169 729 1124 875 q 1214 417 1214 583 m 25 417 q 70 729 25 583 q 211 1011 115 875 l 246 1011 q 126 717 163 865 q 89 417 89 569 q 126 116 89 264 q 246 -178 163 -32 l 211 -178 q 70 104 115 -42 q 25 417 25 250 z "},"⒜":{"ha":1239,"x_min":25,"x_max":1214,"o":"m 779 346 l 779 443 l 574 417 q 467 365 506 406 q 428 272 428 324 q 463 188 428 214 q 556 163 497 163 q 643 176 603 163 q 714 213 683 189 q 762 272 744 238 q 779 346 779 306 m 435 601 q 418 599 426 596 q 410 608 410 601 l 410 683 q 508 730 450 708 q 631 751 567 751 q 800 703 743 751 q 857 538 857 654 l 857 103 l 779 103 l 775 203 q 741 162 763 182 q 690 126 719 142 q 626 101 661 111 q 551 92 590 92 q 464 105 501 92 q 401 142 426 118 q 362 197 375 165 q 349 265 349 229 q 409 412 349 360 q 568 479 469 464 l 776 508 l 776 535 q 745 645 776 610 q 626 681 714 681 q 517 658 565 681 q 435 601 469 635 m 1214 417 q 1169 104 1214 250 q 1028 -178 1124 -42 l 993 -178 q 1113 116 1076 -32 q 1150 417 1150 264 q 1113 717 1150 569 q 993 1011 1076 865 l 1028 1011 q 1169 729 1124 875 q 1214 417 1214 583 m 25 417 q 70 729 25 583 q 211 1011 115 875 l 246 1011 q 126 717 163 865 q 89 417 89 569 q 126 116 89 264 q 246 -178 163 -32 l 211 -178 q 70 104 115 -42 q 25 417 25 250 z "},"⒝":{"ha":1239,"x_min":25,"x_max":1214,"o":"m 471 349 l 471 236 q 486 165 471 197 q 527 110 501 133 q 588 75 553 88 q 663 63 622 63 q 736 79 701 63 q 797 128 771 96 q 838 210 824 161 q 853 322 853 258 q 800 507 853 447 q 664 567 747 567 q 591 551 626 567 q 529 506 556 535 q 487 436 503 476 q 471 349 471 396 m 671 639 q 864 557 793 639 q 935 324 935 475 q 913 181 935 243 q 856 75 892 118 q 770 10 819 32 q 667 -12 721 -12 q 557 15 608 -12 q 475 83 506 42 l 471 -3 l 394 -3 l 394 881 l 471 881 l 471 510 q 505 556 485 533 q 550 598 525 579 q 605 628 575 617 q 671 639 635 639 m 1214 417 q 1169 104 1214 250 q 1028 -178 1124 -42 l 993 -178 q 1113 116 1076 -32 q 1150 417 1150 264 q 1113 717 1150 569 q 993 1011 1076 865 l 1028 1011 q 1169 729 1124 875 q 1214 417 1214 583 m 25 417 q 70 729 25 583 q 211 1011 115 875 l 246 1011 q 126 717 163 865 q 89 417 89 569 q 126 116 89 264 q 246 -178 163 -32 l 211 -178 q 70 104 115 -42 q 25 417 25 250 z "}}}
